<?xml version="1.0" encoding="UTF-8" standalone="no"?>
<svg
   xmlns:dc="http://purl.org/dc/elements/1.1/"
   xmlns:cc="http://creativecommons.org/ns#"
   xmlns:rdf="http://www.w3.org/1999/02/22-rdf-syntax-ns#"
   xmlns:svg="http://www.w3.org/2000/svg"
   xmlns="http://www.w3.org/2000/svg"
   viewBox="0 0 381.16 358.18668"
   height="358.18668"
   width="381.16"
   xml:space="preserve"
   id="svg2"
   version="1.1"><metadata
     id="metadata8"><rdf:RDF><cc:Work
         rdf:about=""><dc:format>image/svg+xml</dc:format><dc:type
           rdf:resource="http://purl.org/dc/dcmitype/StillImage" /></cc:Work></rdf:RDF></metadata><defs
     id="defs6" /><g
     transform="matrix(1.3333333,0,0,-1.3333333,0,358.18667)"
     id="g10"><g
       transform="scale(0.1)"
       id="g12"><path
         id="path14"
         style="fill:#ed1c24;fill-opacity:1;fill-rule:nonzero;stroke:none"
         d="M 2694.24,1343.22 C 2694.24,601.371 2091.11,0 1347.1,0 603.129,0 0,601.371 0,1343.22 c 0,741.83 603.129,1343.22 1347.1,1343.22 744.01,0 1347.14,-601.39 1347.14,-1343.22" /><path
         id="path16"
         style="fill:#231f20;fill-opacity:1;fill-rule:nonzero;stroke:none"
         d="m 1204.82,116.898 69.27,1831.852 402.51,-396.98 222.26,709.65 935.79,-1236.03 -386.98,-426.718 -315.7,450.028 -174.62,-417.11 -370.42,261.219 3.9,-775.911 h -386.01" /><path
         id="path18"
         style="fill:none;stroke:#231f20;stroke-width:37.04550171;stroke-linecap:butt;stroke-linejoin:miter;stroke-miterlimit:4;stroke-dasharray:none;stroke-opacity:1"
         d="m 1204.82,116.898 69.27,1831.852 402.51,-396.98 222.26,709.65 935.79,-1236.03 -386.98,-426.718 -315.7,450.028 -174.62,-417.11 -370.42,261.219 3.9,-775.911 z" /><path
         id="path20"
         style="fill:#231f20;fill-opacity:1;fill-rule:nonzero;stroke:none"
         d="M 311.895,2211.1 428.316,526.332 c 0,0 732.354,395.938 863.824,803.998 131.44,408.06 -71.36,804.01 -296.71,925.21 -225.348,121.21 -563.352,20.22 -683.535,-44.44" /><path
         id="path22"
         style="fill:none;stroke:#231f20;stroke-width:39.72029877;stroke-linecap:butt;stroke-linejoin:miter;stroke-miterlimit:4;stroke-dasharray:none;stroke-opacity:1"
         d="M 311.895,2211.1 428.316,526.332 c 0,0 732.354,395.938 863.824,803.998 131.44,408.06 -71.36,804.01 -296.71,925.21 -225.348,121.21 -563.352,20.22 -683.535,-44.44 z" /><path
         id="path24"
         style="fill:#fff200;fill-opacity:1;fill-rule:nonzero;stroke:none"
         d="M 116.941,2234.14 237.813,608.219 c 0,0 760.316,382.113 896.787,775.911 136.48,393.81 -74.08,775.92 -308.03,892.89 -233.941,116.98 -584.855,19.51 -709.629,-42.88" /><path
         id="path26"
         style="fill:none;stroke:#231f20;stroke-width:39.7580986;stroke-linecap:butt;stroke-linejoin:miter;stroke-miterlimit:4;stroke-dasharray:none;stroke-opacity:1"
         d="M 116.941,2234.14 237.813,608.219 c 0,0 760.316,382.113 896.787,775.911 136.48,393.81 -74.08,775.92 -308.03,892.89 -233.941,116.98 -584.855,19.51 -709.629,-42.88 z" /><path
         id="path28"
         style="fill:#fff200;fill-opacity:1;fill-rule:nonzero;stroke:none"
         d="M 943.559,276.801 951.363,1961.19 1485.54,1489.4 1738.97,2292.61 2666.95,1044.92 2284.85,592.609 1926.14,1048.8 1781.88,627.711 1489.44,877.25 V 272.891 l -545.881,3.91" /><path
         id="path30"
         style="fill:none;stroke:#231f20;stroke-width:39.7580986;stroke-linecap:butt;stroke-linejoin:miter;stroke-miterlimit:4;stroke-dasharray:none;stroke-opacity:1"
         d="M 943.559,276.801 951.363,1961.19 1485.54,1489.4 1738.97,2292.61 2666.95,1044.92 2284.85,592.609 1926.14,1048.8 1781.88,627.711 1489.44,877.25 V 272.891 Z" /><path
         id="path32"
         style="fill:#231f20;fill-opacity:1;fill-rule:nonzero;stroke:none"
         d="m 495.172,1887.11 54.594,-643.35 c 0,0 245.629,183.26 198.843,409.4 -46.789,226.14 -253.437,233.95 -253.437,233.95" /><path
         id="path34"
         style="fill:none;stroke:#231f20;stroke-width:19.8791008;stroke-linecap:butt;stroke-linejoin:miter;stroke-miterlimit:4;stroke-dasharray:none;stroke-opacity:1"
         d="m 495.172,1887.11 54.594,-643.35 c 0,0 245.629,183.26 198.843,409.4 -46.789,226.14 -253.437,233.95 -253.437,233.95 z" /></g></g></svg>