<svg id="svg" version="1.1" xmlns="http://www.w3.org/2000/svg" xmlns:xlink="http://www.w3.org/1999/xlink" width="400" height="400" viewBox="0, 0, 400,400"><g id="svgg"><path id="path0" d="M29.245 25.382 C 24.930 26.451,22.825 28.577,21.799 32.902 L 21.247 35.231 22.825 149.565 L 24.402 263.900 24.973 266.412 C 25.988 270.874,28.210 273.091,32.647 274.070 L 35.100 274.611 100.600 261.823 C 136.625 254.790,166.136 249.070,166.179 249.113 C 166.223 249.156,165.405 276.335,164.362 309.510 L 162.466 369.829 163.006 372.091 C 163.996 376.238,166.153 378.402,170.274 379.384 L 172.500 379.915 201.100 379.785 L 229.700 379.656 232.034 379.112 C 236.368 378.103,238.525 375.936,239.513 371.600 L 240.037 369.300 237.840 337.100 C 236.631 319.390,235.658 304.883,235.677 304.861 C 235.696 304.840,239.606 318.601,244.366 335.441 L 253.022 366.059 253.942 367.349 C 256.581 371.046,258.696 371.617,271.600 372.115 L 280.500 372.459 282.666 371.929 C 285.014 371.356,287.090 370.168,287.964 368.900 C 288.192 368.570,288.632 367.935,288.942 367.489 C 289.380 366.861,291.260 360.802,297.304 340.551 C 302.256 323.955,305.119 314.657,305.153 315.062 C 305.183 315.413,304.404 326.312,303.422 339.282 L 301.638 362.864 302.194 365.145 C 303.231 369.393,305.355 371.495,309.610 372.484 L 311.921 373.021 340.910 372.733 L 369.900 372.445 371.968 371.921 C 376.021 370.895,378.261 368.609,379.220 364.518 L 379.744 362.286 374.982 251.793 L 370.220 141.300 369.668 138.853 C 368.697 134.549,366.502 132.319,362.252 131.319 L 359.939 130.774 329.254 130.108 L 298.569 129.443 296.297 129.976 C 293.515 130.629,291.975 131.615,290.406 133.749 C 289.120 135.498,289.731 132.825,280.288 178.000 C 276.022 198.405,272.478 215.165,272.412 215.244 C 272.346 215.323,268.745 200.338,264.410 181.944 C 260.075 163.550,256.338 147.735,256.106 146.800 C 255.235 143.295,252.746 141.000,248.822 140.084 L 246.500 139.543 220.400 139.752 C 206.045 139.868,194.286 139.948,194.269 139.931 C 194.252 139.914,192.072 119.965,189.425 95.600 C 183.977 45.444,184.207 47.115,182.388 44.622 C 180.787 42.427,179.238 41.424,176.400 40.745 C 174.541 40.299,69.190 28.719,32.400 24.916 C 31.810 24.855,30.724 25.016,29.245 25.382 M103.200 42.831 C 142.195 47.034,174.124 50.487,174.153 50.506 C 174.194 50.531,193.770 229.816,194.034 232.589 L 194.100 233.278 114.500 248.801 L 34.900 264.324 34.757 262.612 C 34.645 261.262,31.561 40.822,31.592 36.350 C 31.599 35.393,31.659 35.199,31.950 35.195 C 32.143 35.192,64.205 38.628,103.200 42.831 M85.101 150.804 C 85.019 186.232,84.988 215.255,85.033 215.300 C 85.078 215.345,98.117 211.168,114.008 206.017 L 142.900 196.653 142.956 196.077 C 143.008 195.537,135.447 98.170,135.346 98.089 C 135.321 98.068,124.185 95.470,110.600 92.314 C 97.015 89.158,85.754 86.534,85.576 86.483 C 85.277 86.397,85.239 91.524,85.101 150.804 M125.751 106.513 C 125.913 107.757,132.198 189.105,132.145 189.266 C 132.091 189.427,95.334 201.476,95.308 201.341 C 95.304 201.319,95.328 178.300,95.362 150.189 L 95.425 99.078 110.562 102.602 C 123.965 105.721,125.706 106.170,125.751 106.513 M330.700 140.217 C 346.760 140.560,359.953 140.900,360.018 140.971 C 360.161 141.129,369.695 362.172,369.563 362.303 C 369.452 362.415,311.937 362.985,311.817 362.876 C 311.771 362.834,314.096 331.437,316.982 293.105 C 319.869 254.773,322.202 223.275,322.166 223.109 C 322.130 222.944,312.748 254.149,301.317 292.454 C 289.887 330.759,280.475 362.170,280.402 362.255 C 280.288 362.389,262.223 361.689,262.079 361.546 C 262.051 361.517,252.414 327.484,240.664 285.916 C 227.212 238.330,219.282 210.591,219.251 211.019 C 219.224 211.394,221.622 247.205,224.580 290.600 C 227.538 333.995,229.945 369.514,229.929 369.532 C 229.913 369.549,217.007 369.630,201.250 369.711 L 172.600 369.858 172.600 368.948 C 172.600 365.472,176.437 247.086,176.553 246.982 C 176.634 246.910,180.525 246.109,185.200 245.202 C 197.537 242.810,198.318 242.610,199.974 241.405 C 202.060 239.888,202.964 238.464,203.703 235.531 L 204.305 233.138 199.775 191.619 C 197.284 168.784,195.257 150.087,195.273 150.070 C 195.383 149.950,246.507 149.629,246.619 149.748 C 246.698 149.831,252.643 174.856,259.830 205.357 C 268.000 240.031,272.953 260.680,273.046 260.457 C 273.127 260.261,278.782 233.415,285.611 200.800 C 292.441 168.185,298.120 141.072,298.231 140.550 L 298.433 139.600 299.967 139.596 C 300.810 139.594,314.640 139.873,330.700 140.217 " stroke="none" fill="#1b6c04" fill-rule="evenodd"></path><path id="path1" d="M31.592 36.350 C 31.561 40.822,34.645 261.262,34.757 262.612 L 34.900 264.324 114.500 248.801 L 194.100 233.278 194.034 232.589 C 193.770 229.816,174.194 50.531,174.153 50.506 C 174.065 50.450,32.325 35.189,31.950 35.195 C 31.659 35.199,31.599 35.393,31.592 36.350 M110.600 92.314 C 124.185 95.470,135.321 98.068,135.346 98.089 C 135.447 98.170,143.008 195.537,142.956 196.077 L 142.900 196.653 114.008 206.017 C 98.117 211.168,85.078 215.345,85.033 215.300 C 84.730 214.997,85.272 86.395,85.576 86.483 C 85.754 86.534,97.015 89.158,110.600 92.314 M298.231 140.550 C 298.120 141.072,292.441 168.185,285.611 200.800 C 278.782 233.415,273.127 260.261,273.046 260.457 C 272.953 260.680,268.000 240.031,259.830 205.357 C 252.643 174.856,246.698 149.831,246.619 149.748 C 246.507 149.629,195.383 149.950,195.273 150.070 C 195.257 150.087,197.284 168.784,199.775 191.619 L 204.305 233.138 203.703 235.531 C 202.964 238.464,202.060 239.888,199.974 241.405 C 198.318 242.610,197.537 242.810,185.200 245.202 C 180.525 246.109,176.634 246.910,176.553 246.982 C 176.437 247.086,172.600 365.472,172.600 368.948 L 172.600 369.858 201.250 369.711 C 217.007 369.630,229.913 369.549,229.929 369.532 C 229.945 369.514,227.538 333.995,224.580 290.600 C 221.622 247.205,219.224 211.394,219.251 211.019 C 219.282 210.591,227.212 238.330,240.664 285.916 C 252.414 327.484,262.051 361.517,262.079 361.546 C 262.223 361.689,280.288 362.389,280.402 362.255 C 280.475 362.170,289.887 330.759,301.317 292.454 C 312.748 254.149,322.130 222.944,322.166 223.109 C 322.202 223.275,319.869 254.773,316.982 293.105 C 314.096 331.437,311.771 362.834,311.817 362.876 C 311.937 362.985,369.452 362.415,369.563 362.303 C 369.695 362.172,360.161 141.129,360.018 140.971 C 359.917 140.860,304.227 139.585,299.967 139.596 L 298.433 139.600 298.231 140.550 " stroke="none" fill="#04fc04" fill-rule="evenodd"></path></g></svg>