<svg id="svg" version="1.1" xmlns="http://www.w3.org/2000/svg" xmlns:xlink="http://www.w3.org/1999/xlink" width="400" height="400" viewBox="0, 0, 400,400"><g id="svgg"><path id="path0" d="M27.026 16.106 L 22.553 17.191 19.926 19.080 C 17.373 20.917,17.248 21.041,15.446 23.563 L 13.592 26.156 12.518 30.669 L 11.445 35.182 13.018 149.541 L 14.591 263.900 15.626 268.400 C 16.829 273.628,16.579 273.024,18.810 276.092 C 20.430 278.320,20.737 278.627,22.911 280.200 C 25.983 282.423,25.455 282.204,30.600 283.385 L 35.100 284.417 95.400 272.640 L 155.700 260.863 155.748 262.481 C 155.775 263.372,155.045 287.874,154.125 316.930 L 152.454 369.761 153.529 374.302 L 154.603 378.843 156.503 381.471 C 158.342 384.014,158.487 384.160,160.980 385.948 L 163.557 387.796 168.129 388.871 L 172.700 389.946 201.400 389.787 L 230.100 389.627 234.515 388.552 L 238.931 387.477 241.527 385.600 C 244.645 383.344,247.561 379.725,248.152 377.378 C 248.357 376.566,248.522 376.247,248.675 376.363 C 248.799 376.456,249.845 377.211,251.000 378.040 L 253.100 379.548 257.900 380.663 L 262.700 381.778 271.545 382.128 L 280.390 382.478 284.845 381.422 L 289.300 380.366 291.951 378.465 C 293.593 377.287,294.842 376.228,295.235 375.682 C 295.996 374.621,295.788 374.589,296.695 375.905 C 297.273 376.744,298.112 377.482,300.178 378.967 L 302.900 380.924 307.374 381.974 L 311.849 383.025 340.474 382.791 L 369.100 382.557 373.800 381.462 L 378.500 380.367 381.142 378.472 C 383.699 376.637,385.632 374.490,387.488 371.425 C 387.580 371.273,388.128 369.163,388.707 366.735 L 389.758 362.322 384.983 251.711 L 380.208 141.100 379.179 136.700 C 378.000 131.662,378.153 132.026,375.948 129.004 C 374.365 126.834,374.125 126.602,371.586 124.785 L 368.900 122.861 364.440 121.812 L 359.980 120.763 329.252 120.096 L 298.524 119.429 294.312 120.421 C 288.049 121.896,285.668 123.413,282.349 128.040 L 280.442 130.700 279.134 136.300 C 278.414 139.380,276.504 148.245,274.890 156.000 C 273.275 163.755,271.893 170.166,271.820 170.247 C 271.746 170.328,270.117 163.729,268.199 155.582 L 264.711 140.771 262.803 138.143 C 260.975 135.625,260.786 135.436,258.297 133.619 L 255.700 131.724 251.300 130.654 L 246.900 129.584 224.960 129.716 L 203.020 129.848 202.918 129.374 C 202.862 129.113,200.920 111.395,198.602 90.000 L 194.389 51.100 193.287 46.400 C 192.087 41.281,192.363 41.907,189.611 38.085 C 188.472 36.504,188.017 36.076,185.716 34.416 L 183.110 32.536 178.631 31.468 L 174.152 30.401 103.726 22.803 C 64.992 18.625,32.895 15.164,32.400 15.113 C 31.749 15.046,30.260 15.322,27.026 16.106 M103.600 32.699 C 162.441 39.066,175.042 40.482,176.684 40.909 C 179.264 41.580,180.864 42.656,182.323 44.701 C 184.079 47.163,183.828 45.335,189.272 95.268 C 191.941 119.756,194.186 139.853,194.259 139.926 C 194.333 140.000,206.117 139.963,220.447 139.845 L 246.501 139.631 248.801 140.177 C 251.627 140.847,253.127 141.814,254.700 143.980 L 255.700 145.357 263.992 180.577 C 268.552 199.948,272.344 215.730,272.417 215.648 C 272.491 215.567,276.161 198.265,280.574 177.200 C 284.986 156.135,288.806 138.045,289.062 137.000 C 289.976 133.266,292.316 131.024,296.295 130.069 L 298.473 129.546 329.087 130.189 L 359.700 130.833 362.140 131.410 C 366.621 132.471,368.617 134.544,369.608 139.165 L 370.194 141.900 374.923 252.100 L 379.651 362.300 379.105 364.552 C 378.095 368.722,375.871 370.905,371.654 371.868 L 369.300 372.405 340.600 372.660 L 311.900 372.915 309.657 372.386 C 307.499 371.878,306.795 371.540,304.986 370.143 C 303.852 369.267,302.811 367.316,302.281 365.074 L 301.745 362.805 303.591 338.307 C 304.606 324.833,305.406 313.721,305.368 313.615 C 305.331 313.508,301.886 324.869,297.714 338.860 C 288.652 369.246,289.493 366.612,288.358 368.167 C 286.876 370.198,285.360 371.167,282.613 371.837 L 280.326 372.396 271.313 371.995 C 258.381 371.420,256.658 370.943,253.985 367.200 L 253.057 365.900 244.378 335.145 C 237.843 311.985,235.688 304.602,235.653 305.245 C 235.627 305.715,236.579 320.348,237.770 337.762 L 239.935 369.425 239.391 371.704 C 238.387 375.908,236.261 378.018,232.030 379.010 L 229.700 379.556 201.100 379.693 L 172.500 379.829 170.304 379.293 C 166.151 378.281,164.074 376.176,163.095 371.987 L 162.560 369.700 164.372 311.700 C 165.369 279.800,166.238 252.642,166.304 251.350 L 166.424 249.000 165.962 249.011 C 165.708 249.017,136.115 254.758,100.200 261.768 L 34.900 274.514 32.541 273.952 C 28.397 272.967,26.176 270.823,25.127 266.800 L 24.580 264.700 22.964 150.000 L 21.348 35.300 21.877 33.000 C 22.983 28.182,26.805 25.108,31.800 25.018 C 32.185 25.011,64.495 28.467,103.600 32.699 M95.333 133.937 C 95.145 183.470,95.161 201.400,95.397 201.400 C 95.710 201.400,132.087 189.578,132.223 189.432 C 132.346 189.300,125.903 106.236,125.759 106.092 C 125.717 106.050,119.072 104.478,110.991 102.598 C 102.911 100.718,96.112 99.133,95.883 99.077 L 95.466 98.973 95.333 133.937 M110.916 112.488 C 113.955 113.196,116.464 113.803,116.492 113.838 C 116.597 113.967,121.829 181.789,121.766 182.201 C 121.703 182.613,116.436 184.466,106.750 187.485 L 105.200 187.968 105.200 149.584 C 105.200 128.473,105.243 111.200,105.295 111.200 C 105.347 111.200,107.876 111.779,110.916 112.488 " stroke="none" fill="#fbfbfb" fill-rule="evenodd"></path><path id="path1" d="M31.607 37.650 C 31.623 43.589,34.754 264.219,34.823 264.269 C 34.865 264.300,70.675 257.345,114.400 248.813 L 193.900 233.300 193.955 232.800 C 194.037 232.057,174.233 50.750,174.054 50.597 C 173.924 50.487,32.574 35.176,31.850 35.194 C 31.664 35.198,31.602 35.823,31.607 37.650 M110.769 92.329 C 124.261 95.471,135.326 98.065,135.357 98.094 C 135.388 98.123,137.145 120.298,139.261 147.372 L 143.108 196.598 141.604 197.092 C 140.056 197.601,86.256 215.031,85.450 215.285 L 85.000 215.427 85.000 190.847 C 85.000 177.328,85.060 148.290,85.133 126.320 L 85.266 86.373 85.753 86.495 C 86.020 86.562,97.277 89.188,110.769 92.329 M298.337 140.150 C 297.719 143.169,273.173 260.227,273.081 260.600 C 272.999 260.929,268.453 242.003,259.821 205.400 L 246.686 149.700 239.693 149.746 C 235.847 149.771,224.263 149.849,213.952 149.920 L 195.203 150.049 195.310 150.774 C 195.561 152.472,204.200 232.275,204.200 232.890 C 204.200 234.653,203.197 237.810,202.204 239.175 C 199.959 242.260,199.475 242.431,185.100 245.221 C 180.480 246.118,176.638 246.908,176.563 246.976 C 176.404 247.120,172.523 369.590,172.673 369.740 C 172.728 369.795,185.644 369.773,201.374 369.692 L 229.974 369.543 229.880 368.622 C 229.632 366.218,219.193 211.424,219.243 210.900 C 219.276 210.550,228.213 241.830,240.671 285.900 C 252.426 327.480,262.059 361.518,262.078 361.540 C 262.159 361.632,280.282 362.385,280.366 362.300 C 280.417 362.249,289.804 330.908,301.227 292.654 C 321.674 224.174,322.455 221.591,322.282 223.000 C 322.093 224.544,311.755 362.820,311.825 362.871 C 311.941 362.955,369.475 362.391,369.561 362.305 C 369.669 362.197,360.121 141.193,360.000 141.013 C 359.924 140.899,302.694 139.564,299.175 139.594 C 298.547 139.599,298.435 139.673,298.337 140.150 " stroke="none" fill="#04fc04" fill-rule="evenodd"></path><path id="path2" d="M29.000 25.565 C 24.960 26.594,22.840 28.807,21.877 33.000 L 21.348 35.300 22.964 150.000 L 24.580 264.700 25.127 266.800 C 26.176 270.823,28.397 272.967,32.541 273.952 L 34.900 274.514 100.200 261.768 C 136.115 254.758,165.708 249.017,165.962 249.011 L 166.424 249.000 166.304 251.350 C 166.238 252.642,165.369 279.800,164.372 311.700 L 162.560 369.700 163.095 371.987 C 164.074 376.176,166.151 378.281,170.304 379.293 L 172.500 379.829 201.100 379.693 L 229.700 379.556 232.030 379.010 C 236.261 378.018,238.387 375.908,239.391 371.704 L 239.935 369.425 237.770 337.762 C 236.579 320.348,235.627 305.715,235.653 305.245 C 235.688 304.602,237.843 311.985,244.378 335.145 L 253.057 365.900 253.985 367.200 C 256.658 370.943,258.381 371.420,271.313 371.995 L 280.326 372.396 282.613 371.837 C 285.360 371.167,286.876 370.198,288.358 368.167 C 289.493 366.612,288.652 369.246,297.714 338.860 C 301.886 324.869,305.331 313.508,305.368 313.615 C 305.406 313.721,304.606 324.833,303.591 338.307 L 301.745 362.805 302.281 365.074 C 302.811 367.316,303.852 369.267,304.986 370.143 C 306.795 371.540,307.499 371.878,309.657 372.386 L 311.900 372.915 340.600 372.660 L 369.300 372.405 371.654 371.868 C 375.871 370.905,378.095 368.722,379.105 364.552 L 379.651 362.300 374.923 252.100 L 370.194 141.900 369.608 139.165 C 368.617 134.544,366.621 132.471,362.140 131.410 L 359.700 130.833 329.087 130.189 L 298.473 129.546 296.295 130.069 C 292.316 131.024,289.976 133.266,289.062 137.000 C 288.806 138.045,284.986 156.135,280.574 177.200 C 276.161 198.265,272.491 215.567,272.417 215.648 C 272.344 215.730,268.552 199.948,263.992 180.577 L 255.700 145.357 254.700 143.980 C 253.127 141.814,251.627 140.847,248.801 140.177 L 246.501 139.631 220.447 139.845 C 206.117 139.963,194.333 140.000,194.259 139.926 C 194.186 139.853,191.941 119.756,189.272 95.268 C 183.828 45.335,184.079 47.163,182.323 44.701 C 180.864 42.656,179.264 41.580,176.684 40.909 C 174.814 40.422,34.001 24.978,31.800 25.018 C 31.415 25.025,30.155 25.271,29.000 25.565 M103.000 42.827 C 141.995 47.029,173.969 50.525,174.054 50.597 C 174.233 50.750,194.037 232.057,193.955 232.800 L 193.900 233.300 114.400 248.813 C 70.675 257.345,34.865 264.300,34.823 264.269 C 34.754 264.219,31.623 43.589,31.607 37.650 C 31.602 35.823,31.664 35.198,31.850 35.194 C 31.988 35.190,64.005 38.625,103.000 42.827 M85.133 126.320 C 85.060 148.290,85.000 177.328,85.000 190.847 L 85.000 215.427 85.450 215.285 C 86.256 215.031,140.056 197.601,141.604 197.092 L 143.108 196.598 139.261 147.372 C 137.145 120.298,135.388 98.123,135.357 98.094 C 135.326 98.065,124.261 95.471,110.769 92.329 C 97.277 89.188,86.020 86.562,85.753 86.495 L 85.266 86.373 85.133 126.320 M110.991 102.598 C 119.072 104.478,125.717 106.050,125.759 106.092 C 125.903 106.236,132.346 189.300,132.223 189.432 C 132.087 189.578,95.710 201.400,95.397 201.400 C 95.161 201.400,95.145 183.470,95.333 133.937 L 95.466 98.973 95.883 99.077 C 96.112 99.133,102.911 100.718,110.991 102.598 M329.900 140.226 C 346.400 140.576,359.945 140.931,360.000 141.013 C 360.121 141.193,369.669 362.197,369.561 362.305 C 369.475 362.391,311.941 362.955,311.825 362.871 C 311.755 362.820,322.093 224.544,322.282 223.000 C 322.455 221.591,321.674 224.174,301.227 292.654 C 289.804 330.908,280.417 362.249,280.366 362.300 C 280.282 362.385,262.159 361.632,262.078 361.540 C 262.059 361.518,252.426 327.480,240.671 285.900 C 228.213 241.830,219.276 210.550,219.243 210.900 C 219.193 211.424,229.632 366.218,229.880 368.622 L 229.974 369.543 201.374 369.692 C 185.644 369.773,172.728 369.795,172.673 369.740 C 172.523 369.590,176.404 247.120,176.563 246.976 C 176.638 246.908,180.480 246.118,185.100 245.221 C 199.475 242.431,199.959 242.260,202.204 239.175 C 203.197 237.810,204.200 234.653,204.200 232.890 C 204.200 232.275,195.561 152.472,195.310 150.774 L 195.203 150.049 213.952 149.920 C 224.263 149.849,235.847 149.771,239.693 149.746 L 246.686 149.700 259.821 205.400 C 268.453 242.003,272.999 260.929,273.081 260.600 C 273.173 260.227,297.719 143.169,298.337 140.150 C 298.435 139.673,298.547 139.599,299.175 139.594 C 299.574 139.590,313.400 139.875,329.900 140.226 " stroke="none" fill="#3bec04" fill-rule="evenodd"></path></g></svg>