<svg id="svg" version="1.1" xmlns="http://www.w3.org/2000/svg" xmlns:xlink="http://www.w3.org/1999/xlink" width="400" height="400" viewBox="0, 0, 400,400"><g id="svgg"><path id="path0" d="M29.239 25.586 C 25.033 26.632,23.017 28.661,21.987 32.887 L 21.432 35.159 23.011 149.530 L 24.590 263.900 25.137 266.347 C 26.113 270.715,28.324 272.925,32.676 273.884 L 35.100 274.418 100.688 261.614 C 136.762 254.572,166.315 248.848,166.361 248.895 C 166.408 248.941,165.590 276.154,164.545 309.368 L 162.644 369.757 163.191 372.063 C 164.164 376.168,166.247 378.243,170.365 379.210 L 172.700 379.758 201.400 379.606 L 230.100 379.453 232.300 378.872 C 236.344 377.806,238.370 375.718,239.318 371.640 L 239.848 369.361 237.610 336.461 C 236.379 318.366,235.402 303.532,235.438 303.496 C 235.474 303.459,239.482 317.503,244.345 334.704 L 253.187 365.978 254.114 367.268 C 256.702 370.865,258.759 371.417,271.521 371.939 L 280.342 372.300 282.543 371.780 C 285.269 371.136,286.848 370.119,288.354 368.037 L 289.322 366.700 297.397 339.652 C 301.838 324.776,305.501 312.634,305.537 312.671 C 305.573 312.707,304.754 324.023,303.715 337.818 L 301.828 362.900 302.364 365.103 C 303.360 369.195,305.485 371.307,309.597 372.290 L 311.874 372.835 340.587 372.591 L 369.300 372.346 371.627 371.800 C 375.839 370.810,378.036 368.647,379.032 364.510 L 379.564 362.300 374.789 251.707 L 370.015 141.114 369.483 138.798 C 368.549 134.728,366.395 132.516,362.392 131.517 L 360.300 130.995 329.500 130.302 L 298.700 129.608 296.406 130.134 C 293.605 130.776,292.007 131.799,290.495 133.917 C 289.313 135.574,290.257 131.419,280.683 177.100 C 276.210 198.440,272.493 215.965,272.422 216.044 C 272.351 216.123,268.536 200.248,263.945 180.766 L 255.596 145.346 254.675 144.055 C 253.180 141.959,251.584 140.925,248.839 140.274 L 246.577 139.738 220.439 139.937 C 206.062 140.046,194.243 140.082,194.172 140.018 C 194.102 139.953,191.873 119.920,189.220 95.500 C 183.717 44.868,184.032 47.096,182.021 44.420 C 180.604 42.535,178.980 41.531,176.354 40.915 C 174.585 40.500,32.370 24.879,31.573 25.012 C 31.533 25.019,30.482 25.277,29.239 25.586 M103.496 42.811 C 142.323 46.998,174.134 50.468,174.187 50.520 C 174.288 50.621,194.230 233.242,194.148 233.312 C 194.048 233.397,34.749 264.416,34.701 264.359 C 34.673 264.327,33.967 214.260,33.131 153.100 C 32.296 91.940,31.566 40.340,31.510 38.433 L 31.409 34.966 32.154 35.082 C 32.564 35.145,64.668 38.623,103.496 42.811 M85.148 150.950 C 85.085 186.342,85.048 215.308,85.067 215.317 C 85.098 215.334,142.219 196.793,142.758 196.591 C 142.962 196.515,135.858 102.463,135.350 98.512 C 135.306 98.169,87.110 86.639,85.582 86.607 C 85.291 86.601,85.253 92.272,85.148 150.950 M110.885 102.484 C 119.107 104.400,125.856 105.997,125.882 106.034 C 125.980 106.168,132.419 189.447,132.339 189.528 C 132.211 189.655,95.168 201.639,95.132 201.565 C 95.084 201.468,95.312 99.108,95.359 99.050 C 95.473 98.911,97.036 99.256,110.885 102.484 M332.481 140.210 C 347.650 140.532,360.086 140.819,360.115 140.849 C 360.203 140.936,369.747 362.292,369.668 362.386 C 369.588 362.480,311.777 363.049,311.698 362.957 C 311.671 362.926,314.020 331.490,316.917 293.100 C 319.815 254.710,322.166 223.240,322.143 223.167 C 322.119 223.093,312.740 254.390,301.300 292.715 L 280.500 362.397 279.000 362.385 C 274.412 362.349,262.166 361.669,262.026 361.442 C 261.943 361.307,252.296 327.319,240.590 285.913 C 228.883 244.506,219.287 210.647,219.264 210.669 C 219.241 210.692,221.652 246.427,224.621 290.079 C 227.589 333.732,229.974 369.493,229.920 369.547 C 229.784 369.682,172.729 369.942,172.582 369.808 C 172.455 369.692,176.289 247.045,176.423 246.910 C 176.468 246.865,180.238 246.101,184.802 245.212 C 197.333 242.770,198.218 242.546,199.866 241.390 C 201.994 239.897,203.012 238.299,203.685 235.391 L 204.220 233.083 199.699 191.619 C 197.212 168.814,195.219 150.114,195.271 150.063 C 195.387 149.947,246.579 149.512,246.693 149.626 C 246.739 149.672,252.654 174.658,259.838 205.151 C 267.566 237.954,272.957 260.452,273.040 260.247 C 273.117 260.056,278.726 233.395,285.504 201.000 C 292.283 168.605,297.964 141.496,298.129 140.758 L 298.429 139.416 301.664 139.520 C 303.444 139.577,317.311 139.888,332.481 140.210 " stroke="none" fill="#34c404" fill-rule="evenodd"></path><path id="path1" d="M189.700 0.821 C 161.934 2.137,134.687 9.221,110.253 21.477 C 107.037 23.090,106.929 23.163,107.600 23.281 C 107.985 23.348,122.970 24.975,140.900 26.896 L 173.500 30.388 178.282 31.502 L 183.063 32.616 185.649 34.491 C 188.139 36.296,188.306 36.463,190.157 39.016 L 192.079 41.667 193.141 46.084 L 194.204 50.500 198.530 90.200 C 200.910 112.035,202.870 129.919,202.887 129.942 C 202.903 129.965,212.723 129.897,224.708 129.792 L 246.500 129.600 251.050 130.685 L 255.600 131.770 258.218 133.668 C 260.737 135.494,260.906 135.663,262.729 138.177 L 264.622 140.790 268.161 155.795 C 270.108 164.048,271.745 170.799,271.800 170.799 C 271.855 170.798,273.331 163.935,275.081 155.549 C 276.831 147.162,278.773 138.140,279.397 135.500 L 280.531 130.700 282.416 128.083 C 284.235 125.555,284.390 125.400,286.926 123.556 L 289.553 121.647 294.026 120.588 L 298.500 119.528 329.200 120.185 L 359.900 120.841 364.451 121.923 L 369.002 123.005 371.611 124.893 C 374.120 126.708,374.291 126.879,376.089 129.364 L 377.959 131.948 379.066 136.724 L 380.173 141.500 382.933 205.950 C 384.452 241.398,385.745 270.400,385.807 270.400 C 386.845 270.400,393.313 247.357,395.291 236.616 C 418.607 109.936,318.161 -5.266,189.700 0.821 M105.106 149.550 C 105.024 170.711,104.989 188.049,105.028 188.080 C 105.118 188.150,121.741 182.739,121.877 182.595 C 121.972 182.495,116.658 113.768,116.551 113.706 C 116.523 113.690,113.970 113.092,110.877 112.377 L 105.255 111.077 105.106 149.550 M11.413 132.642 C 5.750 148.454,2.361 163.834,0.559 181.900 C -0.071 188.214,-0.133 210.783,0.461 217.200 C 5.601 272.675,31.950 321.786,74.978 356.093 C 106.741 381.418,143.380 395.656,185.500 399.043 C 189.836 399.391,208.564 399.391,212.900 399.043 C 234.612 397.297,252.890 393.219,271.600 385.947 C 275.122 384.578,279.831 382.565,279.735 382.469 C 279.688 382.421,275.722 382.207,270.921 381.992 L 262.192 381.601 257.946 380.600 C 252.883 379.407,253.254 379.556,250.656 377.663 C 248.401 376.020,248.371 376.018,248.012 377.500 C 247.486 379.670,244.429 383.416,241.437 385.554 L 238.843 387.409 234.272 388.491 L 229.700 389.572 201.200 389.715 L 172.700 389.858 168.200 388.805 L 163.700 387.753 161.055 385.871 C 158.452 384.020,158.380 383.948,156.529 381.345 L 154.647 378.700 153.595 374.202 L 152.543 369.704 152.782 362.202 C 154.404 311.380,155.954 260.887,155.895 260.828 C 155.854 260.787,135.453 264.725,110.560 269.578 C 85.667 274.432,58.460 279.737,50.100 281.366 C 35.549 284.203,34.857 284.319,33.900 284.083 C 33.350 283.947,31.302 283.460,29.349 283.000 L 25.798 282.164 23.249 280.322 C 20.636 278.434,20.089 277.850,17.713 274.400 C 16.882 273.194,16.743 272.795,15.797 268.900 L 14.777 264.700 13.812 197.040 C 13.281 159.827,12.803 129.336,12.749 129.282 C 12.695 129.229,12.094 130.741,11.413 132.642 " stroke="none" fill="#d50407" fill-rule="evenodd"></path><path id="path2" d="M27.026 16.112 L 22.553 17.191 19.926 19.080 C 17.373 20.917,17.248 21.041,15.446 23.563 L 13.592 26.156 12.518 30.668 L 11.445 35.180 12.120 81.640 C 12.492 107.193,13.241 158.790,13.786 196.300 L 14.776 264.500 15.847 268.900 L 16.918 273.300 18.772 275.844 C 20.540 278.272,20.744 278.475,23.228 280.275 L 25.831 282.163 28.566 282.800 C 30.070 283.151,32.101 283.635,33.079 283.876 L 34.858 284.314 48.079 281.727 C 138.450 264.042,155.901 260.687,155.956 260.990 C 156.005 261.265,153.716 334.991,152.878 360.114 L 152.557 369.728 153.613 374.214 L 154.669 378.700 156.553 381.331 C 158.393 383.901,158.499 384.007,161.069 385.847 L 163.700 387.731 168.180 388.786 L 172.659 389.840 201.180 389.697 L 229.700 389.553 234.286 388.466 L 238.871 387.378 241.453 385.507 C 244.450 383.334,247.518 379.579,248.005 377.488 C 248.132 376.944,248.271 376.385,248.314 376.244 C 248.363 376.082,249.206 376.582,250.599 377.600 C 253.308 379.577,252.818 379.380,258.000 380.591 L 262.300 381.596 271.503 382.004 L 280.706 382.412 285.003 381.388 L 289.300 380.364 291.951 378.464 C 293.595 377.285,294.842 376.229,295.235 375.682 C 295.996 374.621,295.788 374.589,296.695 375.905 C 297.273 376.744,298.112 377.482,300.178 378.967 L 302.900 380.924 307.374 381.974 L 311.849 383.025 340.474 382.791 L 369.100 382.557 373.800 381.462 L 378.500 380.367 381.142 378.472 C 383.699 376.637,385.632 374.490,387.488 371.425 C 387.580 371.273,388.129 369.162,388.707 366.733 L 389.759 362.317 387.896 318.908 C 386.871 295.034,385.926 273.835,385.795 271.800 C 385.665 269.765,384.311 239.390,382.787 204.300 L 380.016 140.500 379.009 136.400 C 378.456 134.145,378.002 132.248,378.001 132.183 C 378.000 132.048,374.721 127.468,374.258 126.955 C 373.992 126.659,369.741 123.532,369.065 123.133 C 368.936 123.057,366.776 122.511,364.265 121.919 L 359.700 120.843 348.400 120.619 C 342.185 120.495,328.439 120.208,317.853 119.980 L 298.605 119.564 294.153 120.605 L 289.700 121.646 287.048 123.542 C 284.471 125.385,282.577 127.489,280.720 130.574 C 280.364 131.164,278.217 140.757,275.085 155.750 C 273.333 164.137,271.853 171.000,271.795 171.000 C 271.738 171.000,270.446 165.713,268.924 159.250 C 267.403 152.787,265.800 145.998,265.363 144.162 L 264.569 140.823 262.869 138.462 C 261.934 137.163,261.029 135.945,260.858 135.755 C 260.590 135.458,256.343 132.333,255.656 131.928 C 255.523 131.849,253.404 131.307,250.949 130.722 L 246.485 129.661 224.723 129.845 C 212.755 129.946,202.929 129.996,202.889 129.956 C 202.848 129.915,200.874 112.074,198.500 90.309 C 193.858 47.738,194.074 49.377,192.191 42.369 C 191.669 40.426,188.417 36.523,185.655 34.525 L 183.064 32.650 178.782 31.616 L 174.500 30.582 140.700 26.889 C 85.122 20.818,31.707 15.007,31.600 15.020 C 31.545 15.027,29.487 15.518,27.026 16.112 M103.200 32.600 C 181.355 41.018,177.347 40.514,179.913 42.247 C 182.020 43.671,183.227 45.485,183.891 48.227 C 184.275 49.818,185.530 60.711,189.286 95.073 C 191.978 119.699,194.220 139.887,194.270 139.936 C 194.319 139.986,206.069 139.923,220.380 139.798 L 246.402 139.570 248.709 140.106 C 251.633 140.786,253.317 141.885,254.828 144.100 L 255.783 145.500 264.034 180.548 C 268.571 199.824,272.343 215.529,272.416 215.448 C 272.488 215.367,276.030 198.650,280.287 178.300 C 289.929 132.205,289.172 135.521,290.445 133.777 C 292.654 130.748,295.489 129.601,300.763 129.599 C 302.268 129.599,316.145 129.868,331.600 130.198 L 359.700 130.798 362.064 131.336 C 366.406 132.324,368.586 134.474,369.604 138.773 L 370.155 141.100 374.924 251.733 L 379.694 362.366 379.144 364.601 C 378.132 368.717,375.939 370.902,371.830 371.884 L 369.580 372.422 340.740 372.698 L 311.900 372.974 309.573 372.420 C 305.495 371.449,303.247 369.270,302.304 365.376 C 301.646 362.663,301.546 364.803,303.598 337.584 C 304.587 324.464,305.373 313.706,305.344 313.678 C 305.316 313.649,301.724 325.580,297.361 340.191 L 289.430 366.756 288.465 368.098 C 286.924 370.241,285.388 371.230,282.567 371.897 L 280.263 372.441 271.082 372.022 C 258.352 371.440,256.725 370.997,254.038 367.380 C 252.971 365.945,254.314 370.450,242.584 328.947 C 238.799 315.553,235.677 304.668,235.648 304.757 C 235.618 304.847,236.579 319.451,237.785 337.210 L 239.976 369.500 239.436 371.749 C 238.440 375.902,236.201 378.114,232.036 379.065 L 229.700 379.599 201.000 379.721 L 172.300 379.843 170.205 379.323 C 166.126 378.312,164.033 376.175,163.052 372.022 L 162.521 369.773 164.425 309.437 C 165.472 276.251,166.304 249.067,166.273 249.026 C 166.243 248.985,136.668 254.714,100.552 261.756 L 34.886 274.562 32.565 274.007 C 28.120 272.946,26.052 270.826,25.009 266.262 L 24.423 263.700 22.869 149.471 L 21.314 35.242 21.849 32.918 C 22.829 28.662,24.895 26.586,29.252 25.477 C 30.599 25.134,31.925 24.888,32.200 24.930 C 32.475 24.972,64.425 28.424,103.200 32.600 M95.327 150.124 C 95.251 178.246,95.227 201.293,95.273 201.340 C 95.320 201.387,103.646 198.742,113.776 195.463 L 132.193 189.500 132.197 188.856 C 132.200 188.144,125.802 106.129,125.739 106.083 C 125.718 106.067,119.040 104.509,110.900 102.620 C 102.760 100.732,95.957 99.143,95.783 99.090 C 95.494 99.003,95.453 103.585,95.327 150.124 M111.147 112.401 L 116.594 113.666 116.690 114.283 C 116.850 115.311,122.046 182.622,121.970 182.686 C 121.932 182.719,118.229 183.932,113.743 185.382 C 109.257 186.832,105.454 188.068,105.293 188.130 C 105.037 188.229,105.000 184.964,105.000 161.954 C 105.000 129.647,105.177 110.951,105.483 111.059 C 105.602 111.102,108.151 111.705,111.147 112.401 " stroke="none" fill="#fbfbfa" fill-rule="evenodd"></path><path id="path3" d="M31.604 36.350 C 31.626 43.613,34.800 264.066,34.882 264.149 C 35.024 264.291,193.634 233.396,193.880 233.179 C 194.052 233.027,174.298 50.831,174.086 50.620 C 173.997 50.531,32.786 35.216,31.950 35.205 C 31.656 35.201,31.601 35.385,31.604 36.350 M110.337 92.209 C 124.058 95.403,135.318 98.052,135.361 98.094 C 135.459 98.192,143.157 196.474,143.075 196.576 C 143.012 196.655,85.278 215.400,85.099 215.400 C 84.956 215.400,84.978 153.120,85.133 117.150 C 85.206 100.238,85.294 86.400,85.328 86.400 C 85.362 86.400,96.616 89.014,110.337 92.209 M298.149 141.119 C 296.611 148.703,273.158 260.383,273.046 260.654 C 272.956 260.872,267.893 239.764,259.781 205.354 L 246.663 149.700 242.781 149.742 C 240.647 149.765,229.113 149.843,217.150 149.916 L 195.400 150.049 195.409 150.774 C 195.413 151.173,197.423 169.860,199.875 192.300 L 204.332 233.100 203.769 235.461 C 203.081 238.338,202.118 239.866,200.019 241.406 C 198.368 242.617,197.665 242.799,185.500 245.174 L 176.500 246.931 176.448 247.716 C 176.318 249.649,172.602 369.669,172.670 369.736 C 172.711 369.778,185.583 369.749,201.273 369.673 L 229.800 369.534 229.800 368.676 C 229.800 367.948,219.391 213.954,219.129 210.800 C 218.979 209.001,218.571 207.578,240.727 286.000 C 252.459 327.525,262.067 361.514,262.079 361.531 C 262.123 361.594,280.303 362.361,280.363 362.302 C 280.398 362.268,289.829 330.757,301.322 292.278 C 312.814 253.799,322.264 222.269,322.322 222.212 C 322.379 222.154,322.373 222.556,322.309 223.104 C 322.019 225.557,311.796 362.663,311.895 362.762 C 312.004 362.871,369.446 362.420,369.558 362.308 C 369.634 362.233,360.221 143.206,360.086 141.894 L 359.982 140.887 333.641 140.333 C 319.153 140.028,305.313 139.725,302.885 139.659 L 298.469 139.538 298.149 141.119 " stroke="none" fill="#04fb04" fill-rule="evenodd"></path><path id="path4" d="M21.466 43.100 C 21.467 43.870,21.503 44.160,21.546 43.746 C 21.589 43.331,21.589 42.701,21.544 42.346 C 21.500 41.990,21.465 42.330,21.466 43.100 M21.666 57.500 C 21.667 58.270,21.703 58.560,21.746 58.146 C 21.789 57.731,21.789 57.101,21.744 56.746 C 21.700 56.390,21.665 56.730,21.666 57.500 M21.867 71.800 C 21.867 72.625,21.903 72.963,21.946 72.550 C 21.989 72.138,21.989 71.463,21.946 71.050 C 21.903 70.638,21.867 70.975,21.867 71.800 M22.067 86.200 C 22.067 87.025,22.103 87.363,22.146 86.950 C 22.189 86.538,22.189 85.863,22.146 85.450 C 22.103 85.038,22.067 85.375,22.067 86.200 M22.266 100.500 C 22.267 101.270,22.303 101.560,22.346 101.146 C 22.389 100.731,22.389 100.101,22.344 99.746 C 22.300 99.390,22.265 99.730,22.266 100.500 M22.466 114.900 C 22.467 115.670,22.503 115.960,22.546 115.546 C 22.589 115.131,22.589 114.501,22.544 114.146 C 22.500 113.790,22.465 114.130,22.466 114.900 M95.292 124.400 C 95.292 129.405,95.318 131.453,95.350 128.950 C 95.382 126.448,95.382 122.353,95.350 119.850 C 95.318 117.348,95.292 119.395,95.292 124.400 M22.666 129.300 C 22.667 130.070,22.703 130.360,22.746 129.946 C 22.789 129.531,22.789 128.901,22.744 128.546 C 22.700 128.190,22.665 128.530,22.666 129.300 M303.653 129.744 C 303.957 129.789,304.407 129.788,304.653 129.741 C 304.899 129.693,304.650 129.656,304.100 129.657 C 303.550 129.659,303.349 129.698,303.653 129.744 M312.950 129.941 C 313.197 129.989,313.603 129.989,313.850 129.941 C 314.098 129.893,313.895 129.854,313.400 129.854 C 312.905 129.854,312.703 129.893,312.950 129.941 M322.253 130.144 C 322.557 130.189,323.007 130.188,323.253 130.141 C 323.499 130.093,323.250 130.056,322.700 130.057 C 322.150 130.059,321.949 130.098,322.253 130.144 M331.550 130.341 C 331.798 130.389,332.203 130.389,332.450 130.341 C 332.697 130.293,332.495 130.254,332.000 130.254 C 331.505 130.254,331.303 130.293,331.550 130.341 M340.750 130.541 C 340.998 130.589,341.403 130.589,341.650 130.541 C 341.898 130.493,341.695 130.454,341.200 130.454 C 340.705 130.454,340.503 130.493,340.750 130.541 M350.053 130.744 C 350.357 130.789,350.807 130.788,351.053 130.741 C 351.299 130.693,351.050 130.656,350.500 130.657 C 349.950 130.659,349.749 130.698,350.053 130.744 M241.958 139.748 C 242.650 139.787,243.730 139.787,244.358 139.748 C 244.986 139.708,244.420 139.676,243.100 139.676 C 241.780 139.677,241.266 139.709,241.958 139.748 M216.550 139.948 C 217.238 139.987,218.363 139.987,219.050 139.948 C 219.738 139.909,219.175 139.877,217.800 139.877 C 216.425 139.877,215.863 139.909,216.550 139.948 M22.866 143.700 C 22.867 144.470,22.903 144.760,22.946 144.346 C 22.989 143.931,22.989 143.301,22.944 142.946 C 22.900 142.590,22.865 142.930,22.866 143.700 M23.066 158.100 C 23.067 158.870,23.103 159.160,23.146 158.746 C 23.189 158.331,23.189 157.701,23.144 157.346 C 23.100 156.990,23.065 157.330,23.066 158.100 M23.266 172.500 C 23.267 173.270,23.303 173.560,23.346 173.146 C 23.389 172.731,23.389 172.101,23.344 171.746 C 23.300 171.390,23.265 171.730,23.266 172.500 M23.466 186.900 C 23.467 187.670,23.503 187.960,23.546 187.546 C 23.589 187.131,23.589 186.501,23.544 186.146 C 23.500 185.790,23.465 186.130,23.466 186.900 M23.666 201.300 C 23.667 202.070,23.703 202.360,23.746 201.946 C 23.789 201.531,23.789 200.901,23.744 200.546 C 23.700 200.190,23.665 200.530,23.666 201.300 M23.866 215.700 C 23.867 216.470,23.903 216.760,23.946 216.346 C 23.989 215.931,23.989 215.301,23.944 214.946 C 23.900 214.590,23.865 214.930,23.866 215.700 M24.067 230.000 C 24.067 230.825,24.103 231.163,24.146 230.750 C 24.189 230.338,24.189 229.663,24.146 229.250 C 24.103 228.838,24.067 229.175,24.067 230.000 M24.267 244.400 C 24.267 245.225,24.303 245.563,24.346 245.150 C 24.389 244.738,24.389 244.063,24.346 243.650 C 24.303 243.238,24.267 243.575,24.267 244.400 M166.246 252.200 C 166.246 252.585,166.288 252.743,166.338 252.550 C 166.388 252.357,166.388 252.043,166.338 251.850 C 166.288 251.657,166.246 251.815,166.246 252.200 M24.466 258.700 C 24.467 259.470,24.503 259.760,24.546 259.346 C 24.589 258.931,24.589 258.301,24.544 257.946 C 24.500 257.590,24.465 257.930,24.466 258.700 M165.846 264.800 C 165.846 265.185,165.888 265.343,165.938 265.150 C 165.988 264.957,165.988 264.643,165.938 264.450 C 165.888 264.257,165.846 264.415,165.846 264.800 M165.646 271.200 C 165.646 271.585,165.688 271.743,165.738 271.550 C 165.788 271.358,165.788 271.043,165.738 270.850 C 165.688 270.657,165.646 270.815,165.646 271.200 M165.446 277.600 C 165.446 277.985,165.488 278.143,165.538 277.950 C 165.588 277.757,165.588 277.443,165.538 277.250 C 165.488 277.058,165.446 277.215,165.446 277.600 M165.246 284.000 C 165.246 284.385,165.288 284.543,165.338 284.350 C 165.388 284.157,165.388 283.843,165.338 283.650 C 165.288 283.457,165.246 283.615,165.246 284.000 M164.846 296.600 C 164.846 296.985,164.888 297.143,164.938 296.950 C 164.988 296.757,164.988 296.443,164.938 296.250 C 164.888 296.058,164.846 296.215,164.846 296.600 M164.646 303.000 C 164.646 303.385,164.688 303.543,164.738 303.350 C 164.788 303.157,164.788 302.843,164.738 302.650 C 164.688 302.457,164.646 302.615,164.646 303.000 M164.446 309.400 C 164.446 309.785,164.488 309.943,164.538 309.750 C 164.588 309.558,164.588 309.243,164.538 309.050 C 164.488 308.858,164.446 309.015,164.446 309.400 M164.246 315.800 C 164.246 316.185,164.288 316.343,164.338 316.150 C 164.388 315.957,164.388 315.643,164.338 315.450 C 164.288 315.257,164.246 315.415,164.246 315.800 M163.846 328.400 C 163.846 328.785,163.888 328.943,163.938 328.750 C 163.988 328.558,163.988 328.243,163.938 328.050 C 163.888 327.858,163.846 328.015,163.846 328.400 M163.646 334.800 C 163.646 335.185,163.688 335.343,163.738 335.150 C 163.788 334.957,163.788 334.643,163.738 334.450 C 163.688 334.257,163.646 334.415,163.646 334.800 M163.446 341.200 C 163.446 341.585,163.488 341.743,163.538 341.550 C 163.588 341.358,163.588 341.043,163.538 340.850 C 163.488 340.658,163.446 340.815,163.446 341.200 M163.246 347.600 C 163.246 347.985,163.288 348.143,163.338 347.950 C 163.388 347.757,163.388 347.443,163.338 347.250 C 163.288 347.058,163.246 347.215,163.246 347.600 M162.846 360.200 C 162.846 360.585,162.888 360.743,162.938 360.550 C 162.988 360.358,162.988 360.043,162.938 359.850 C 162.888 359.658,162.846 359.815,162.846 360.200 M162.646 366.600 C 162.646 366.985,162.688 367.143,162.738 366.950 C 162.788 366.757,162.788 366.443,162.738 366.250 C 162.688 366.058,162.646 366.215,162.646 366.600 M352.550 372.547 C 353.128 372.588,354.072 372.588,354.650 372.547 C 355.228 372.507,354.755 372.474,353.600 372.474 C 352.445 372.474,351.973 372.507,352.550 372.547 M330.750 372.747 C 331.328 372.788,332.273 372.788,332.850 372.747 C 333.428 372.707,332.955 372.674,331.800 372.674 C 330.645 372.674,330.173 372.707,330.750 372.747 M190.150 379.749 C 191.278 379.785,193.123 379.785,194.250 379.749 C 195.378 379.714,194.455 379.684,192.200 379.684 C 189.945 379.684,189.023 379.714,190.150 379.749 " stroke="none" fill="#71d44e" fill-rule="evenodd"></path><path id="path5" d="M21.476 46.700 C 21.477 48.020,21.509 48.534,21.548 47.842 C 21.587 47.150,21.587 46.070,21.548 45.442 C 21.508 44.814,21.476 45.380,21.476 46.700 M21.676 61.100 C 21.677 62.420,21.709 62.934,21.748 62.242 C 21.787 61.550,21.787 60.470,21.748 59.842 C 21.708 59.214,21.676 59.780,21.676 61.100 M21.876 75.400 C 21.876 76.665,21.908 77.183,21.948 76.550 C 21.987 75.918,21.987 74.883,21.948 74.250 C 21.908 73.617,21.876 74.135,21.876 75.400 M22.076 89.800 C 22.076 91.065,22.108 91.583,22.148 90.950 C 22.187 90.317,22.187 89.283,22.148 88.650 C 22.108 88.017,22.076 88.535,22.076 89.800 M22.276 104.100 C 22.277 105.420,22.309 105.934,22.348 105.242 C 22.387 104.550,22.387 103.470,22.348 102.842 C 22.308 102.214,22.276 102.780,22.276 104.100 M22.476 118.500 C 22.477 119.820,22.509 120.334,22.548 119.642 C 22.587 118.950,22.587 117.870,22.548 117.242 C 22.508 116.614,22.476 117.180,22.476 118.500 M304.950 119.745 C 305.308 119.789,305.893 119.789,306.250 119.745 C 306.608 119.700,306.315 119.664,305.600 119.664 C 304.885 119.664,304.593 119.700,304.950 119.745 M314.354 119.945 C 314.713 119.989,315.253 119.989,315.554 119.943 C 315.854 119.897,315.560 119.861,314.900 119.862 C 314.240 119.863,313.994 119.900,314.354 119.945 M323.550 120.145 C 323.908 120.189,324.493 120.189,324.850 120.145 C 325.207 120.100,324.915 120.064,324.200 120.064 C 323.485 120.064,323.193 120.100,323.550 120.145 M332.750 120.345 C 333.108 120.389,333.693 120.389,334.050 120.345 C 334.408 120.300,334.115 120.264,333.400 120.264 C 332.685 120.264,332.393 120.300,332.750 120.345 M342.850 120.538 C 343.043 120.588,343.358 120.588,343.550 120.538 C 343.743 120.488,343.585 120.446,343.200 120.446 C 342.815 120.446,342.658 120.488,342.850 120.538 M105.094 139.600 C 105.094 146.365,105.119 149.133,105.150 145.750 C 105.181 142.367,105.181 136.832,105.150 133.450 C 105.119 130.067,105.094 132.835,105.094 139.600 M237.559 129.749 C 238.472 129.786,239.912 129.786,240.759 129.748 C 241.607 129.711,240.860 129.681,239.100 129.681 C 237.340 129.681,236.647 129.712,237.559 129.749 M305.755 129.747 C 306.226 129.789,306.946 129.788,307.355 129.745 C 307.765 129.702,307.380 129.668,306.500 129.669 C 305.620 129.669,305.285 129.704,305.755 129.747 M212.150 129.949 C 213.058 129.986,214.543 129.986,215.450 129.949 C 216.357 129.912,215.615 129.881,213.800 129.881 C 211.985 129.881,211.243 129.912,212.150 129.949 M314.955 129.947 C 315.426 129.989,316.146 129.988,316.555 129.945 C 316.965 129.902,316.580 129.868,315.700 129.869 C 314.820 129.869,314.485 129.904,314.955 129.947 M324.250 130.146 C 324.663 130.189,325.338 130.189,325.750 130.146 C 326.163 130.103,325.825 130.067,325.000 130.067 C 324.175 130.067,323.838 130.103,324.250 130.146 M333.555 130.347 C 334.026 130.389,334.746 130.388,335.155 130.345 C 335.565 130.302,335.180 130.268,334.300 130.269 C 333.420 130.269,333.085 130.304,333.555 130.347 M342.755 130.547 C 343.226 130.589,343.946 130.588,344.355 130.545 C 344.765 130.502,344.380 130.468,343.500 130.469 C 342.620 130.469,342.285 130.504,342.755 130.547 M22.676 132.900 C 22.677 134.220,22.709 134.734,22.748 134.042 C 22.787 133.350,22.787 132.270,22.748 131.642 C 22.708 131.014,22.676 131.580,22.676 132.900 M352.155 130.747 C 352.626 130.789,353.346 130.788,353.755 130.745 C 354.165 130.702,353.780 130.668,352.900 130.669 C 352.020 130.669,351.685 130.704,352.155 130.747 M12.857 132.300 C 12.859 132.850,12.898 133.051,12.944 132.747 C 12.989 132.443,12.988 131.993,12.941 131.747 C 12.893 131.501,12.856 131.750,12.857 132.300 M95.295 148.700 C 95.295 157.170,95.320 160.606,95.350 156.335 C 95.380 152.065,95.380 145.135,95.350 140.935 C 95.320 136.736,95.295 140.230,95.295 148.700 M234.750 139.749 C 235.878 139.785,237.722 139.785,238.850 139.749 C 239.978 139.714,239.055 139.684,236.800 139.684 C 234.545 139.684,233.623 139.714,234.750 139.749 M209.350 139.949 C 210.478 139.985,212.322 139.985,213.450 139.949 C 214.578 139.914,213.655 139.884,211.400 139.884 C 209.145 139.884,208.222 139.914,209.350 139.949 M370.250 145.500 C 370.253 145.940,370.294 146.096,370.341 145.848 C 370.389 145.599,370.387 145.239,370.337 145.048 C 370.287 144.856,370.248 145.060,370.250 145.500 M22.876 147.300 C 22.877 148.620,22.909 149.134,22.948 148.442 C 22.987 147.750,22.987 146.670,22.948 146.042 C 22.908 145.414,22.876 145.980,22.876 147.300 M13.057 146.700 C 13.059 147.250,13.098 147.451,13.144 147.147 C 13.189 146.843,13.188 146.393,13.141 146.147 C 13.093 145.901,13.056 146.150,13.057 146.700 M370.450 150.100 C 370.453 150.540,370.494 150.696,370.541 150.448 C 370.589 150.199,370.587 149.839,370.537 149.648 C 370.487 149.456,370.448 149.660,370.450 150.100 M370.654 154.800 C 370.654 155.295,370.693 155.498,370.741 155.250 C 370.789 155.003,370.789 154.597,370.741 154.350 C 370.693 154.103,370.654 154.305,370.654 154.800 M370.854 159.400 C 370.854 159.895,370.893 160.097,370.941 159.850 C 370.989 159.603,370.989 159.197,370.941 158.950 C 370.893 158.703,370.854 158.905,370.854 159.400 M23.076 161.700 C 23.077 163.020,23.109 163.534,23.148 162.842 C 23.187 162.150,23.187 161.070,23.148 160.442 C 23.108 159.814,23.076 160.380,23.076 161.700 M13.257 161.100 C 13.259 161.650,13.298 161.851,13.344 161.547 C 13.389 161.243,13.388 160.793,13.341 160.547 C 13.293 160.301,13.256 160.550,13.257 161.100 M371.054 164.000 C 371.054 164.495,371.093 164.697,371.141 164.450 C 371.189 164.203,371.189 163.798,371.141 163.550 C 371.093 163.303,371.054 163.505,371.054 164.000 M371.254 168.600 C 371.254 169.095,371.293 169.298,371.341 169.050 C 371.389 168.803,371.389 168.398,371.341 168.150 C 371.293 167.903,371.254 168.105,371.254 168.600 M371.450 173.300 C 371.453 173.740,371.494 173.896,371.541 173.648 C 371.589 173.399,371.587 173.039,371.537 172.848 C 371.487 172.656,371.448 172.860,371.450 173.300 M23.276 176.100 C 23.277 177.420,23.309 177.934,23.348 177.242 C 23.387 176.550,23.387 175.470,23.348 174.842 C 23.308 174.214,23.276 174.780,23.276 176.100 M13.457 175.500 C 13.459 176.050,13.498 176.251,13.544 175.947 C 13.589 175.643,13.588 175.193,13.541 174.947 C 13.493 174.701,13.456 174.950,13.457 175.500 M371.650 177.900 C 371.653 178.340,371.694 178.496,371.741 178.248 C 371.789 177.999,371.787 177.639,371.737 177.448 C 371.687 177.256,371.648 177.460,371.650 177.900 M371.854 182.600 C 371.854 183.095,371.893 183.298,371.941 183.050 C 371.989 182.803,371.989 182.398,371.941 182.150 C 371.893 181.903,371.854 182.105,371.854 182.600 M372.054 187.200 C 372.054 187.695,372.093 187.898,372.141 187.650 C 372.189 187.403,372.189 186.998,372.141 186.750 C 372.093 186.503,372.054 186.705,372.054 187.200 M23.476 190.500 C 23.477 191.820,23.509 192.334,23.548 191.642 C 23.587 190.950,23.587 189.870,23.548 189.242 C 23.508 188.614,23.476 189.180,23.476 190.500 M13.657 189.900 C 13.659 190.450,13.698 190.651,13.744 190.347 C 13.789 190.043,13.788 189.593,13.741 189.347 C 13.693 189.101,13.656 189.350,13.657 189.900 M372.254 191.800 C 372.254 192.295,372.293 192.498,372.341 192.250 C 372.389 192.003,372.389 191.597,372.341 191.350 C 372.293 191.103,372.254 191.305,372.254 191.800 M372.454 196.400 C 372.454 196.895,372.493 197.097,372.541 196.850 C 372.589 196.603,372.589 196.197,372.541 195.950 C 372.493 195.703,372.454 195.905,372.454 196.400 M372.650 201.100 C 372.653 201.540,372.694 201.696,372.741 201.448 C 372.789 201.199,372.787 200.839,372.737 200.648 C 372.687 200.456,372.648 200.660,372.650 201.100 M23.676 204.900 C 23.677 206.220,23.709 206.734,23.748 206.042 C 23.787 205.350,23.787 204.270,23.748 203.642 C 23.708 203.014,23.676 203.580,23.676 204.900 M13.857 204.300 C 13.859 204.850,13.898 205.051,13.944 204.747 C 13.989 204.443,13.988 203.993,13.941 203.747 C 13.893 203.501,13.856 203.750,13.857 204.300 M372.850 205.700 C 372.853 206.140,372.894 206.296,372.941 206.048 C 372.989 205.799,372.987 205.439,372.937 205.248 C 372.887 205.056,372.848 205.260,372.850 205.700 M373.054 210.400 C 373.054 210.895,373.093 211.097,373.141 210.850 C 373.189 210.603,373.189 210.197,373.141 209.950 C 373.093 209.703,373.054 209.905,373.054 210.400 M373.254 215.000 C 373.254 215.495,373.293 215.697,373.341 215.450 C 373.389 215.203,373.389 214.798,373.341 214.550 C 373.293 214.303,373.254 214.505,373.254 215.000 M23.876 219.300 C 23.877 220.620,23.909 221.134,23.948 220.442 C 23.987 219.750,23.987 218.670,23.948 218.042 C 23.908 217.414,23.876 217.980,23.876 219.300 M14.057 218.700 C 14.059 219.250,14.098 219.451,14.144 219.147 C 14.189 218.843,14.188 218.393,14.141 218.147 C 14.093 217.901,14.056 218.150,14.057 218.700 M373.454 219.600 C 373.454 220.095,373.493 220.298,373.541 220.050 C 373.589 219.803,373.589 219.398,373.541 219.150 C 373.493 218.903,373.454 219.105,373.454 219.600 M373.654 224.200 C 373.654 224.695,373.693 224.898,373.741 224.650 C 373.789 224.403,373.789 223.998,373.741 223.750 C 373.693 223.503,373.654 223.705,373.654 224.200 M373.850 228.900 C 373.853 229.340,373.894 229.496,373.941 229.248 C 373.989 228.999,373.987 228.639,373.937 228.448 C 373.887 228.256,373.848 228.460,373.850 228.900 M24.076 233.600 C 24.076 234.865,24.108 235.382,24.148 234.750 C 24.187 234.118,24.187 233.082,24.148 232.450 C 24.108 231.818,24.076 232.335,24.076 233.600 M14.257 233.100 C 14.259 233.650,14.298 233.851,14.344 233.547 C 14.389 233.243,14.388 232.793,14.341 232.547 C 14.293 232.301,14.256 232.550,14.257 233.100 M374.050 233.500 C 374.053 233.940,374.094 234.096,374.141 233.848 C 374.189 233.599,374.187 233.239,374.137 233.048 C 374.087 232.856,374.048 233.060,374.050 233.500 M374.254 238.200 C 374.254 238.695,374.293 238.898,374.341 238.650 C 374.389 238.403,374.389 237.998,374.341 237.750 C 374.293 237.503,374.254 237.705,374.254 238.200 M374.454 242.800 C 374.454 243.295,374.493 243.498,374.541 243.250 C 374.589 243.003,374.589 242.597,374.541 242.350 C 374.493 242.103,374.454 242.305,374.454 242.800 M24.276 248.000 C 24.276 249.265,24.308 249.782,24.348 249.150 C 24.387 248.518,24.387 247.482,24.348 246.850 C 24.308 246.218,24.276 246.735,24.276 248.000 M14.457 247.500 C 14.459 248.050,14.498 248.251,14.544 247.947 C 14.589 247.643,14.588 247.193,14.541 246.947 C 14.493 246.701,14.456 246.950,14.457 247.500 M374.654 247.400 C 374.654 247.895,374.693 248.097,374.741 247.850 C 374.789 247.603,374.789 247.197,374.741 246.950 C 374.693 246.703,374.654 246.905,374.654 247.400 M166.260 250.600 C 166.260 251.205,166.297 251.453,166.343 251.150 C 166.389 250.847,166.389 250.353,166.343 250.050 C 166.297 249.748,166.260 249.995,166.260 250.600 M374.854 252.000 C 374.854 252.495,374.893 252.697,374.941 252.450 C 374.989 252.203,374.989 251.798,374.941 251.550 C 374.893 251.303,374.854 251.505,374.854 252.000 M166.062 256.900 C 166.063 257.560,166.100 257.806,166.145 257.446 C 166.189 257.087,166.189 256.547,166.143 256.246 C 166.097 255.946,166.061 256.240,166.062 256.900 M375.050 256.700 C 375.053 257.140,375.094 257.296,375.141 257.048 C 375.189 256.799,375.187 256.439,375.137 256.248 C 375.087 256.056,375.048 256.260,375.050 256.700 M24.475 262.100 C 24.475 263.310,24.508 263.779,24.548 263.143 C 24.588 262.506,24.587 261.516,24.547 260.943 C 24.507 260.369,24.474 260.890,24.475 262.100 M375.250 261.300 C 375.253 261.740,375.294 261.896,375.341 261.648 C 375.389 261.399,375.387 261.039,375.337 260.848 C 375.287 260.656,375.248 260.860,375.250 261.300 M14.657 261.900 C 14.659 262.450,14.698 262.651,14.744 262.347 C 14.789 262.043,14.788 261.593,14.741 261.347 C 14.693 261.101,14.656 261.350,14.657 261.900 M165.860 263.200 C 165.860 263.805,165.897 264.053,165.943 263.750 C 165.989 263.447,165.989 262.953,165.943 262.650 C 165.897 262.348,165.860 262.595,165.860 263.200 M155.854 263.800 C 155.854 264.295,155.893 264.498,155.941 264.250 C 155.989 264.002,155.989 263.598,155.941 263.350 C 155.893 263.103,155.854 263.305,155.854 263.800 M375.450 265.900 C 375.453 266.340,375.494 266.496,375.541 266.248 C 375.589 265.999,375.587 265.639,375.537 265.448 C 375.487 265.256,375.448 265.460,375.450 265.900 M165.660 269.600 C 165.660 270.205,165.697 270.453,165.743 270.150 C 165.789 269.848,165.789 269.353,165.743 269.050 C 165.697 268.748,165.660 268.995,165.660 269.600 M155.654 270.200 C 155.654 270.695,155.693 270.897,155.741 270.650 C 155.789 270.403,155.789 269.998,155.741 269.750 C 155.693 269.502,155.654 269.705,155.654 270.200 M375.654 270.600 C 375.654 271.095,375.693 271.298,375.741 271.050 C 375.789 270.803,375.789 270.397,375.741 270.150 C 375.693 269.903,375.654 270.105,375.654 270.600 M375.854 275.200 C 375.854 275.695,375.893 275.897,375.941 275.650 C 375.989 275.403,375.989 274.998,375.941 274.750 C 375.893 274.502,375.854 274.705,375.854 275.200 M165.460 276.000 C 165.460 276.605,165.497 276.853,165.543 276.550 C 165.589 276.248,165.589 275.752,165.543 275.450 C 165.497 275.147,165.460 275.395,165.460 276.000 M155.454 276.600 C 155.454 277.095,155.493 277.298,155.541 277.050 C 155.589 276.803,155.589 276.397,155.541 276.150 C 155.493 275.903,155.454 276.105,155.454 276.600 M376.054 279.800 C 376.054 280.295,376.093 280.498,376.141 280.250 C 376.189 280.002,376.189 279.598,376.141 279.350 C 376.093 279.103,376.054 279.305,376.054 279.800 M165.260 282.400 C 165.260 283.005,165.297 283.252,165.343 282.950 C 165.389 282.647,165.389 282.153,165.343 281.850 C 165.297 281.548,165.260 281.795,165.260 282.400 M155.257 282.900 C 155.259 283.450,155.298 283.651,155.344 283.347 C 155.389 283.043,155.388 282.593,155.341 282.347 C 155.293 282.101,155.256 282.350,155.257 282.900 M376.250 284.500 C 376.253 284.940,376.294 285.096,376.341 284.848 C 376.389 284.599,376.387 284.239,376.337 284.048 C 376.287 283.856,376.248 284.060,376.250 284.500 M165.062 288.700 C 165.063 289.360,165.100 289.606,165.145 289.246 C 165.189 288.887,165.189 288.347,165.143 288.046 C 165.097 287.746,165.061 288.040,165.062 288.700 M155.054 289.200 C 155.054 289.695,155.093 289.897,155.141 289.650 C 155.189 289.403,155.189 288.998,155.141 288.750 C 155.093 288.502,155.054 288.705,155.054 289.200 M376.450 289.100 C 376.453 289.540,376.494 289.696,376.541 289.448 C 376.589 289.199,376.587 288.839,376.537 288.648 C 376.487 288.456,376.448 288.660,376.450 289.100 M376.650 293.700 C 376.653 294.140,376.694 294.296,376.741 294.048 C 376.789 293.799,376.787 293.439,376.737 293.248 C 376.687 293.056,376.648 293.260,376.650 293.700 M164.860 295.000 C 164.860 295.605,164.897 295.853,164.943 295.550 C 164.989 295.248,164.989 294.752,164.943 294.450 C 164.897 294.147,164.860 294.395,164.860 295.000 M154.854 295.600 C 154.854 296.095,154.893 296.298,154.941 296.050 C 154.989 295.803,154.989 295.397,154.941 295.150 C 154.893 294.903,154.854 295.105,154.854 295.600 M376.854 298.400 C 376.854 298.895,376.893 299.098,376.941 298.850 C 376.989 298.603,376.989 298.197,376.941 297.950 C 376.893 297.703,376.854 297.905,376.854 298.400 M164.660 301.400 C 164.660 302.005,164.697 302.252,164.743 301.950 C 164.789 301.647,164.789 301.153,164.743 300.850 C 164.697 300.548,164.660 300.795,164.660 301.400 M154.654 302.000 C 154.654 302.495,154.693 302.697,154.741 302.450 C 154.789 302.203,154.789 301.798,154.741 301.550 C 154.693 301.303,154.654 301.505,154.654 302.000 M377.054 303.000 C 377.054 303.495,377.093 303.697,377.141 303.450 C 377.189 303.203,377.189 302.798,377.141 302.550 C 377.093 302.303,377.054 302.505,377.054 303.000 M164.460 307.800 C 164.460 308.405,164.497 308.653,164.543 308.350 C 164.589 308.048,164.589 307.553,164.543 307.250 C 164.497 306.947,164.460 307.195,164.460 307.800 M377.254 307.600 C 377.254 308.095,377.293 308.298,377.341 308.050 C 377.389 307.803,377.389 307.398,377.341 307.150 C 377.293 306.903,377.254 307.105,377.254 307.600 M154.454 308.400 C 154.454 308.895,154.493 309.098,154.541 308.850 C 154.589 308.603,154.589 308.197,154.541 307.950 C 154.493 307.703,154.454 307.905,154.454 308.400 M377.450 312.300 C 377.453 312.740,377.494 312.896,377.541 312.648 C 377.589 312.399,377.587 312.039,377.537 311.848 C 377.487 311.656,377.448 311.860,377.450 312.300 M164.260 314.200 C 164.260 314.805,164.297 315.053,164.343 314.750 C 164.389 314.447,164.389 313.953,164.343 313.650 C 164.297 313.348,164.260 313.595,164.260 314.200 M154.257 314.700 C 154.259 315.250,154.298 315.451,154.344 315.147 C 154.389 314.843,154.388 314.393,154.341 314.147 C 154.293 313.901,154.256 314.150,154.257 314.700 M377.650 316.900 C 377.653 317.340,377.694 317.496,377.741 317.248 C 377.789 316.999,377.787 316.639,377.737 316.448 C 377.687 316.256,377.648 316.460,377.650 316.900 M164.062 320.500 C 164.063 321.160,164.100 321.406,164.145 321.046 C 164.189 320.687,164.189 320.147,164.143 319.846 C 164.097 319.546,164.061 319.840,164.062 320.500 M154.054 321.000 C 154.054 321.495,154.093 321.697,154.141 321.450 C 154.189 321.203,154.189 320.798,154.141 320.550 C 154.093 320.303,154.054 320.505,154.054 321.000 M377.850 321.500 C 377.853 321.940,377.894 322.096,377.941 321.848 C 377.989 321.599,377.987 321.239,377.937 321.048 C 377.887 320.856,377.848 321.060,377.850 321.500 M378.054 326.200 C 378.054 326.695,378.093 326.898,378.141 326.650 C 378.189 326.403,378.189 325.998,378.141 325.750 C 378.093 325.503,378.054 325.705,378.054 326.200 M163.860 326.800 C 163.860 327.405,163.897 327.653,163.943 327.350 C 163.989 327.048,163.989 326.553,163.943 326.250 C 163.897 325.947,163.860 326.195,163.860 326.800 M153.854 327.400 C 153.854 327.895,153.893 328.098,153.941 327.850 C 153.989 327.603,153.989 327.197,153.941 326.950 C 153.893 326.703,153.854 326.905,153.854 327.400 M378.254 330.800 C 378.254 331.295,378.293 331.498,378.341 331.250 C 378.389 331.003,378.389 330.598,378.341 330.350 C 378.293 330.103,378.254 330.305,378.254 330.800 M163.660 333.200 C 163.660 333.805,163.697 334.053,163.743 333.750 C 163.789 333.447,163.789 332.953,163.743 332.650 C 163.697 332.348,163.660 332.595,163.660 333.200 M153.654 333.800 C 153.654 334.295,153.693 334.498,153.741 334.250 C 153.789 334.003,153.789 333.598,153.741 333.350 C 153.693 333.103,153.654 333.305,153.654 333.800 M378.454 335.400 C 378.454 335.895,378.493 336.098,378.541 335.850 C 378.589 335.603,378.589 335.197,378.541 334.950 C 378.493 334.703,378.454 334.905,378.454 335.400 M163.460 339.600 C 163.460 340.205,163.497 340.453,163.543 340.150 C 163.589 339.848,163.589 339.353,163.543 339.050 C 163.497 338.748,163.460 338.995,163.460 339.600 M153.454 340.200 C 153.454 340.695,153.493 340.898,153.541 340.650 C 153.589 340.403,153.589 339.998,153.541 339.750 C 153.493 339.503,153.454 339.705,153.454 340.200 M378.650 340.100 C 378.653 340.540,378.694 340.696,378.741 340.448 C 378.789 340.199,378.787 339.839,378.737 339.648 C 378.687 339.456,378.648 339.660,378.650 340.100 M378.850 344.700 C 378.853 345.140,378.894 345.296,378.941 345.048 C 378.989 344.799,378.987 344.439,378.937 344.248 C 378.887 344.056,378.848 344.260,378.850 344.700 M163.260 346.000 C 163.260 346.605,163.297 346.853,163.343 346.550 C 163.389 346.248,163.389 345.753,163.343 345.450 C 163.297 345.148,163.260 345.395,163.260 346.000 M153.257 346.500 C 153.259 347.050,153.298 347.251,153.344 346.947 C 153.389 346.643,153.388 346.193,153.341 345.947 C 153.293 345.701,153.256 345.950,153.257 346.500 M379.050 349.300 C 379.053 349.740,379.094 349.896,379.141 349.648 C 379.189 349.399,379.187 349.039,379.137 348.848 C 379.087 348.656,379.048 348.860,379.050 349.300 M163.062 352.300 C 163.063 352.960,163.100 353.206,163.145 352.846 C 163.189 352.487,163.189 351.947,163.143 351.646 C 163.097 351.346,163.061 351.640,163.062 352.300 M153.046 352.600 C 153.046 352.985,153.088 353.143,153.138 352.950 C 153.188 352.757,153.188 352.443,153.138 352.250 C 153.088 352.058,153.046 352.215,153.046 352.600 M379.254 354.000 C 379.254 354.495,379.293 354.697,379.341 354.450 C 379.389 354.203,379.389 353.798,379.341 353.550 C 379.293 353.303,379.254 353.505,379.254 354.000 M162.860 358.600 C 162.860 359.205,162.897 359.453,162.943 359.150 C 162.989 358.848,162.989 358.353,162.943 358.050 C 162.897 357.748,162.860 357.995,162.860 358.600 M379.454 358.600 C 379.454 359.095,379.493 359.298,379.541 359.050 C 379.589 358.803,379.589 358.398,379.541 358.150 C 379.493 357.903,379.454 358.105,379.454 358.600 M162.660 365.000 C 162.660 365.605,162.697 365.853,162.743 365.550 C 162.789 365.248,162.789 364.753,162.743 364.450 C 162.697 364.148,162.660 364.395,162.660 365.000 M263.750 371.741 C 263.998 371.789,264.403 371.789,264.650 371.741 C 264.897 371.693,264.695 371.654,264.200 371.654 C 263.705 371.654,263.502 371.693,263.750 371.741 M268.350 371.941 C 268.598 371.989,269.002 371.989,269.250 371.941 C 269.498 371.893,269.295 371.854,268.800 371.854 C 268.305 371.854,268.103 371.893,268.350 371.941 M272.950 372.141 C 273.197 372.189,273.603 372.189,273.850 372.141 C 274.098 372.093,273.895 372.054,273.400 372.054 C 272.905 372.054,272.703 372.093,272.950 372.141 M277.550 372.341 C 277.798 372.389,278.203 372.389,278.450 372.341 C 278.697 372.293,278.495 372.254,278.000 372.254 C 277.505 372.254,277.303 372.293,277.550 372.341 M357.240 372.549 C 358.197 372.585,359.817 372.586,360.840 372.549 C 361.863 372.513,361.080 372.483,359.100 372.483 C 357.120 372.482,356.283 372.512,357.240 372.549 M335.440 372.749 C 336.397 372.785,338.017 372.786,339.040 372.749 C 340.063 372.713,339.280 372.683,337.300 372.683 C 335.320 372.682,334.483 372.712,335.440 372.749 M313.640 372.949 C 314.597 372.985,316.217 372.986,317.240 372.949 C 318.263 372.913,317.480 372.883,315.500 372.883 C 313.520 372.882,312.683 372.912,313.640 372.949 M199.550 379.750 C 201.447 379.783,204.553 379.783,206.450 379.750 C 208.347 379.717,206.795 379.690,203.000 379.690 C 199.205 379.690,197.653 379.717,199.550 379.750 M200.041 389.748 C 200.779 389.786,202.039 389.787,202.841 389.749 C 203.644 389.711,203.040 389.679,201.500 389.679 C 199.960 389.679,199.304 389.710,200.041 389.748 " stroke="none" fill="#94df7c" fill-rule="evenodd"></path><path id="path6" d="M31.462 36.100 C 31.463 36.760,31.500 37.006,31.545 36.646 C 31.589 36.287,31.589 35.747,31.543 35.446 C 31.497 35.146,31.461 35.440,31.462 36.100 M31.660 50.600 C 31.660 51.205,31.697 51.453,31.743 51.150 C 31.789 50.848,31.789 50.352,31.743 50.050 C 31.697 49.748,31.660 49.995,31.660 50.600 M31.860 65.000 C 31.860 65.605,31.897 65.853,31.943 65.550 C 31.989 65.248,31.989 64.752,31.943 64.450 C 31.897 64.148,31.860 64.395,31.860 65.000 M32.057 79.300 C 32.059 79.850,32.098 80.051,32.144 79.747 C 32.189 79.443,32.188 78.993,32.141 78.747 C 32.093 78.501,32.056 78.750,32.057 79.300 M32.257 93.700 C 32.259 94.250,32.298 94.451,32.344 94.147 C 32.389 93.843,32.388 93.393,32.341 93.147 C 32.293 92.901,32.256 93.150,32.257 93.700 M32.457 108.100 C 32.459 108.650,32.498 108.851,32.544 108.547 C 32.589 108.243,32.588 107.793,32.541 107.547 C 32.493 107.301,32.456 107.550,32.457 108.100 M32.657 122.500 C 32.659 123.050,32.698 123.251,32.744 122.947 C 32.789 122.643,32.788 122.193,32.741 121.947 C 32.693 121.701,32.656 121.950,32.657 122.500 M32.857 136.900 C 32.859 137.450,32.898 137.651,32.944 137.347 C 32.989 137.043,32.988 136.593,32.941 136.347 C 32.893 136.101,32.856 136.350,32.857 136.900 M299.352 139.541 C 299.601 139.589,299.961 139.587,300.152 139.537 C 300.344 139.487,300.140 139.448,299.700 139.450 C 299.260 139.453,299.104 139.494,299.352 139.541 M308.650 139.738 C 308.843 139.788,309.158 139.788,309.350 139.738 C 309.543 139.688,309.385 139.646,309.000 139.646 C 308.615 139.646,308.457 139.688,308.650 139.738 M317.952 139.941 C 318.201 139.989,318.561 139.987,318.752 139.937 C 318.944 139.887,318.740 139.848,318.300 139.850 C 317.860 139.853,317.704 139.894,317.952 139.941 M327.250 140.138 C 327.443 140.188,327.757 140.188,327.950 140.138 C 328.143 140.088,327.985 140.046,327.600 140.046 C 327.215 140.046,327.058 140.088,327.250 140.138 M336.450 140.338 C 336.643 140.388,336.957 140.388,337.150 140.338 C 337.343 140.288,337.185 140.246,336.800 140.246 C 336.415 140.246,336.257 140.288,336.450 140.338 M345.752 140.541 C 346.001 140.589,346.361 140.587,346.552 140.537 C 346.744 140.487,346.540 140.448,346.100 140.450 C 345.660 140.453,345.504 140.494,345.752 140.541 M355.050 140.738 C 355.243 140.788,355.558 140.788,355.750 140.738 C 355.943 140.688,355.785 140.646,355.400 140.646 C 355.015 140.646,354.858 140.688,355.050 140.738 M228.856 149.747 C 229.382 149.789,230.192 149.788,230.656 149.746 C 231.120 149.704,230.690 149.670,229.700 149.671 C 228.710 149.672,228.330 149.706,228.856 149.747 M203.550 149.946 C 204.018 149.989,204.783 149.989,205.250 149.946 C 205.718 149.904,205.335 149.870,204.400 149.870 C 203.465 149.870,203.083 149.904,203.550 149.946 M33.057 151.300 C 33.059 151.850,33.098 152.051,33.144 151.747 C 33.189 151.443,33.188 150.993,33.141 150.747 C 33.093 150.501,33.056 150.750,33.057 151.300 M33.260 165.600 C 33.260 166.205,33.297 166.453,33.343 166.150 C 33.389 165.847,33.389 165.353,33.343 165.050 C 33.297 164.748,33.260 164.995,33.260 165.600 M85.089 175.900 C 85.089 179.310,85.116 180.733,85.150 179.062 C 85.183 177.392,85.183 174.602,85.150 172.862 C 85.116 171.123,85.089 172.490,85.089 175.900 M33.460 180.000 C 33.460 180.605,33.497 180.853,33.543 180.550 C 33.589 180.248,33.589 179.753,33.543 179.450 C 33.497 179.148,33.460 179.395,33.460 180.000 M33.660 194.400 C 33.660 195.005,33.697 195.253,33.743 194.950 C 33.789 194.648,33.789 194.153,33.743 193.850 C 33.697 193.548,33.660 193.795,33.660 194.400 M33.860 208.800 C 33.860 209.405,33.897 209.653,33.943 209.350 C 33.989 209.048,33.989 208.553,33.943 208.250 C 33.897 207.947,33.860 208.195,33.860 208.800 M34.060 223.200 C 34.060 223.805,34.097 224.053,34.143 223.750 C 34.189 223.447,34.189 222.953,34.143 222.650 C 34.097 222.347,34.060 222.595,34.060 223.200 M34.257 237.500 C 34.259 238.050,34.298 238.251,34.344 237.947 C 34.389 237.643,34.388 237.193,34.341 236.947 C 34.293 236.701,34.256 236.950,34.257 237.500 M34.457 251.900 C 34.459 252.450,34.498 252.651,34.544 252.347 C 34.589 252.043,34.588 251.593,34.541 251.347 C 34.493 251.101,34.456 251.350,34.457 251.900 M364.450 362.546 C 364.863 362.589,365.538 362.589,365.950 362.546 C 366.363 362.503,366.025 362.467,365.200 362.467 C 364.375 362.467,364.038 362.503,364.450 362.546 M342.650 362.746 C 343.063 362.789,343.738 362.789,344.150 362.746 C 344.563 362.703,344.225 362.667,343.400 362.667 C 342.575 362.667,342.238 362.703,342.650 362.746 M320.850 362.946 C 321.263 362.989,321.938 362.989,322.350 362.946 C 322.763 362.903,322.425 362.867,321.600 362.867 C 320.775 362.867,320.438 362.903,320.850 362.946 M172.463 369.500 C 172.498 369.844,172.658 369.903,173.602 369.919 L 174.700 369.938 173.663 369.859 C 172.905 369.801,172.598 369.688,172.524 369.440 C 172.450 369.191,172.434 369.207,172.463 369.500 M213.641 369.748 C 214.379 369.786,215.639 369.787,216.441 369.749 C 217.244 369.711,216.640 369.679,215.100 369.679 C 213.560 369.679,212.904 369.710,213.641 369.748 " stroke="none" fill="#2fcd06" fill-rule="evenodd"></path><path id="path7" d="M31.681 46.500 C 31.681 48.260,31.712 48.953,31.749 48.041 C 31.786 47.128,31.786 45.688,31.748 44.841 C 31.711 43.993,31.681 44.740,31.681 46.500 M31.881 60.900 C 31.881 62.660,31.912 63.353,31.949 62.441 C 31.986 61.528,31.986 60.088,31.948 59.241 C 31.911 58.393,31.881 59.140,31.881 60.900 M32.081 75.300 C 32.081 77.060,32.112 77.753,32.149 76.841 C 32.186 75.928,32.186 74.488,32.148 73.641 C 32.111 72.793,32.081 73.540,32.081 75.300 M32.281 89.700 C 32.281 91.460,32.312 92.153,32.349 91.241 C 32.386 90.328,32.386 88.888,32.348 88.041 C 32.311 87.193,32.281 87.940,32.281 89.700 M32.481 104.100 C 32.481 105.860,32.512 106.553,32.549 105.641 C 32.586 104.728,32.586 103.288,32.548 102.441 C 32.511 101.593,32.481 102.340,32.481 104.100 M32.681 118.500 C 32.681 120.260,32.712 120.953,32.749 120.041 C 32.786 119.128,32.786 117.688,32.748 116.841 C 32.711 115.993,32.681 116.740,32.681 118.500 M85.096 148.600 C 85.096 160.315,85.121 165.108,85.150 159.250 C 85.179 153.393,85.179 143.808,85.150 137.950 C 85.121 132.093,85.096 136.885,85.096 148.600 M32.881 132.900 C 32.881 134.660,32.912 135.353,32.949 134.441 C 32.986 133.528,32.986 132.088,32.948 131.241 C 32.911 130.393,32.881 131.140,32.881 132.900 M305.350 139.747 C 305.928 139.788,306.873 139.788,307.450 139.747 C 308.028 139.707,307.555 139.674,306.400 139.674 C 305.245 139.674,304.772 139.707,305.350 139.747 M314.757 139.948 C 315.338 139.988,316.238 139.988,316.757 139.947 C 317.276 139.906,316.800 139.873,315.700 139.873 C 314.600 139.874,314.176 139.907,314.757 139.948 M323.950 140.147 C 324.528 140.188,325.473 140.188,326.050 140.147 C 326.628 140.107,326.155 140.074,325.000 140.074 C 323.845 140.074,323.373 140.107,323.950 140.147 M333.357 140.348 C 333.938 140.388,334.838 140.388,335.357 140.347 C 335.876 140.306,335.400 140.273,334.300 140.273 C 333.200 140.274,332.776 140.307,333.357 140.348 M342.557 140.548 C 343.138 140.588,344.038 140.588,344.557 140.547 C 345.076 140.506,344.600 140.473,343.500 140.473 C 342.400 140.474,341.976 140.507,342.557 140.548 M351.750 140.747 C 352.328 140.788,353.273 140.788,353.850 140.747 C 354.428 140.707,353.955 140.674,352.800 140.674 C 351.645 140.674,351.173 140.707,351.750 140.747 M33.081 147.300 C 33.081 149.060,33.112 149.753,33.149 148.841 C 33.186 147.928,33.186 146.488,33.148 145.641 C 33.111 144.793,33.081 145.540,33.081 147.300 M360.257 145.500 C 360.259 146.050,360.298 146.251,360.344 145.947 C 360.389 145.643,360.388 145.193,360.341 144.947 C 360.293 144.701,360.256 144.950,360.257 145.500 M360.457 150.100 C 360.459 150.650,360.498 150.851,360.544 150.547 C 360.589 150.243,360.588 149.793,360.541 149.547 C 360.493 149.301,360.456 149.550,360.457 150.100 M234.050 149.750 C 235.563 149.783,238.038 149.783,239.550 149.750 C 241.063 149.716,239.825 149.688,236.800 149.688 C 233.775 149.688,232.538 149.716,234.050 149.750 M208.762 149.950 C 210.336 149.983,212.856 149.983,214.362 149.949 C 215.868 149.916,214.580 149.888,211.500 149.888 C 208.420 149.888,207.188 149.916,208.762 149.950 M360.660 154.800 C 360.660 155.405,360.697 155.653,360.743 155.350 C 360.789 155.048,360.789 154.553,360.743 154.250 C 360.697 153.947,360.660 154.195,360.660 154.800 M360.860 159.400 C 360.860 160.005,360.897 160.253,360.943 159.950 C 360.989 159.648,360.989 159.153,360.943 158.850 C 360.897 158.548,360.860 158.795,360.860 159.400 M33.280 161.600 C 33.280 163.305,33.311 164.003,33.349 163.150 C 33.386 162.298,33.386 160.903,33.349 160.050 C 33.311 159.197,33.280 159.895,33.280 161.600 M361.057 164.100 C 361.059 164.650,361.098 164.851,361.144 164.547 C 361.189 164.243,361.188 163.793,361.141 163.547 C 361.093 163.301,361.056 163.550,361.057 164.100 M361.257 168.700 C 361.259 169.250,361.298 169.451,361.344 169.147 C 361.389 168.843,361.388 168.393,361.341 168.147 C 361.293 167.901,361.256 168.150,361.257 168.700 M361.457 173.300 C 361.459 173.850,361.498 174.051,361.544 173.747 C 361.589 173.443,361.588 172.993,361.541 172.747 C 361.493 172.501,361.456 172.750,361.457 173.300 M33.480 176.000 C 33.480 177.705,33.511 178.403,33.549 177.550 C 33.586 176.697,33.586 175.303,33.549 174.450 C 33.511 173.597,33.480 174.295,33.480 176.000 M361.657 177.900 C 361.659 178.450,361.698 178.651,361.744 178.347 C 361.789 178.043,361.788 177.593,361.741 177.347 C 361.693 177.101,361.656 177.350,361.657 177.900 M361.860 182.600 C 361.860 183.205,361.897 183.453,361.943 183.150 C 361.989 182.847,361.989 182.353,361.943 182.050 C 361.897 181.748,361.860 181.995,361.860 182.600 M362.060 187.200 C 362.060 187.805,362.097 188.053,362.143 187.750 C 362.189 187.447,362.189 186.953,362.143 186.650 C 362.097 186.347,362.060 186.595,362.060 187.200 M33.680 190.400 C 33.680 192.105,33.711 192.803,33.749 191.950 C 33.786 191.097,33.786 189.703,33.749 188.850 C 33.711 187.998,33.680 188.695,33.680 190.400 M362.257 191.900 C 362.259 192.450,362.298 192.651,362.344 192.347 C 362.389 192.043,362.388 191.593,362.341 191.347 C 362.293 191.101,362.256 191.350,362.257 191.900 M362.457 196.500 C 362.459 197.050,362.498 197.251,362.544 196.947 C 362.589 196.643,362.588 196.193,362.541 195.947 C 362.493 195.701,362.456 195.950,362.457 196.500 M362.657 201.100 C 362.659 201.650,362.698 201.851,362.744 201.547 C 362.789 201.243,362.788 200.793,362.741 200.547 C 362.693 200.301,362.656 200.550,362.657 201.100 M33.881 204.700 C 33.881 206.460,33.912 207.153,33.949 206.241 C 33.986 205.328,33.986 203.888,33.948 203.041 C 33.911 202.193,33.881 202.940,33.881 204.700 M362.857 205.700 C 362.859 206.250,362.898 206.451,362.944 206.147 C 362.989 205.843,362.988 205.393,362.941 205.147 C 362.893 204.901,362.856 205.150,362.857 205.700 M363.060 210.400 C 363.060 211.005,363.097 211.253,363.143 210.950 C 363.189 210.648,363.189 210.153,363.143 209.850 C 363.097 209.548,363.060 209.795,363.060 210.400 M219.246 212.800 C 219.246 213.185,219.288 213.343,219.338 213.150 C 219.388 212.957,219.388 212.643,219.338 212.450 C 219.288 212.257,219.246 212.415,219.246 212.800 M363.260 215.000 C 363.260 215.605,363.297 215.853,363.343 215.550 C 363.389 215.248,363.389 214.753,363.343 214.450 C 363.297 214.148,363.260 214.395,363.260 215.000 M219.446 215.800 C 219.446 216.185,219.488 216.343,219.538 216.150 C 219.588 215.957,219.588 215.643,219.538 215.450 C 219.488 215.257,219.446 215.415,219.446 215.800 M34.081 219.100 C 34.081 220.860,34.112 221.553,34.149 220.641 C 34.186 219.728,34.186 218.288,34.148 217.441 C 34.111 216.593,34.081 217.340,34.081 219.100 M219.646 218.800 C 219.646 219.185,219.688 219.343,219.738 219.150 C 219.788 218.957,219.788 218.643,219.738 218.450 C 219.688 218.257,219.646 218.415,219.646 218.800 M363.457 219.700 C 363.459 220.250,363.498 220.451,363.544 220.147 C 363.589 219.843,363.588 219.393,363.541 219.147 C 363.493 218.901,363.456 219.150,363.457 219.700 M363.657 224.300 C 363.659 224.850,363.698 225.051,363.744 224.747 C 363.789 224.443,363.788 223.993,363.741 223.747 C 363.693 223.501,363.656 223.750,363.657 224.300 M220.046 224.600 C 220.046 224.985,220.088 225.143,220.138 224.950 C 220.188 224.757,220.188 224.443,220.138 224.250 C 220.088 224.058,220.046 224.215,220.046 224.600 M220.246 227.600 C 220.246 227.985,220.288 228.143,220.338 227.950 C 220.388 227.757,220.388 227.443,220.338 227.250 C 220.288 227.058,220.246 227.215,220.246 227.600 M363.857 228.900 C 363.859 229.450,363.898 229.651,363.944 229.347 C 363.989 229.043,363.988 228.593,363.941 228.347 C 363.893 228.101,363.856 228.350,363.857 228.900 M34.281 233.500 C 34.281 235.260,34.312 235.953,34.349 235.041 C 34.386 234.128,34.386 232.688,34.348 231.841 C 34.311 230.993,34.281 231.740,34.281 233.500 M364.057 233.500 C 364.059 234.050,364.098 234.251,364.144 233.947 C 364.189 233.643,364.188 233.193,364.141 232.947 C 364.093 232.701,364.056 232.950,364.057 233.500 M220.646 233.400 C 220.646 233.785,220.688 233.943,220.738 233.750 C 220.788 233.558,220.788 233.243,220.738 233.050 C 220.688 232.857,220.646 233.015,220.646 233.400 M321.246 235.800 C 321.246 236.185,321.288 236.343,321.338 236.150 C 321.388 235.957,321.388 235.643,321.338 235.450 C 321.288 235.257,321.246 235.415,321.246 235.800 M220.846 236.400 C 220.846 236.785,220.888 236.943,220.938 236.750 C 220.988 236.558,220.988 236.243,220.938 236.050 C 220.888 235.857,220.846 236.015,220.846 236.400 M364.260 238.200 C 364.260 238.805,364.297 239.053,364.343 238.750 C 364.389 238.447,364.389 237.953,364.343 237.650 C 364.297 237.347,364.260 237.595,364.260 238.200 M221.246 242.200 C 221.246 242.585,221.288 242.743,221.338 242.550 C 221.388 242.357,221.388 242.043,221.338 241.850 C 221.288 241.657,221.246 241.815,221.246 242.200 M364.460 242.800 C 364.460 243.405,364.497 243.653,364.543 243.350 C 364.589 243.048,364.589 242.553,364.543 242.250 C 364.497 241.947,364.460 242.195,364.460 242.800 M221.446 245.200 C 221.446 245.585,221.488 245.743,221.538 245.550 C 221.588 245.357,221.588 245.043,221.538 244.850 C 221.488 244.657,221.446 244.815,221.446 245.200 M34.481 247.900 C 34.481 249.660,34.512 250.353,34.549 249.441 C 34.586 248.528,34.586 247.088,34.548 246.241 C 34.511 245.393,34.481 246.140,34.481 247.900 M364.657 247.500 C 364.659 248.050,364.698 248.251,364.744 247.947 C 364.789 247.643,364.788 247.193,364.741 246.947 C 364.693 246.701,364.656 246.950,364.657 247.500 M221.646 248.200 C 221.646 248.585,221.688 248.743,221.738 248.550 C 221.788 248.357,221.788 248.043,221.738 247.850 C 221.688 247.657,221.646 247.815,221.646 248.200 M176.266 250.500 C 176.267 251.270,176.303 251.560,176.346 251.146 C 176.389 250.731,176.389 250.101,176.344 249.746 C 176.300 249.390,176.265 249.730,176.266 250.500 M364.857 252.100 C 364.859 252.650,364.898 252.851,364.944 252.547 C 364.989 252.243,364.988 251.793,364.941 251.547 C 364.893 251.301,364.856 251.550,364.857 252.100 M222.046 254.000 C 222.046 254.385,222.088 254.543,222.138 254.350 C 222.188 254.157,222.188 253.843,222.138 253.650 C 222.088 253.457,222.046 253.615,222.046 254.000 M176.066 256.900 C 176.067 257.670,176.103 257.960,176.146 257.546 C 176.189 257.131,176.189 256.501,176.144 256.146 C 176.100 255.790,176.065 256.130,176.066 256.900 M365.057 256.700 C 365.059 257.250,365.098 257.451,365.144 257.147 C 365.189 256.843,365.188 256.393,365.141 256.147 C 365.093 255.901,365.056 256.150,365.057 256.700 M222.246 257.000 C 222.246 257.385,222.288 257.543,222.338 257.350 C 222.388 257.157,222.388 256.843,222.338 256.650 C 222.288 256.457,222.246 256.615,222.246 257.000 M34.690 261.684 C 34.698 263.805,34.754 264.282,35.000 264.349 C 35.215 264.407,35.231 264.382,35.056 264.257 C 34.894 264.142,34.791 263.255,34.747 261.592 L 34.680 259.100 34.690 261.684 M365.257 261.300 C 365.259 261.850,365.298 262.051,365.344 261.747 C 365.389 261.443,365.388 260.993,365.341 260.747 C 365.293 260.501,365.256 260.750,365.257 261.300 M175.866 263.300 C 175.867 264.070,175.903 264.360,175.946 263.946 C 175.989 263.531,175.989 262.901,175.944 262.546 C 175.900 262.190,175.865 262.530,175.866 263.300 M222.646 262.800 C 222.646 263.185,222.688 263.343,222.738 263.150 C 222.788 262.957,222.788 262.643,222.738 262.450 C 222.688 262.257,222.646 262.415,222.646 262.800 M319.046 265.000 C 319.046 265.385,319.088 265.543,319.138 265.350 C 319.188 265.157,319.188 264.843,319.138 264.650 C 319.088 264.457,319.046 264.615,319.046 265.000 M365.460 266.000 C 365.460 266.605,365.497 266.853,365.543 266.550 C 365.589 266.248,365.589 265.752,365.543 265.450 C 365.497 265.147,365.460 265.395,365.460 266.000 M222.846 265.800 C 222.846 266.185,222.888 266.343,222.938 266.150 C 222.988 265.957,222.988 265.643,222.938 265.450 C 222.888 265.257,222.846 265.415,222.846 265.800 M223.046 268.800 C 223.046 269.185,223.088 269.343,223.138 269.150 C 223.188 268.957,223.188 268.643,223.138 268.450 C 223.088 268.257,223.046 268.415,223.046 268.800 M175.666 269.700 C 175.667 270.470,175.703 270.760,175.746 270.346 C 175.789 269.931,175.789 269.301,175.744 268.946 C 175.700 268.590,175.665 268.930,175.666 269.700 M365.660 270.600 C 365.660 271.205,365.697 271.453,365.743 271.150 C 365.789 270.848,365.789 270.353,365.743 270.050 C 365.697 269.748,365.660 269.995,365.660 270.600 M223.446 274.600 C 223.446 274.985,223.488 275.143,223.538 274.950 C 223.588 274.757,223.588 274.443,223.538 274.250 C 223.488 274.058,223.446 274.215,223.446 274.600 M365.857 275.300 C 365.859 275.850,365.898 276.051,365.944 275.747 C 365.989 275.443,365.988 274.993,365.941 274.747 C 365.893 274.501,365.856 274.750,365.857 275.300 M175.467 276.000 C 175.467 276.825,175.503 277.163,175.546 276.750 C 175.589 276.338,175.589 275.663,175.546 275.250 C 175.503 274.838,175.467 275.175,175.467 276.000 M223.646 277.600 C 223.646 277.985,223.688 278.143,223.738 277.950 C 223.788 277.757,223.788 277.443,223.738 277.250 C 223.688 277.058,223.646 277.215,223.646 277.600 M366.057 279.900 C 366.059 280.450,366.098 280.651,366.144 280.347 C 366.189 280.043,366.188 279.593,366.141 279.347 C 366.093 279.101,366.056 279.350,366.057 279.900 M175.266 282.300 C 175.267 283.070,175.303 283.360,175.346 282.946 C 175.389 282.531,175.389 281.901,175.344 281.546 C 175.300 281.190,175.265 281.530,175.266 282.300 M224.046 283.400 C 224.046 283.785,224.088 283.943,224.138 283.750 C 224.188 283.558,224.188 283.243,224.138 283.050 C 224.088 282.858,224.046 283.015,224.046 283.400 M317.646 283.600 C 317.646 283.985,317.688 284.143,317.738 283.950 C 317.788 283.757,317.788 283.443,317.738 283.250 C 317.688 283.058,317.646 283.215,317.646 283.600 M366.257 284.500 C 366.259 285.050,366.298 285.251,366.344 284.947 C 366.389 284.643,366.388 284.193,366.341 283.947 C 366.293 283.701,366.256 283.950,366.257 284.500 M224.246 286.400 C 224.246 286.785,224.288 286.943,224.338 286.750 C 224.388 286.558,224.388 286.243,224.338 286.050 C 224.288 285.858,224.246 286.015,224.246 286.400 M175.066 288.700 C 175.067 289.470,175.103 289.760,175.146 289.346 C 175.189 288.931,175.189 288.301,175.144 287.946 C 175.100 287.590,175.065 287.930,175.066 288.700 M366.457 289.100 C 366.459 289.650,366.498 289.851,366.544 289.547 C 366.589 289.243,366.588 288.793,366.541 288.547 C 366.493 288.301,366.456 288.550,366.457 289.100 M224.646 292.200 C 224.646 292.585,224.688 292.743,224.738 292.550 C 224.788 292.358,224.788 292.043,224.738 291.850 C 224.688 291.657,224.646 291.815,224.646 292.200 M366.660 293.800 C 366.660 294.405,366.697 294.653,366.743 294.350 C 366.789 294.048,366.789 293.553,366.743 293.250 C 366.697 292.947,366.660 293.195,366.660 293.800 M316.846 294.200 C 316.846 294.585,316.888 294.743,316.938 294.550 C 316.988 294.358,316.988 294.043,316.938 293.850 C 316.888 293.657,316.846 293.815,316.846 294.200 M174.866 295.100 C 174.867 295.870,174.903 296.160,174.946 295.746 C 174.989 295.331,174.989 294.701,174.944 294.346 C 174.900 293.990,174.865 294.330,174.866 295.100 M224.846 295.200 C 224.846 295.585,224.888 295.743,224.938 295.550 C 224.988 295.358,224.988 295.043,224.938 294.850 C 224.888 294.657,224.846 294.815,224.846 295.200 M366.860 298.400 C 366.860 299.005,366.897 299.252,366.943 298.950 C 366.989 298.647,366.989 298.153,366.943 297.850 C 366.897 297.548,366.860 297.795,366.860 298.400 M225.046 298.200 C 225.046 298.585,225.088 298.743,225.138 298.550 C 225.188 298.358,225.188 298.043,225.138 297.850 C 225.088 297.657,225.046 297.815,225.046 298.200 M174.666 301.500 C 174.667 302.270,174.703 302.560,174.746 302.146 C 174.789 301.731,174.789 301.101,174.744 300.746 C 174.700 300.390,174.665 300.730,174.666 301.500 M367.060 303.000 C 367.060 303.605,367.097 303.853,367.143 303.550 C 367.189 303.248,367.189 302.752,367.143 302.450 C 367.097 302.147,367.060 302.395,367.060 303.000 M225.446 304.000 C 225.446 304.385,225.488 304.543,225.538 304.350 C 225.588 304.157,225.588 303.843,225.538 303.650 C 225.488 303.457,225.446 303.615,225.446 304.000 M174.467 307.800 C 174.467 308.625,174.503 308.963,174.546 308.550 C 174.589 308.138,174.589 307.463,174.546 307.050 C 174.503 306.637,174.467 306.975,174.467 307.800 M225.646 307.000 C 225.646 307.385,225.688 307.543,225.738 307.350 C 225.788 307.157,225.788 306.843,225.738 306.650 C 225.688 306.457,225.646 306.615,225.646 307.000 M367.257 307.700 C 367.259 308.250,367.298 308.451,367.344 308.147 C 367.389 307.843,367.388 307.393,367.341 307.147 C 367.293 306.901,367.256 307.150,367.257 307.700 M367.457 312.300 C 367.459 312.850,367.498 313.051,367.544 312.747 C 367.589 312.443,367.588 311.993,367.541 311.747 C 367.493 311.501,367.456 311.750,367.457 312.300 M226.046 312.800 C 226.046 313.185,226.088 313.343,226.138 313.150 C 226.188 312.957,226.188 312.643,226.138 312.450 C 226.088 312.257,226.046 312.415,226.046 312.800 M315.446 312.800 C 315.446 313.185,315.488 313.343,315.538 313.150 C 315.588 312.957,315.588 312.643,315.538 312.450 C 315.488 312.257,315.446 312.415,315.446 312.800 M174.266 314.100 C 174.267 314.870,174.303 315.160,174.346 314.746 C 174.389 314.331,174.389 313.701,174.344 313.346 C 174.300 312.990,174.265 313.330,174.266 314.100 M226.246 315.800 C 226.246 316.185,226.288 316.343,226.338 316.150 C 226.388 315.957,226.388 315.643,226.338 315.450 C 226.288 315.257,226.246 315.415,226.246 315.800 M367.657 316.900 C 367.659 317.450,367.698 317.651,367.744 317.347 C 367.789 317.043,367.788 316.593,367.741 316.347 C 367.693 316.101,367.656 316.350,367.657 316.900 M226.446 318.800 C 226.446 319.185,226.488 319.343,226.538 319.150 C 226.588 318.957,226.588 318.643,226.538 318.450 C 226.488 318.257,226.446 318.415,226.446 318.800 M174.066 320.500 C 174.067 321.270,174.103 321.560,174.146 321.146 C 174.189 320.731,174.189 320.101,174.144 319.746 C 174.100 319.390,174.065 319.730,174.066 320.500 M367.860 321.600 C 367.860 322.205,367.897 322.453,367.943 322.150 C 367.989 321.848,367.989 321.353,367.943 321.050 C 367.897 320.748,367.860 320.995,367.860 321.600 M226.846 324.600 C 226.846 324.985,226.888 325.143,226.938 324.950 C 226.988 324.757,226.988 324.443,226.938 324.250 C 226.888 324.058,226.846 324.215,226.846 324.600 M368.060 326.200 C 368.060 326.805,368.097 327.053,368.143 326.750 C 368.189 326.447,368.189 325.953,368.143 325.650 C 368.097 325.348,368.060 325.595,368.060 326.200 M173.866 326.900 C 173.867 327.670,173.903 327.960,173.946 327.546 C 173.989 327.131,173.989 326.501,173.944 326.146 C 173.900 325.790,173.865 326.130,173.866 326.900 M227.046 327.600 C 227.046 327.985,227.088 328.143,227.138 327.950 C 227.188 327.757,227.188 327.443,227.138 327.250 C 227.088 327.058,227.046 327.215,227.046 327.600 M368.260 330.800 C 368.260 331.405,368.297 331.653,368.343 331.350 C 368.389 331.048,368.389 330.553,368.343 330.250 C 368.297 329.947,368.260 330.195,368.260 330.800 M314.046 331.400 C 314.046 331.785,314.088 331.943,314.138 331.750 C 314.188 331.558,314.188 331.243,314.138 331.050 C 314.088 330.858,314.046 331.015,314.046 331.400 M173.666 333.300 C 173.667 334.070,173.703 334.360,173.746 333.946 C 173.789 333.531,173.789 332.901,173.744 332.546 C 173.700 332.190,173.665 332.530,173.666 333.300 M227.446 333.400 C 227.446 333.785,227.488 333.943,227.538 333.750 C 227.588 333.558,227.588 333.243,227.538 333.050 C 227.488 332.858,227.446 333.015,227.446 333.400 M368.457 335.500 C 368.459 336.050,368.498 336.251,368.544 335.947 C 368.589 335.643,368.588 335.193,368.541 334.947 C 368.493 334.701,368.456 334.950,368.457 335.500 M227.646 336.400 C 227.646 336.785,227.688 336.943,227.738 336.750 C 227.788 336.558,227.788 336.243,227.738 336.050 C 227.688 335.858,227.646 336.015,227.646 336.400 M173.466 339.700 C 173.467 340.470,173.503 340.760,173.546 340.346 C 173.589 339.931,173.589 339.301,173.544 338.946 C 173.500 338.590,173.465 338.930,173.466 339.700 M368.657 340.100 C 368.659 340.650,368.698 340.851,368.744 340.547 C 368.789 340.243,368.788 339.793,368.741 339.547 C 368.693 339.301,368.656 339.550,368.657 340.100 M313.246 342.000 C 313.246 342.385,313.288 342.543,313.338 342.350 C 313.388 342.158,313.388 341.843,313.338 341.650 C 313.288 341.457,313.246 341.615,313.246 342.000 M228.046 342.200 C 228.046 342.585,228.088 342.743,228.138 342.550 C 228.188 342.358,228.188 342.043,228.138 341.850 C 228.088 341.658,228.046 341.815,228.046 342.200 M368.857 344.700 C 368.859 345.250,368.898 345.451,368.944 345.147 C 368.989 344.843,368.988 344.393,368.941 344.147 C 368.893 343.901,368.856 344.150,368.857 344.700 M173.266 345.900 C 173.267 346.670,173.303 346.960,173.346 346.546 C 173.389 346.131,173.389 345.501,173.344 345.146 C 173.300 344.790,173.265 345.130,173.266 345.900 M228.246 345.200 C 228.246 345.585,228.288 345.743,228.338 345.550 C 228.388 345.358,228.388 345.043,228.338 344.850 C 228.288 344.658,228.246 344.815,228.246 345.200 M228.446 348.200 C 228.446 348.585,228.488 348.743,228.538 348.550 C 228.588 348.358,228.588 348.043,228.538 347.850 C 228.488 347.658,228.446 347.815,228.446 348.200 M369.060 349.400 C 369.060 350.005,369.097 350.253,369.143 349.950 C 369.189 349.648,369.189 349.153,369.143 348.850 C 369.097 348.548,369.060 348.795,369.060 349.400 M173.066 352.300 C 173.067 353.070,173.103 353.360,173.146 352.946 C 173.189 352.531,173.189 351.901,173.144 351.546 C 173.100 351.190,173.065 351.530,173.066 352.300 M369.260 354.000 C 369.260 354.605,369.297 354.853,369.343 354.550 C 369.389 354.248,369.389 353.753,369.343 353.450 C 369.297 353.148,369.260 353.395,369.260 354.000 M228.846 354.000 C 228.846 354.385,228.888 354.543,228.938 354.350 C 228.988 354.158,228.988 353.843,228.938 353.650 C 228.888 353.457,228.846 353.615,228.846 354.000 M229.046 357.000 C 229.046 357.385,229.088 357.543,229.138 357.350 C 229.188 357.158,229.188 356.843,229.138 356.650 C 229.088 356.457,229.046 356.615,229.046 357.000 M172.866 358.700 C 172.867 359.470,172.903 359.760,172.946 359.346 C 172.989 358.931,172.989 358.301,172.944 357.946 C 172.900 357.590,172.865 357.930,172.866 358.700 M369.460 358.600 C 369.460 359.205,369.497 359.453,369.543 359.150 C 369.589 358.848,369.589 358.353,369.543 358.050 C 369.497 357.748,369.460 357.995,369.460 358.600 M311.846 360.600 C 311.846 360.985,311.888 361.143,311.938 360.950 C 311.988 360.757,311.988 360.443,311.938 360.250 C 311.888 360.058,311.846 360.215,311.846 360.600 M263.853 361.744 C 264.157 361.789,264.607 361.788,264.853 361.741 C 265.099 361.693,264.850 361.656,264.300 361.657 C 263.750 361.659,263.549 361.698,263.853 361.744 M268.453 361.944 C 268.757 361.989,269.207 361.988,269.453 361.941 C 269.699 361.893,269.450 361.856,268.900 361.857 C 268.350 361.859,268.149 361.898,268.453 361.944 M273.053 362.144 C 273.357 362.189,273.807 362.188,274.053 362.141 C 274.299 362.093,274.050 362.056,273.500 362.057 C 272.950 362.059,272.749 362.098,273.053 362.144 M229.446 362.800 C 229.446 363.185,229.488 363.343,229.538 363.150 C 229.588 362.957,229.588 362.643,229.538 362.450 C 229.488 362.257,229.446 362.415,229.446 362.800 M277.653 362.344 C 277.957 362.389,278.407 362.388,278.653 362.341 C 278.899 362.293,278.650 362.256,278.100 362.257 C 277.550 362.259,277.349 362.298,277.653 362.344 M356.761 362.549 C 358.115 362.584,360.275 362.584,361.561 362.549 C 362.848 362.514,361.740 362.486,359.100 362.486 C 356.460 362.486,355.408 362.515,356.761 362.549 M334.961 362.749 C 336.315 362.784,338.475 362.784,339.761 362.749 C 341.048 362.714,339.940 362.686,337.300 362.686 C 334.660 362.686,333.608 362.715,334.961 362.749 M313.850 362.949 C 315.033 362.985,316.968 362.985,318.150 362.949 C 319.332 362.914,318.365 362.885,316.000 362.885 C 313.635 362.885,312.668 362.914,313.850 362.949 M172.666 365.100 C 172.667 365.870,172.703 366.160,172.746 365.746 C 172.789 365.331,172.789 364.701,172.744 364.346 C 172.700 363.990,172.665 364.330,172.666 365.100 M229.646 365.800 C 229.646 366.185,229.688 366.343,229.738 366.150 C 229.788 365.957,229.788 365.643,229.738 365.450 C 229.688 365.257,229.646 365.415,229.646 365.800 M229.850 368.900 C 229.853 369.340,229.894 369.496,229.941 369.248 C 229.989 368.999,229.987 368.639,229.937 368.448 C 229.887 368.256,229.848 368.460,229.850 368.900 M198.250 369.750 C 200.863 369.781,205.138 369.781,207.750 369.750 C 210.363 369.718,208.225 369.692,203.000 369.692 C 197.775 369.692,195.638 369.718,198.250 369.750 " stroke="none" fill="#22d804" fill-rule="evenodd"></path><path id="path8" d="M21.460 40.800 C 21.460 41.405,21.497 41.653,21.543 41.350 C 21.589 41.048,21.589 40.553,21.543 40.250 C 21.497 39.948,21.460 40.195,21.460 40.800 M21.660 55.200 C 21.660 55.805,21.697 56.053,21.743 55.750 C 21.789 55.448,21.789 54.953,21.743 54.650 C 21.697 54.348,21.660 54.595,21.660 55.200 M21.857 69.500 C 21.859 70.050,21.898 70.251,21.944 69.947 C 21.989 69.643,21.988 69.193,21.941 68.947 C 21.893 68.701,21.856 68.950,21.857 69.500 M22.057 83.900 C 22.059 84.450,22.098 84.651,22.144 84.347 C 22.189 84.043,22.188 83.593,22.141 83.347 C 22.093 83.101,22.056 83.350,22.057 83.900 M22.257 98.300 C 22.259 98.850,22.298 99.051,22.344 98.747 C 22.389 98.443,22.388 97.993,22.341 97.747 C 22.293 97.501,22.256 97.750,22.257 98.300 M95.289 109.300 C 95.289 112.710,95.316 114.133,95.350 112.462 C 95.383 110.792,95.383 108.002,95.350 106.262 C 95.316 104.523,95.289 105.890,95.289 109.300 M22.457 112.700 C 22.459 113.250,22.498 113.451,22.544 113.147 C 22.589 112.843,22.588 112.393,22.541 112.147 C 22.493 111.901,22.456 112.150,22.457 112.700 M22.657 127.100 C 22.659 127.650,22.698 127.851,22.744 127.547 C 22.789 127.243,22.788 126.793,22.741 126.547 C 22.693 126.301,22.656 126.550,22.657 127.100 M302.250 129.738 C 302.443 129.788,302.757 129.788,302.950 129.738 C 303.143 129.688,302.985 129.646,302.600 129.646 C 302.215 129.646,302.058 129.688,302.250 129.738 M311.650 129.938 C 311.843 129.988,312.158 129.988,312.350 129.938 C 312.543 129.888,312.385 129.846,312.000 129.846 C 311.615 129.846,311.457 129.888,311.650 129.938 M320.850 130.138 C 321.043 130.188,321.358 130.188,321.550 130.138 C 321.743 130.088,321.585 130.046,321.200 130.046 C 320.815 130.046,320.658 130.088,320.850 130.138 M330.152 130.341 C 330.401 130.389,330.761 130.387,330.952 130.337 C 331.144 130.287,330.940 130.248,330.500 130.250 C 330.060 130.253,329.904 130.294,330.152 130.341 M339.450 130.538 C 339.643 130.588,339.957 130.588,340.150 130.538 C 340.343 130.488,340.185 130.446,339.800 130.446 C 339.415 130.446,339.257 130.488,339.450 130.538 M348.650 130.738 C 348.843 130.788,349.158 130.788,349.350 130.738 C 349.543 130.688,349.385 130.646,349.000 130.646 C 348.615 130.646,348.457 130.688,348.650 130.738 M358.050 130.938 C 358.243 130.988,358.558 130.988,358.750 130.938 C 358.943 130.888,358.785 130.846,358.400 130.846 C 358.015 130.846,357.858 130.888,358.050 130.938 M245.650 139.738 C 245.843 139.788,246.157 139.788,246.350 139.738 C 246.543 139.688,246.385 139.646,246.000 139.646 C 245.615 139.646,245.457 139.688,245.650 139.738 M220.950 139.946 C 221.418 139.989,222.183 139.989,222.650 139.946 C 223.118 139.904,222.735 139.870,221.800 139.870 C 220.865 139.870,220.482 139.904,220.950 139.946 M195.550 140.146 C 196.018 140.189,196.783 140.189,197.250 140.146 C 197.718 140.104,197.335 140.070,196.400 140.070 C 195.465 140.070,195.083 140.104,195.550 140.146 M22.857 141.500 C 22.859 142.050,22.898 142.251,22.944 141.947 C 22.989 141.643,22.988 141.193,22.941 140.947 C 22.893 140.701,22.856 140.950,22.857 141.500 M23.057 155.900 C 23.059 156.450,23.098 156.651,23.144 156.347 C 23.189 156.043,23.188 155.593,23.141 155.347 C 23.093 155.101,23.056 155.350,23.057 155.900 M23.257 170.300 C 23.259 170.850,23.298 171.051,23.344 170.747 C 23.389 170.443,23.388 169.993,23.341 169.747 C 23.293 169.501,23.256 169.750,23.257 170.300 M23.460 184.600 C 23.460 185.205,23.497 185.453,23.543 185.150 C 23.589 184.847,23.589 184.353,23.543 184.050 C 23.497 183.748,23.460 183.995,23.460 184.600 M23.660 199.000 C 23.660 199.605,23.697 199.853,23.743 199.550 C 23.789 199.248,23.789 198.753,23.743 198.450 C 23.697 198.148,23.660 198.395,23.660 199.000 M95.050 200.900 C 95.053 201.340,95.094 201.496,95.141 201.248 C 95.189 200.999,95.187 200.639,95.137 200.448 C 95.087 200.256,95.048 200.460,95.050 200.900 M23.860 213.400 C 23.860 214.005,23.897 214.253,23.943 213.950 C 23.989 213.648,23.989 213.153,23.943 212.850 C 23.897 212.548,23.860 212.795,23.860 213.400 M24.057 227.700 C 24.059 228.250,24.098 228.451,24.144 228.147 C 24.189 227.843,24.188 227.393,24.141 227.147 C 24.093 226.901,24.056 227.150,24.057 227.700 M24.257 242.100 C 24.259 242.650,24.298 242.851,24.344 242.547 C 24.389 242.243,24.388 241.793,24.341 241.547 C 24.293 241.301,24.256 241.550,24.257 242.100 M24.457 256.500 C 24.459 257.050,24.498 257.251,24.544 256.947 C 24.589 256.643,24.588 256.193,24.541 255.947 C 24.493 255.701,24.456 255.950,24.457 256.500 M349.450 372.546 C 349.863 372.589,350.538 372.589,350.950 372.546 C 351.363 372.503,351.025 372.467,350.200 372.467 C 349.375 372.467,349.038 372.503,349.450 372.546 M327.650 372.746 C 328.063 372.789,328.738 372.789,329.150 372.746 C 329.563 372.703,329.225 372.667,328.400 372.667 C 327.575 372.667,327.238 372.703,327.650 372.746 M226.750 379.547 C 227.328 379.588,228.273 379.588,228.850 379.547 C 229.428 379.507,228.955 379.474,227.800 379.474 C 226.645 379.474,226.173 379.507,226.750 379.547 M183.950 379.749 C 184.748 379.786,186.053 379.786,186.850 379.749 C 187.648 379.711,186.995 379.679,185.400 379.679 C 183.805 379.679,183.153 379.711,183.950 379.749 " stroke="none" fill="#4ccc24" fill-rule="evenodd"></path></g></svg>