<svg id="svg" version="1.1" xmlns="http://www.w3.org/2000/svg" xmlns:xlink="http://www.w3.org/1999/xlink" width="400" height="400" viewBox="0, 0, 400,400"><g id="svgg"><path id="path0" d="M27.026 16.106 L 22.553 17.191 19.926 19.080 C 17.373 20.917,17.248 21.041,15.446 23.563 L 13.592 26.156 12.518 30.669 L 11.445 35.182 13.018 149.541 L 14.591 263.900 15.626 268.400 C 16.829 273.628,16.579 273.024,18.810 276.092 C 20.430 278.320,20.737 278.627,22.911 280.200 C 25.983 282.423,25.455 282.204,30.600 283.385 L 35.100 284.417 95.400 272.640 L 155.700 260.863 155.748 262.481 C 155.775 263.372,155.045 287.874,154.125 316.930 L 152.454 369.761 153.529 374.302 L 154.603 378.843 156.503 381.471 C 158.342 384.014,158.487 384.160,160.980 385.948 L 163.557 387.796 168.129 388.871 L 172.700 389.946 201.400 389.787 L 230.100 389.627 234.515 388.552 L 238.931 387.477 241.527 385.600 C 244.645 383.344,247.561 379.725,248.152 377.378 C 248.357 376.566,248.522 376.247,248.675 376.363 C 248.799 376.456,249.845 377.211,251.000 378.040 L 253.100 379.548 257.900 380.663 L 262.700 381.778 271.545 382.128 L 280.390 382.478 284.845 381.422 L 289.300 380.366 291.951 378.465 C 293.593 377.287,294.842 376.228,295.235 375.682 C 295.996 374.621,295.788 374.589,296.695 375.905 C 297.273 376.744,298.112 377.482,300.178 378.967 L 302.900 380.924 307.374 381.974 L 311.849 383.025 340.474 382.791 L 369.100 382.557 373.800 381.462 L 378.500 380.367 381.142 378.472 C 383.699 376.637,385.632 374.490,387.488 371.425 C 387.580 371.273,388.128 369.163,388.707 366.735 L 389.758 362.322 384.983 251.711 L 380.208 141.100 379.179 136.700 C 378.000 131.662,378.153 132.026,375.948 129.004 C 374.365 126.834,374.125 126.602,371.586 124.785 L 368.900 122.861 364.440 121.812 L 359.980 120.763 329.252 120.096 L 298.524 119.429 294.312 120.421 C 288.049 121.896,285.668 123.413,282.349 128.040 L 280.442 130.700 279.134 136.300 C 278.414 139.380,276.504 148.245,274.890 156.000 C 273.275 163.755,271.893 170.166,271.820 170.247 C 271.746 170.328,270.117 163.729,268.199 155.582 L 264.711 140.771 262.803 138.143 C 260.975 135.625,260.786 135.436,258.297 133.619 L 255.700 131.724 251.300 130.654 L 246.900 129.584 224.960 129.716 L 203.020 129.848 202.918 129.374 C 202.862 129.113,200.920 111.395,198.602 90.000 L 194.389 51.100 193.287 46.400 C 192.087 41.281,192.363 41.907,189.611 38.085 C 188.472 36.504,188.017 36.076,185.716 34.416 L 183.110 32.536 178.631 31.468 L 174.152 30.401 103.726 22.803 C 64.992 18.625,32.895 15.164,32.400 15.113 C 31.749 15.046,30.260 15.322,27.026 16.106 M103.600 32.702 C 159.171 38.718,175.125 40.505,176.647 40.886 C 179.190 41.522,180.851 42.639,182.323 44.701 C 184.081 47.166,183.829 45.337,189.273 95.273 C 191.942 119.759,194.185 139.851,194.257 139.924 C 194.329 139.996,206.114 139.958,220.444 139.839 L 246.500 139.622 248.800 140.172 C 251.628 140.848,253.129 141.817,254.700 143.980 L 255.700 145.357 263.992 180.577 C 268.552 199.948,272.343 215.730,272.417 215.648 C 272.490 215.567,276.161 198.265,280.573 177.200 C 284.986 156.135,288.806 138.045,289.062 137.000 C 289.978 133.261,292.315 131.024,296.309 130.066 L 298.500 129.540 329.100 130.184 L 359.700 130.829 362.140 131.408 C 366.622 132.472,368.617 134.544,369.609 139.165 L 370.196 141.900 374.923 252.099 L 379.649 362.297 379.133 364.484 C 378.153 368.634,375.987 370.814,371.829 371.832 L 369.557 372.388 340.729 372.659 L 311.900 372.930 309.642 372.392 C 307.471 371.876,306.746 371.526,304.984 370.147 C 303.821 369.236,302.824 367.371,302.287 365.101 L 301.745 362.805 303.591 338.307 C 304.606 324.833,305.406 313.722,305.368 313.616 C 305.331 313.511,301.886 324.871,297.714 338.862 C 288.650 369.255,289.493 366.613,288.358 368.167 C 286.873 370.201,285.361 371.166,282.600 371.841 L 280.300 372.403 271.300 372.001 C 258.391 371.424,256.658 370.944,253.985 367.200 L 253.057 365.900 244.379 335.149 C 237.861 312.057,235.688 304.610,235.653 305.249 C 235.627 305.717,236.579 320.348,237.770 337.762 L 239.935 369.425 239.391 371.704 C 238.387 375.907,236.263 378.016,232.030 379.012 L 229.700 379.561 201.100 379.697 L 172.500 379.834 170.304 379.296 C 166.150 378.278,164.075 376.175,163.093 371.987 L 162.557 369.700 164.372 311.500 C 165.370 279.490,166.240 252.333,166.304 251.150 C 166.421 249.003,166.421 249.000,165.961 249.011 C 165.707 249.017,136.115 254.758,100.200 261.768 L 34.900 274.514 32.541 273.952 C 28.398 272.967,26.176 270.823,25.127 266.800 L 24.580 264.700 22.964 150.000 L 21.349 35.300 21.892 32.931 C 22.982 28.167,26.778 25.137,31.800 25.021 C 32.185 25.012,64.495 28.469,103.600 32.702 M95.333 133.937 C 95.145 183.470,95.161 201.400,95.397 201.400 C 95.710 201.400,132.087 189.578,132.223 189.432 C 132.345 189.301,125.900 106.234,125.757 106.090 C 125.716 106.050,119.072 104.478,110.991 102.598 C 102.911 100.718,96.112 99.133,95.883 99.077 L 95.466 98.973 95.333 133.937 M110.916 112.488 C 113.955 113.196,116.464 113.803,116.492 113.838 C 116.597 113.967,121.829 181.789,121.766 182.201 C 121.703 182.613,116.436 184.466,106.750 187.485 L 105.200 187.968 105.200 149.584 C 105.200 128.473,105.243 111.200,105.295 111.200 C 105.347 111.200,107.876 111.779,110.916 112.488 " stroke="none" fill="#fbfbfb" fill-rule="evenodd"></path><path id="path1" d="M28.998 25.569 C 24.965 26.588,22.840 28.790,21.892 32.931 L 21.349 35.300 22.964 150.000 L 24.580 264.700 25.127 266.800 C 26.176 270.823,28.398 272.967,32.541 273.952 L 34.900 274.514 100.200 261.768 C 136.115 254.758,165.707 249.017,165.961 249.011 C 166.421 249.000,166.421 249.003,166.304 251.150 C 166.240 252.333,165.370 279.490,164.372 311.500 L 162.557 369.700 163.093 371.987 C 164.075 376.175,166.150 378.278,170.304 379.296 L 172.500 379.834 201.100 379.697 L 229.700 379.561 232.030 379.012 C 236.263 378.016,238.387 375.907,239.391 371.704 L 239.935 369.425 237.770 337.762 C 236.579 320.348,235.627 305.717,235.653 305.249 C 235.688 304.610,237.861 312.057,244.379 335.149 L 253.057 365.900 253.985 367.200 C 256.658 370.944,258.391 371.424,271.300 372.001 L 280.300 372.403 282.600 371.841 C 285.361 371.166,286.873 370.201,288.358 368.167 C 289.493 366.613,288.650 369.255,297.714 338.862 C 301.886 324.871,305.331 313.511,305.368 313.616 C 305.406 313.722,304.606 324.833,303.591 338.307 L 301.745 362.805 302.287 365.101 C 302.824 367.371,303.821 369.236,304.984 370.147 C 306.746 371.526,307.471 371.876,309.642 372.392 L 311.900 372.930 340.729 372.659 L 369.557 372.388 371.829 371.832 C 375.987 370.814,378.153 368.634,379.133 364.484 L 379.649 362.297 374.923 252.099 L 370.196 141.900 369.609 139.165 C 368.617 134.544,366.622 132.472,362.140 131.408 L 359.700 130.829 329.100 130.184 L 298.500 129.540 296.309 130.066 C 292.315 131.024,289.978 133.261,289.062 137.000 C 288.806 138.045,284.986 156.135,280.573 177.200 C 276.161 198.265,272.490 215.567,272.417 215.648 C 272.343 215.730,268.552 199.948,263.992 180.577 L 255.700 145.357 254.700 143.980 C 253.129 141.817,251.628 140.848,248.800 140.172 L 246.500 139.622 220.444 139.839 C 206.114 139.958,194.329 139.996,194.257 139.924 C 194.185 139.851,191.942 119.759,189.273 95.273 C 183.829 45.337,184.081 47.166,182.323 44.701 C 180.851 42.639,179.190 41.522,176.647 40.886 C 174.790 40.421,33.769 24.976,31.800 25.021 C 31.415 25.030,30.154 25.276,28.998 25.569 M103.000 42.822 C 141.995 47.023,173.971 50.523,174.058 50.599 C 174.208 50.729,193.994 231.437,193.997 232.700 L 193.998 233.300 114.449 248.815 C 70.697 257.348,34.863 264.301,34.817 264.265 C 34.739 264.205,31.626 44.916,31.608 38.250 C 31.602 35.943,31.661 35.198,31.850 35.192 C 31.988 35.188,64.005 38.621,103.000 42.822 M85.133 130.830 C 84.998 175.949,84.959 215.401,85.050 215.399 C 85.078 215.399,98.105 211.183,114.000 206.030 L 142.900 196.663 142.955 195.981 C 143.007 195.330,135.463 98.190,135.353 98.093 C 135.324 98.068,124.185 95.464,110.600 92.308 C 97.015 89.152,85.757 86.531,85.583 86.482 C 85.295 86.402,85.254 90.420,85.133 130.830 M110.991 102.598 C 119.072 104.478,125.716 106.050,125.757 106.090 C 125.900 106.234,132.345 189.301,132.223 189.432 C 132.087 189.578,95.710 201.400,95.397 201.400 C 95.161 201.400,95.145 183.470,95.333 133.937 L 95.466 98.973 95.883 99.077 C 96.112 99.133,102.911 100.718,110.991 102.598 M330.200 140.218 C 346.535 140.564,359.951 140.904,360.014 140.974 C 360.149 141.123,369.686 362.181,369.562 362.304 C 369.464 362.403,311.938 362.971,311.822 362.875 C 311.779 362.839,314.102 331.488,316.986 293.204 C 319.869 254.921,322.199 223.414,322.164 223.188 C 322.129 222.962,312.748 254.098,301.318 292.379 C 289.887 330.660,280.477 362.076,280.405 362.192 C 280.296 362.368,262.257 361.730,262.080 361.544 C 262.057 361.520,252.422 327.482,240.669 285.903 C 225.446 232.051,219.286 210.536,219.252 211.103 C 219.225 211.542,221.622 247.360,224.577 290.700 C 227.533 334.040,229.939 369.513,229.925 369.528 C 229.911 369.544,217.007 369.623,201.250 369.704 L 172.600 369.851 172.599 369.175 C 172.595 366.086,176.452 247.072,176.559 246.977 C 176.637 246.908,180.480 246.118,185.100 245.221 C 197.236 242.865,198.342 242.583,199.940 241.435 C 201.987 239.963,203.051 238.336,203.684 235.709 C 204.367 232.876,204.753 237.225,199.718 191.100 C 197.257 168.550,195.255 150.088,195.271 150.073 C 195.391 149.960,246.522 149.645,246.624 149.756 C 246.697 149.835,252.635 174.852,259.820 205.348 C 267.005 235.845,272.938 260.730,273.006 260.648 C 273.073 260.567,278.777 233.500,285.682 200.500 C 292.586 167.500,298.282 140.297,298.339 140.050 C 298.470 139.486,294.757 139.466,330.200 140.218 " stroke="none" fill="#33c404" fill-rule="evenodd"></path><path id="path2" d="M31.608 38.250 C 31.626 44.916,34.739 264.205,34.817 264.265 C 34.863 264.301,70.697 257.348,114.449 248.815 L 193.998 233.300 193.997 232.700 C 193.994 231.437,174.208 50.729,174.058 50.599 C 173.925 50.482,32.576 35.169,31.850 35.192 C 31.661 35.198,31.602 35.943,31.608 38.250 M110.600 92.308 C 124.185 95.464,135.324 98.068,135.353 98.093 C 135.463 98.190,143.007 195.330,142.955 195.981 L 142.900 196.663 114.000 206.030 C 98.105 211.183,85.078 215.399,85.050 215.399 C 84.959 215.401,84.998 175.949,85.133 130.830 C 85.254 90.420,85.295 86.402,85.583 86.482 C 85.757 86.531,97.015 89.152,110.600 92.308 M298.339 140.050 C 298.282 140.297,292.586 167.500,285.682 200.500 C 278.777 233.500,273.073 260.567,273.006 260.648 C 272.938 260.730,267.005 235.845,259.820 205.348 C 252.635 174.852,246.697 149.835,246.624 149.756 C 246.522 149.645,195.391 149.960,195.271 150.073 C 195.255 150.088,197.257 168.550,199.718 191.100 C 204.753 237.225,204.367 232.876,203.684 235.709 C 203.051 238.336,201.987 239.963,199.940 241.435 C 198.342 242.583,197.236 242.865,185.100 245.221 C 180.480 246.118,176.637 246.908,176.559 246.977 C 176.452 247.072,172.595 366.086,172.599 369.175 L 172.600 369.851 201.250 369.704 C 217.007 369.623,229.911 369.544,229.925 369.528 C 229.939 369.513,227.533 334.040,224.577 290.700 C 221.622 247.360,219.225 211.542,219.252 211.103 C 219.286 210.536,225.446 232.051,240.669 285.903 C 252.422 327.482,262.057 361.520,262.080 361.544 C 262.257 361.730,280.296 362.368,280.405 362.192 C 280.477 362.076,289.887 330.660,301.318 292.379 C 312.748 254.098,322.129 222.962,322.164 223.188 C 322.199 223.414,319.869 254.921,316.986 293.204 C 314.102 331.488,311.779 362.839,311.822 362.875 C 311.938 362.971,369.464 362.403,369.562 362.304 C 369.686 362.181,360.149 141.123,360.014 140.974 C 359.921 140.871,302.994 139.574,299.472 139.594 C 298.572 139.599,298.430 139.656,298.339 140.050 " stroke="none" fill="#04fb04" fill-rule="evenodd"></path></g></svg>