<svg id="svg" version="1.1" xmlns="http://www.w3.org/2000/svg" xmlns:xlink="http://www.w3.org/1999/xlink" width="400" height="400" viewBox="0, 0, 400,400"><g id="svgg"><path id="path0" d="M189.700 0.821 C 156.589 2.390,124.725 12.037,96.439 29.056 C 94.426 30.267,92.851 31.321,92.939 31.396 C 93.028 31.472,111.325 33.496,133.600 35.894 C 173.906 40.233,176.769 40.588,178.733 41.488 C 179.283 41.740,179.783 41.741,182.533 41.501 C 198.776 40.081,216.471 40.851,233.124 43.704 C 248.793 46.388,280.003 60.675,294.000 71.572 C 305.781 80.744,317.375 92.275,326.947 104.341 C 330.838 109.245,335.886 117.470,340.871 127.030 L 342.608 130.360 345.054 130.477 C 346.399 130.541,350.310 130.649,353.746 130.717 C 365.216 130.944,368.210 132.506,369.649 139.018 L 370.197 141.500 373.407 216.292 C 375.173 257.428,376.645 291.111,376.677 291.144 C 376.899 291.366,382.194 279.694,384.594 273.693 C 396.060 245.023,400.674 212.851,397.787 181.704 C 387.930 75.365,296.362 -4.233,189.700 0.821 M19.748 112.950 C 9.215 134.496,3.093 156.493,0.559 181.900 C -0.071 188.214,-0.133 210.783,0.461 217.200 C 9.356 313.197,83.440 388.633,178.400 398.385 C 186.407 399.207,188.516 399.300,199.200 399.300 C 209.884 399.300,211.993 399.207,220.000 398.385 C 247.537 395.557,274.483 386.877,298.300 373.163 C 305.079 369.259,304.512 369.782,303.495 368.367 C 302.696 367.255,301.798 364.034,301.804 362.300 C 301.805 361.750,302.517 351.895,303.386 340.400 C 304.254 328.905,304.925 319.459,304.875 319.410 C 304.826 319.360,304.394 319.720,303.914 320.210 L 303.043 321.100 296.229 343.943 L 289.415 366.786 288.427 368.143 C 286.878 370.272,285.380 371.232,282.574 371.895 L 280.288 372.435 271.094 372.016 C 258.488 371.441,256.733 370.979,254.171 367.568 C 253.042 366.065,253.213 366.537,251.111 359.087 C 250.058 355.354,249.157 352.194,249.110 352.064 C 249.051 351.905,247.609 352.301,244.630 353.294 C 242.213 354.101,239.958 354.821,239.618 354.896 C 239.278 354.971,239.000 355.047,239.000 355.066 C 239.000 355.085,239.220 358.340,239.489 362.300 L 239.977 369.500 239.437 371.749 C 238.451 375.852,236.253 378.050,232.149 379.037 L 229.900 379.579 201.100 379.711 L 172.300 379.842 170.205 379.323 C 166.156 378.319,164.050 376.186,163.065 372.091 L 162.537 369.900 162.743 363.000 C 162.856 359.205,162.924 356.071,162.894 356.037 C 162.864 356.002,162.268 355.849,161.570 355.697 C 151.112 353.424,129.614 344.155,115.800 335.964 C 100.415 326.842,84.872 312.714,71.172 295.400 C 67.595 290.879,61.150 280.271,57.209 272.418 C 56.310 270.627,56.142 270.406,55.747 270.495 C 55.501 270.550,50.706 271.487,45.091 272.578 L 34.882 274.561 32.563 274.007 C 28.072 272.934,26.025 270.809,24.998 266.155 L 24.413 263.500 23.398 187.300 C 22.839 145.390,22.386 110.447,22.391 109.650 C 22.404 107.583,22.321 107.686,19.748 112.950 " stroke="none" fill="#fb0404" fill-rule="evenodd"></path><path id="path1" d="M189.832 40.998 C 185.543 41.229,180.401 41.634,179.830 41.787 C 179.375 41.909,179.400 41.951,180.325 42.590 C 180.875 42.970,181.748 43.892,182.327 44.705 C 184.080 47.166,183.842 45.432,189.282 95.346 C 191.946 119.791,194.186 139.852,194.259 139.926 C 194.333 139.999,206.117 139.964,220.446 139.846 L 246.500 139.633 248.811 140.186 C 251.650 140.865,253.131 141.819,254.700 143.980 L 255.700 145.357 263.992 180.577 C 268.552 199.948,272.344 215.730,272.418 215.648 C 272.492 215.567,276.162 198.265,280.574 177.200 C 284.986 156.135,288.806 138.045,289.062 137.000 C 289.977 133.264,292.316 131.024,296.300 130.068 L 298.483 129.544 319.092 129.969 C 330.426 130.204,340.870 130.426,342.300 130.464 C 343.730 130.502,344.387 130.499,343.760 130.458 L 342.619 130.381 340.877 127.041 C 337.584 120.727,334.785 115.886,331.160 110.237 C 322.932 97.414,302.516 76.935,289.400 68.351 C 274.509 58.604,257.448 50.648,239.724 45.187 C 234.744 43.652,223.516 42.029,212.100 41.194 C 208.237 40.911,193.811 40.785,189.832 40.998 M95.333 133.937 C 95.143 184.015,95.160 201.400,95.403 201.400 C 95.723 201.400,132.086 189.582,132.223 189.433 C 132.346 189.300,125.903 106.236,125.759 106.092 C 125.717 106.050,119.072 104.478,110.991 102.598 C 102.911 100.718,96.112 99.133,95.883 99.077 L 95.466 98.973 95.333 133.937 M22.479 118.100 C 22.479 119.640,22.511 120.244,22.549 119.441 C 22.587 118.639,22.586 117.379,22.548 116.641 C 22.510 115.904,22.479 116.560,22.479 118.100 M22.679 132.500 C 22.679 134.040,22.711 134.644,22.749 133.841 C 22.787 133.039,22.786 131.779,22.748 131.041 C 22.710 130.304,22.679 130.960,22.679 132.500 M351.656 130.747 C 352.182 130.789,352.992 130.788,353.456 130.746 C 353.920 130.704,353.490 130.670,352.500 130.671 C 351.510 130.672,351.130 130.706,351.656 130.747 M370.046 141.400 C 370.046 141.785,370.088 141.942,370.138 141.750 C 370.188 141.558,370.188 141.243,370.138 141.050 C 370.088 140.858,370.046 141.015,370.046 141.400 M22.879 146.900 C 22.879 148.440,22.911 149.044,22.949 148.241 C 22.987 147.439,22.986 146.179,22.948 145.441 C 22.910 144.704,22.879 145.360,22.879 146.900 M370.257 145.700 C 370.259 146.250,370.298 146.451,370.344 146.147 C 370.389 145.843,370.388 145.393,370.341 145.147 C 370.293 144.901,370.256 145.150,370.257 145.700 M370.457 150.300 C 370.459 150.850,370.498 151.051,370.544 150.747 C 370.589 150.443,370.588 149.993,370.541 149.747 C 370.493 149.501,370.456 149.750,370.457 150.300 M370.657 154.900 C 370.659 155.450,370.698 155.651,370.744 155.347 C 370.789 155.043,370.788 154.593,370.741 154.347 C 370.693 154.101,370.656 154.350,370.657 154.900 M23.079 161.300 C 23.079 162.840,23.111 163.444,23.149 162.641 C 23.187 161.839,23.186 160.579,23.148 159.841 C 23.110 159.104,23.079 159.760,23.079 161.300 M370.857 159.500 C 370.859 160.050,370.898 160.251,370.944 159.947 C 370.989 159.643,370.988 159.193,370.941 158.947 C 370.893 158.701,370.856 158.950,370.857 159.500 M371.054 164.200 C 371.054 164.695,371.093 164.898,371.141 164.650 C 371.189 164.403,371.189 163.998,371.141 163.750 C 371.093 163.503,371.054 163.705,371.054 164.200 M371.254 168.800 C 371.254 169.295,371.293 169.498,371.341 169.250 C 371.389 169.003,371.389 168.597,371.341 168.350 C 371.293 168.103,371.254 168.305,371.254 168.800 M371.457 173.500 C 371.459 174.050,371.498 174.251,371.544 173.947 C 371.589 173.643,371.588 173.193,371.541 172.947 C 371.493 172.701,371.456 172.950,371.457 173.500 M23.279 175.700 C 23.279 177.240,23.311 177.844,23.349 177.041 C 23.387 176.239,23.386 174.979,23.348 174.241 C 23.310 173.504,23.279 174.160,23.279 175.700 M371.657 178.100 C 371.659 178.650,371.698 178.851,371.744 178.547 C 371.789 178.243,371.788 177.793,371.741 177.547 C 371.693 177.301,371.656 177.550,371.657 178.100 M371.857 182.700 C 371.859 183.250,371.898 183.451,371.944 183.147 C 371.989 182.843,371.988 182.393,371.941 182.147 C 371.893 181.901,371.856 182.150,371.857 182.700 M372.057 187.300 C 372.059 187.850,372.098 188.051,372.144 187.747 C 372.189 187.443,372.188 186.993,372.141 186.747 C 372.093 186.501,372.056 186.750,372.057 187.300 M23.479 190.000 C 23.479 191.595,23.511 192.248,23.549 191.450 C 23.586 190.653,23.586 189.347,23.549 188.550 C 23.511 187.753,23.479 188.405,23.479 190.000 M372.254 192.000 C 372.254 192.495,372.293 192.697,372.341 192.450 C 372.389 192.203,372.389 191.798,372.341 191.550 C 372.293 191.303,372.254 191.505,372.254 192.000 M372.454 196.600 C 372.454 197.095,372.493 197.298,372.541 197.050 C 372.589 196.803,372.589 196.398,372.541 196.150 C 372.493 195.903,372.454 196.105,372.454 196.600 M372.657 201.300 C 372.659 201.850,372.698 202.051,372.744 201.747 C 372.789 201.443,372.788 200.993,372.741 200.747 C 372.693 200.501,372.656 200.750,372.657 201.300 M23.679 204.300 C 23.679 205.840,23.711 206.444,23.749 205.641 C 23.787 204.839,23.786 203.579,23.748 202.841 C 23.710 202.104,23.679 202.760,23.679 204.300 M372.857 205.900 C 372.859 206.450,372.898 206.651,372.944 206.347 C 372.989 206.043,372.988 205.593,372.941 205.347 C 372.893 205.101,372.856 205.350,372.857 205.900 M373.057 210.500 C 373.059 211.050,373.098 211.251,373.144 210.947 C 373.189 210.643,373.188 210.193,373.141 209.947 C 373.093 209.701,373.056 209.950,373.057 210.500 M373.257 215.100 C 373.259 215.650,373.298 215.851,373.344 215.547 C 373.389 215.243,373.388 214.793,373.341 214.547 C 373.293 214.301,373.256 214.550,373.257 215.100 M23.879 218.700 C 23.879 220.240,23.911 220.844,23.949 220.041 C 23.987 219.239,23.986 217.979,23.948 217.241 C 23.910 216.504,23.879 217.160,23.879 218.700 M373.457 219.700 C 373.459 220.250,373.498 220.451,373.544 220.147 C 373.589 219.843,373.588 219.393,373.541 219.147 C 373.493 218.901,373.456 219.150,373.457 219.700 M373.654 224.400 C 373.654 224.895,373.693 225.097,373.741 224.850 C 373.789 224.603,373.789 224.197,373.741 223.950 C 373.693 223.703,373.654 223.905,373.654 224.400 M373.857 229.100 C 373.859 229.650,373.898 229.851,373.944 229.547 C 373.989 229.243,373.988 228.793,373.941 228.547 C 373.893 228.301,373.856 228.550,373.857 229.100 M24.079 233.100 C 24.079 234.640,24.111 235.244,24.149 234.441 C 24.187 233.639,24.186 232.379,24.148 231.641 C 24.110 230.904,24.079 231.560,24.079 233.100 M374.057 233.700 C 374.059 234.250,374.098 234.451,374.144 234.147 C 374.189 233.843,374.188 233.393,374.141 233.147 C 374.093 232.901,374.056 233.150,374.057 233.700 M374.257 238.300 C 374.259 238.850,374.298 239.051,374.344 238.747 C 374.389 238.443,374.388 237.993,374.341 237.747 C 374.293 237.501,374.256 237.750,374.257 238.300 M374.457 242.900 C 374.459 243.450,374.498 243.651,374.544 243.347 C 374.589 243.043,374.588 242.593,374.541 242.347 C 374.493 242.101,374.456 242.350,374.457 242.900 M24.279 247.500 C 24.279 249.040,24.311 249.644,24.349 248.841 C 24.387 248.039,24.386 246.779,24.348 246.041 C 24.310 245.304,24.279 245.960,24.279 247.500 M374.657 247.500 C 374.659 248.050,374.698 248.251,374.744 247.947 C 374.789 247.643,374.788 247.193,374.741 246.947 C 374.693 246.701,374.656 246.950,374.657 247.500 M110.800 259.704 C 80.825 265.570,56.277 270.376,56.248 270.384 C 55.798 270.521,64.455 285.703,68.042 291.067 C 76.679 303.983,97.200 324.223,109.800 332.252 C 124.830 341.829,139.643 348.787,156.600 354.233 C 159.989 355.321,162.797 356.070,162.943 355.924 C 162.975 355.892,163.715 333.013,164.587 305.083 C 165.459 277.152,166.226 253.107,166.292 251.650 L 166.410 249.000 165.855 249.020 C 165.550 249.031,140.775 253.839,110.800 259.704 M374.854 252.200 C 374.854 252.695,374.893 252.898,374.941 252.650 C 374.989 252.403,374.989 251.998,374.941 251.750 C 374.893 251.503,374.854 251.705,374.854 252.200 M375.057 256.900 C 375.059 257.450,375.098 257.651,375.144 257.347 C 375.189 257.043,375.188 256.593,375.141 256.347 C 375.093 256.101,375.056 256.350,375.057 256.900 M24.478 261.700 C 24.478 263.130,24.510 263.689,24.548 262.942 C 24.587 262.195,24.587 261.025,24.548 260.342 C 24.509 259.659,24.477 260.270,24.478 261.700 M375.257 261.500 C 375.259 262.050,375.298 262.251,375.344 261.947 C 375.389 261.643,375.388 261.193,375.341 260.947 C 375.293 260.701,375.256 260.950,375.257 261.500 M375.457 266.100 C 375.459 266.650,375.498 266.851,375.544 266.547 C 375.589 266.243,375.588 265.793,375.541 265.547 C 375.493 265.301,375.456 265.550,375.457 266.100 M375.657 270.700 C 375.659 271.250,375.698 271.451,375.744 271.147 C 375.789 270.843,375.788 270.393,375.741 270.147 C 375.693 269.901,375.656 270.150,375.657 270.700 M375.857 275.300 C 375.859 275.850,375.898 276.051,375.944 275.747 C 375.989 275.443,375.988 274.993,375.941 274.747 C 375.893 274.501,375.856 274.750,375.857 275.300 M376.054 280.000 C 376.054 280.495,376.093 280.697,376.141 280.450 C 376.189 280.203,376.189 279.798,376.141 279.550 C 376.093 279.303,376.054 279.505,376.054 280.000 M376.257 284.700 C 376.259 285.250,376.298 285.451,376.344 285.147 C 376.389 284.843,376.388 284.393,376.341 284.147 C 376.293 283.901,376.256 284.150,376.257 284.700 M376.457 289.300 C 376.459 289.850,376.498 290.051,376.544 289.747 C 376.589 289.443,376.588 288.993,376.541 288.747 C 376.493 288.501,376.456 288.750,376.457 289.300 M235.615 305.000 C 235.595 305.841,238.757 352.928,238.917 354.163 C 239.054 355.223,238.678 355.280,244.607 353.302 C 247.011 352.500,249.032 351.899,249.099 351.966 C 249.166 352.033,249.172 351.956,249.113 351.794 C 249.053 351.632,246.031 340.970,242.397 328.100 C 234.972 301.808,235.637 304.072,235.615 305.000 M304.850 314.933 C 304.602 315.795,304.089 317.527,303.709 318.782 L 303.019 321.064 303.956 320.182 C 304.471 319.697,304.917 319.293,304.946 319.284 C 305.043 319.254,305.438 314.044,305.368 313.703 C 305.331 313.518,305.097 314.071,304.850 314.933 M304.246 328.800 C 304.246 329.185,304.288 329.343,304.338 329.150 C 304.388 328.957,304.388 328.643,304.338 328.450 C 304.288 328.257,304.246 328.415,304.246 328.800 M302.846 347.400 C 302.846 347.785,302.888 347.943,302.938 347.750 C 302.988 347.558,302.988 347.243,302.938 347.050 C 302.888 346.858,302.846 347.015,302.846 347.400 M239.046 357.000 C 239.046 357.385,239.088 357.543,239.138 357.350 C 239.188 357.158,239.188 356.843,239.138 356.650 C 239.088 356.457,239.046 356.615,239.046 357.000 M162.864 358.800 C 162.864 359.515,162.900 359.808,162.945 359.450 C 162.989 359.093,162.989 358.507,162.945 358.150 C 162.900 357.793,162.864 358.085,162.864 358.800 M239.246 360.000 C 239.246 360.385,239.288 360.543,239.338 360.350 C 239.388 360.158,239.388 359.843,239.338 359.650 C 239.288 359.457,239.246 359.615,239.246 360.000 M239.446 363.000 C 239.446 363.385,239.488 363.543,239.538 363.350 C 239.588 363.158,239.588 362.843,239.538 362.650 C 239.488 362.457,239.446 362.615,239.446 363.000 M162.664 365.200 C 162.664 365.915,162.700 366.207,162.745 365.850 C 162.789 365.493,162.789 364.908,162.745 364.550 C 162.700 364.193,162.664 364.485,162.664 365.200 M239.854 369.000 C 239.854 369.495,239.893 369.697,239.941 369.450 C 239.989 369.203,239.989 368.798,239.941 368.550 C 239.893 368.303,239.854 368.505,239.854 369.000 M263.950 371.741 C 264.197 371.789,264.603 371.789,264.850 371.741 C 265.098 371.693,264.895 371.654,264.400 371.654 C 263.905 371.654,263.703 371.693,263.950 371.741 M268.550 371.941 C 268.798 371.989,269.203 371.989,269.450 371.941 C 269.697 371.893,269.495 371.854,269.000 371.854 C 268.505 371.854,268.303 371.893,268.550 371.941 M273.150 372.141 C 273.397 372.189,273.803 372.189,274.050 372.141 C 274.298 372.093,274.095 372.054,273.600 372.054 C 273.105 372.054,272.903 372.093,273.150 372.141 M277.750 372.341 C 277.998 372.389,278.403 372.389,278.650 372.341 C 278.897 372.293,278.695 372.254,278.200 372.254 C 277.705 372.254,277.502 372.293,277.750 372.341 M197.450 379.750 C 199.733 379.782,203.468 379.782,205.750 379.750 C 208.033 379.718,206.165 379.691,201.600 379.691 C 197.035 379.691,195.168 379.718,197.450 379.750 " stroke="none" fill="#830404" fill-rule="evenodd"></path><path id="path2" d="M29.245 25.382 C 24.926 26.452,22.825 28.576,21.797 32.912 L 21.243 35.250 21.706 68.575 C 21.961 86.904,22.275 106.625,22.403 112.400 C 22.530 118.175,23.077 154.760,23.617 193.700 L 24.599 264.500 25.150 266.700 C 26.285 271.231,30.291 274.397,34.894 274.400 C 35.355 274.400,39.775 273.544,111.409 259.584 C 141.278 253.763,165.874 249.000,166.066 249.000 C 166.386 249.000,166.405 249.213,166.296 251.550 C 166.230 252.953,165.465 277.095,164.594 305.200 C 163.724 333.305,162.914 359.301,162.795 362.969 L 162.578 369.639 163.115 371.969 C 164.077 376.146,166.244 378.318,170.409 379.279 L 172.719 379.812 201.109 379.684 L 229.500 379.557 231.937 378.987 C 236.905 377.824,239.791 374.122,239.801 368.900 C 239.804 367.820,239.817 368.015,237.289 330.700 C 236.350 316.840,235.609 305.249,235.641 304.942 C 235.674 304.630,237.984 312.471,240.884 322.742 C 253.420 367.133,253.026 365.806,254.083 367.287 C 256.662 370.900,258.663 371.441,271.500 371.988 L 280.300 372.364 282.525 371.832 C 285.327 371.162,286.982 370.092,288.438 368.009 C 289.363 366.686,289.472 366.346,296.277 343.583 C 306.576 309.135,305.595 312.043,305.199 317.121 C 305.088 318.540,304.272 329.406,303.386 341.269 L 301.774 362.837 302.303 365.049 C 303.333 369.358,305.457 371.519,309.610 372.484 L 311.921 373.021 340.910 372.733 L 369.900 372.445 371.968 371.921 C 376.021 370.895,378.261 368.609,379.220 364.519 L 379.744 362.289 378.184 326.894 C 377.326 307.427,375.137 257.570,373.319 216.100 C 369.589 131.024,370.029 138.023,368.247 135.436 C 365.702 131.741,363.172 130.913,353.900 130.741 C 350.710 130.682,336.937 130.388,323.294 130.088 L 298.489 129.543 296.303 130.067 C 292.315 131.024,289.977 133.263,289.062 137.000 C 288.806 138.045,284.986 156.135,280.574 177.200 C 276.162 198.265,272.492 215.567,272.418 215.648 C 272.344 215.730,268.552 199.948,263.992 180.577 L 255.700 145.357 254.700 143.980 C 253.131 141.819,251.650 140.865,248.811 140.186 L 246.500 139.633 220.446 139.846 C 206.117 139.964,194.333 139.999,194.259 139.926 C 194.186 139.852,191.946 119.791,189.282 95.346 C 183.842 45.430,184.080 47.165,182.327 44.707 C 180.820 42.595,179.249 41.557,176.575 40.909 C 174.972 40.520,165.239 39.403,133.800 35.999 C 111.415 33.575,92.605 31.503,92.000 31.393 C 91.208 31.248,43.316 26.045,32.400 24.916 C 31.810 24.855,30.724 25.016,29.245 25.382 M103.593 42.815 C 142.364 46.997,174.131 50.464,174.187 50.520 C 174.293 50.627,194.237 233.233,194.150 233.312 C 194.051 233.401,34.755 264.422,34.703 264.362 C 34.674 264.328,33.967 214.305,33.131 153.200 C 32.296 92.095,31.568 40.497,31.513 38.539 L 31.413 34.977 32.256 35.094 C 32.720 35.158,64.822 38.632,103.593 42.815 M85.148 150.950 C 85.085 186.343,85.049 215.307,85.067 215.315 C 85.097 215.329,142.179 196.801,142.754 196.590 C 142.953 196.517,135.996 104.409,135.354 98.617 C 135.306 98.189,87.505 86.655,85.581 86.608 C 85.291 86.601,85.253 92.265,85.148 150.950 M110.991 102.598 C 119.072 104.478,125.717 106.050,125.759 106.092 C 125.903 106.236,132.346 189.300,132.223 189.433 C 132.086 189.582,95.723 201.400,95.403 201.400 C 95.160 201.400,95.143 184.015,95.333 133.937 L 95.466 98.973 95.883 99.077 C 96.112 99.133,102.911 100.718,110.991 102.598 M332.580 140.209 C 347.693 140.530,360.085 140.818,360.117 140.850 C 360.207 140.941,369.751 362.290,369.669 362.386 C 369.588 362.480,311.779 363.049,311.696 362.957 C 311.668 362.926,314.018 331.445,316.918 293.000 C 319.818 254.555,322.189 223.055,322.186 223.000 C 322.183 222.945,312.812 254.265,301.361 292.600 C 289.909 330.935,280.509 362.337,280.471 362.382 C 280.326 362.555,262.206 361.685,262.042 361.496 C 261.947 361.388,252.292 327.400,240.585 285.967 C 228.878 244.533,219.284 210.650,219.264 210.669 C 219.244 210.689,221.657 246.421,224.626 290.074 C 227.595 333.727,229.978 369.488,229.923 369.544 C 229.785 369.681,172.731 369.944,172.581 369.808 C 172.453 369.692,176.285 247.048,176.421 246.913 C 176.466 246.868,180.237 246.101,184.801 245.209 C 197.598 242.709,198.303 242.529,199.884 241.368 C 202.052 239.776,203.022 238.251,203.673 235.412 L 204.213 233.052 199.694 191.605 C 197.209 168.809,195.218 150.116,195.270 150.064 C 195.391 149.943,246.581 149.514,246.700 149.633 C 246.749 149.682,252.664 174.663,259.844 205.147 C 268.627 242.433,272.948 260.429,273.046 260.136 C 273.126 259.896,278.818 232.835,285.694 200.000 C 292.570 167.165,298.243 140.102,298.300 139.859 C 298.402 139.421,298.425 139.419,301.752 139.522 C 303.593 139.579,317.466 139.888,332.580 140.209 " stroke="none" fill="#1c6b04" fill-rule="evenodd"></path><path id="path3" d="M31.607 37.750 C 31.624 43.805,34.753 264.217,34.823 264.270 C 34.865 264.302,70.697 257.347,114.449 248.814 L 193.997 233.300 193.999 232.758 C 194.002 231.575,174.203 50.725,174.057 50.598 C 173.924 50.484,32.572 35.170,31.850 35.192 C 31.663 35.198,31.602 35.844,31.607 37.750 M110.700 92.317 C 124.230 95.467,135.324 98.065,135.353 98.092 C 135.464 98.191,143.008 195.334,142.956 195.984 L 142.900 196.668 114.000 206.034 C 98.105 211.185,85.078 215.399,85.050 215.400 C 84.955 215.400,85.001 166.059,85.133 126.319 L 85.266 86.371 85.683 86.481 C 85.912 86.541,97.170 89.167,110.700 92.317 M298.340 140.050 C 298.283 140.297,292.588 167.500,285.683 200.500 C 278.779 233.500,273.074 260.567,273.005 260.649 C 272.937 260.732,267.003 235.847,259.818 205.349 C 252.633 174.852,246.697 149.838,246.627 149.763 C 246.529 149.657,195.372 149.967,195.277 150.074 C 195.265 150.088,197.293 168.775,199.784 191.600 L 204.314 233.100 203.748 235.476 C 203.061 238.365,202.118 239.864,200.019 241.408 C 198.398 242.600,197.480 242.836,185.200 245.211 C 180.525 246.115,176.638 246.910,176.562 246.977 C 176.401 247.120,172.520 369.587,172.672 369.738 C 172.728 369.794,185.642 369.773,201.369 369.692 L 229.965 369.543 229.873 368.522 C 229.566 365.140,219.199 211.390,219.244 210.900 C 219.277 210.553,228.309 242.172,240.670 285.900 C 252.423 327.480,262.056 361.518,262.077 361.540 C 262.236 361.714,280.303 362.357,280.405 362.192 C 280.473 362.082,289.883 330.665,301.315 292.378 C 312.747 254.091,322.129 222.956,322.165 223.190 C 322.201 223.423,319.870 254.933,316.987 293.213 C 314.104 331.492,311.779 362.837,311.822 362.869 C 311.940 362.957,369.473 362.394,369.563 362.304 C 369.673 362.194,360.122 141.196,360.000 141.012 C 359.924 140.897,302.648 139.562,299.172 139.593 C 298.583 139.599,298.424 139.686,298.340 140.050 " stroke="none" fill="#04fb04" fill-rule="evenodd"></path><path id="path4" d="M31.437 36.150 L 31.474 37.300 31.547 36.263 C 31.601 35.495,31.708 35.202,31.960 35.136 C 32.204 35.072,32.173 35.040,31.850 35.023 C 31.429 35.001,31.402 35.074,31.437 36.150 M31.681 48.500 C 31.681 50.260,31.712 50.953,31.749 50.041 C 31.786 49.128,31.786 47.688,31.748 46.841 C 31.711 45.993,31.681 46.740,31.681 48.500 M31.881 62.900 C 31.881 64.660,31.912 65.353,31.949 64.441 C 31.986 63.528,31.986 62.088,31.948 61.241 C 31.911 60.393,31.881 61.140,31.881 62.900 M32.081 77.200 C 32.081 79.015,32.112 79.758,32.149 78.850 C 32.186 77.942,32.186 76.458,32.149 75.550 C 32.112 74.642,32.081 75.385,32.081 77.200 M32.281 91.600 C 32.281 93.415,32.312 94.158,32.349 93.250 C 32.386 92.343,32.386 90.858,32.349 89.950 C 32.312 89.043,32.281 89.785,32.281 91.600 M135.646 102.400 C 135.646 102.785,135.688 102.942,135.738 102.750 C 135.788 102.558,135.788 102.243,135.738 102.050 C 135.688 101.858,135.646 102.015,135.646 102.400 M32.481 106.000 C 32.481 107.815,32.512 108.558,32.549 107.650 C 32.586 106.743,32.586 105.258,32.549 104.350 C 32.512 103.442,32.481 104.185,32.481 106.000 M135.846 105.000 C 135.846 105.385,135.888 105.543,135.938 105.350 C 135.988 105.158,135.988 104.843,135.938 104.650 C 135.888 104.458,135.846 104.615,135.846 105.000 M136.646 115.200 C 136.646 115.585,136.688 115.743,136.738 115.550 C 136.788 115.358,136.788 115.043,136.738 114.850 C 136.688 114.658,136.646 114.815,136.646 115.200 M32.681 120.400 C 32.681 122.215,32.712 122.958,32.749 122.050 C 32.786 121.142,32.786 119.658,32.749 118.750 C 32.712 117.843,32.681 118.585,32.681 120.400 M136.846 117.800 C 136.846 118.185,136.888 118.343,136.938 118.150 C 136.988 117.958,136.988 117.642,136.938 117.450 C 136.888 117.258,136.846 117.415,136.846 117.800 M137.646 128.000 C 137.646 128.385,137.688 128.542,137.738 128.350 C 137.788 128.157,137.788 127.843,137.738 127.650 C 137.688 127.458,137.646 127.615,137.646 128.000 M137.846 130.600 C 137.846 130.985,137.888 131.143,137.938 130.950 C 137.988 130.758,137.988 130.442,137.938 130.250 C 137.888 130.058,137.846 130.215,137.846 130.600 M32.881 134.800 C 32.881 136.615,32.912 137.358,32.949 136.450 C 32.986 135.542,32.986 134.058,32.949 133.150 C 32.912 132.243,32.881 132.985,32.881 134.800 M298.850 139.543 C 299.153 139.589,299.647 139.589,299.950 139.543 C 300.252 139.497,300.005 139.460,299.400 139.460 C 298.795 139.460,298.548 139.497,298.850 139.543 M85.096 160.900 C 85.096 172.670,85.121 177.456,85.150 171.535 C 85.179 165.614,85.179 155.984,85.150 150.135 C 85.121 144.286,85.096 149.130,85.096 160.900 M306.657 139.748 C 307.294 139.788,308.284 139.787,308.857 139.747 C 309.431 139.707,308.910 139.674,307.700 139.675 C 306.490 139.675,306.021 139.708,306.657 139.748 M315.950 139.947 C 316.528 139.988,317.473 139.988,318.050 139.947 C 318.628 139.907,318.155 139.874,317.000 139.874 C 315.845 139.874,315.373 139.907,315.950 139.947 M325.150 140.147 C 325.728 140.188,326.673 140.188,327.250 140.147 C 327.828 140.107,327.355 140.074,326.200 140.074 C 325.045 140.074,324.572 140.107,325.150 140.147 M138.646 140.800 C 138.646 141.185,138.688 141.343,138.738 141.150 C 138.788 140.958,138.788 140.643,138.738 140.450 C 138.688 140.258,138.646 140.415,138.646 140.800 M334.550 140.347 C 335.128 140.388,336.072 140.388,336.650 140.347 C 337.228 140.307,336.755 140.274,335.600 140.274 C 334.445 140.274,333.973 140.307,334.550 140.347 M343.750 140.547 C 344.328 140.588,345.273 140.588,345.850 140.547 C 346.428 140.507,345.955 140.474,344.800 140.474 C 343.645 140.474,343.173 140.507,343.750 140.547 M353.057 140.748 C 353.694 140.788,354.684 140.787,355.257 140.747 C 355.831 140.707,355.310 140.674,354.100 140.675 C 352.890 140.675,352.421 140.708,353.057 140.748 M138.846 143.400 C 138.846 143.785,138.888 143.942,138.938 143.750 C 138.988 143.558,138.988 143.243,138.938 143.050 C 138.888 142.858,138.846 143.015,138.846 143.400 M360.260 144.800 C 360.260 145.405,360.297 145.653,360.343 145.350 C 360.389 145.047,360.389 144.553,360.343 144.250 C 360.297 143.947,360.260 144.195,360.260 144.800 M33.081 149.100 C 33.081 150.860,33.112 151.553,33.149 150.641 C 33.186 149.728,33.186 148.288,33.148 147.441 C 33.111 146.593,33.081 147.340,33.081 149.100 M360.460 149.400 C 360.460 150.005,360.497 150.253,360.543 149.950 C 360.589 149.648,360.589 149.153,360.543 148.850 C 360.497 148.547,360.460 148.795,360.460 149.400 M230.762 149.750 C 232.336 149.783,234.856 149.783,236.362 149.749 C 237.868 149.716,236.580 149.688,233.500 149.688 C 230.420 149.688,229.188 149.716,230.762 149.750 M205.562 149.950 C 207.136 149.983,209.656 149.983,211.162 149.949 C 212.668 149.916,211.380 149.888,208.300 149.888 C 205.220 149.888,203.988 149.916,205.562 149.950 M139.446 151.000 C 139.446 151.385,139.488 151.542,139.538 151.350 C 139.588 151.157,139.588 150.843,139.538 150.650 C 139.488 150.458,139.446 150.615,139.446 151.000 M139.646 153.600 C 139.646 153.985,139.688 154.143,139.738 153.950 C 139.788 153.758,139.788 153.442,139.738 153.250 C 139.688 153.058,139.646 153.215,139.646 153.600 M360.662 154.100 C 360.663 154.760,360.700 155.006,360.745 154.646 C 360.789 154.287,360.789 153.747,360.743 153.446 C 360.697 153.146,360.661 153.440,360.662 154.100 M139.846 156.200 C 139.846 156.585,139.888 156.743,139.938 156.550 C 139.988 156.358,139.988 156.043,139.938 155.850 C 139.888 155.658,139.846 155.815,139.846 156.200 M360.860 158.800 C 360.860 159.405,360.897 159.653,360.943 159.350 C 360.989 159.048,360.989 158.553,360.943 158.250 C 360.897 157.947,360.860 158.195,360.860 158.800 M33.281 163.500 C 33.281 165.260,33.312 165.953,33.349 165.041 C 33.386 164.128,33.386 162.688,33.348 161.841 C 33.311 160.993,33.281 161.740,33.281 163.500 M361.060 163.400 C 361.060 164.005,361.097 164.253,361.143 163.950 C 361.189 163.648,361.189 163.153,361.143 162.850 C 361.097 162.548,361.060 162.795,361.060 163.400 M140.446 163.800 C 140.446 164.185,140.488 164.343,140.538 164.150 C 140.588 163.958,140.588 163.643,140.538 163.450 C 140.488 163.258,140.446 163.415,140.446 163.800 M140.646 166.400 C 140.646 166.785,140.688 166.942,140.738 166.750 C 140.788 166.558,140.788 166.243,140.738 166.050 C 140.688 165.858,140.646 166.015,140.646 166.400 M361.260 168.000 C 361.260 168.605,361.297 168.853,361.343 168.550 C 361.389 168.248,361.389 167.753,361.343 167.450 C 361.297 167.148,361.260 167.395,361.260 168.000 M140.846 169.000 C 140.846 169.385,140.888 169.543,140.938 169.350 C 140.988 169.158,140.988 168.843,140.938 168.650 C 140.888 168.458,140.846 168.615,140.846 169.000 M361.460 172.600 C 361.460 173.205,361.497 173.453,361.543 173.150 C 361.589 172.847,361.589 172.353,361.543 172.050 C 361.497 171.748,361.460 171.995,361.460 172.600 M33.481 177.900 C 33.481 179.660,33.512 180.353,33.549 179.441 C 33.586 178.528,33.586 177.088,33.548 176.241 C 33.511 175.393,33.481 176.140,33.481 177.900 M141.446 176.600 C 141.446 176.985,141.488 177.143,141.538 176.950 C 141.588 176.758,141.588 176.442,141.538 176.250 C 141.488 176.058,141.446 176.215,141.446 176.600 M361.660 177.200 C 361.660 177.805,361.697 178.053,361.743 177.750 C 361.789 177.447,361.789 176.953,361.743 176.650 C 361.697 176.347,361.660 176.595,361.660 177.200 M141.646 179.200 C 141.646 179.585,141.688 179.743,141.738 179.550 C 141.788 179.358,141.788 179.043,141.738 178.850 C 141.688 178.658,141.646 178.815,141.646 179.200 M361.862 181.900 C 361.863 182.560,361.900 182.806,361.945 182.446 C 361.989 182.087,361.989 181.547,361.943 181.246 C 361.897 180.946,361.861 181.240,361.862 181.900 M141.846 181.800 C 141.846 182.185,141.888 182.343,141.938 182.150 C 141.988 181.958,141.988 181.643,141.938 181.450 C 141.888 181.258,141.846 181.415,141.846 181.800 M362.060 186.600 C 362.060 187.205,362.097 187.453,362.143 187.150 C 362.189 186.847,362.189 186.353,362.143 186.050 C 362.097 185.748,362.060 185.995,362.060 186.600 M142.446 189.400 C 142.446 189.785,142.488 189.942,142.538 189.750 C 142.588 189.558,142.588 189.243,142.538 189.050 C 142.488 188.858,142.446 189.015,142.446 189.400 M33.681 192.300 C 33.681 194.060,33.712 194.753,33.749 193.841 C 33.786 192.928,33.786 191.488,33.748 190.641 C 33.711 189.793,33.681 190.540,33.681 192.300 M362.260 191.200 C 362.260 191.805,362.297 192.053,362.343 191.750 C 362.389 191.447,362.389 190.953,362.343 190.650 C 362.297 190.347,362.260 190.595,362.260 191.200 M142.646 192.000 C 142.646 192.385,142.688 192.543,142.738 192.350 C 142.788 192.158,142.788 191.843,142.738 191.650 C 142.688 191.458,142.646 191.615,142.646 192.000 M142.846 194.600 C 142.846 194.985,142.888 195.143,142.938 194.950 C 142.988 194.758,142.988 194.442,142.938 194.250 C 142.888 194.058,142.846 194.215,142.846 194.600 M362.460 195.800 C 362.460 196.405,362.497 196.653,362.543 196.350 C 362.589 196.048,362.589 195.553,362.543 195.250 C 362.497 194.947,362.460 195.195,362.460 195.800 M362.660 200.400 C 362.660 201.005,362.697 201.253,362.743 200.950 C 362.789 200.648,362.789 200.153,362.743 199.850 C 362.697 199.548,362.660 199.795,362.660 200.400 M33.881 206.700 C 33.881 208.460,33.912 209.153,33.949 208.241 C 33.986 207.328,33.986 205.888,33.948 205.041 C 33.911 204.193,33.881 204.940,33.881 206.700 M362.860 205.000 C 362.860 205.605,362.897 205.853,362.943 205.550 C 362.989 205.248,362.989 204.753,362.943 204.450 C 362.897 204.148,362.860 204.395,362.860 205.000 M363.062 209.700 C 363.063 210.360,363.100 210.606,363.145 210.246 C 363.189 209.887,363.189 209.347,363.143 209.046 C 363.097 208.746,363.061 209.040,363.062 209.700 M219.246 212.400 C 219.246 212.785,219.288 212.943,219.338 212.750 C 219.388 212.558,219.388 212.243,219.338 212.050 C 219.288 211.857,219.246 212.015,219.246 212.400 M363.260 214.400 C 363.260 215.005,363.297 215.253,363.343 214.950 C 363.389 214.648,363.389 214.153,363.343 213.850 C 363.297 213.548,363.260 213.795,363.260 214.400 M219.450 215.300 C 219.453 215.740,219.494 215.896,219.541 215.648 C 219.589 215.399,219.587 215.039,219.537 214.848 C 219.487 214.656,219.448 214.860,219.450 215.300 M219.650 218.300 C 219.653 218.740,219.694 218.896,219.741 218.648 C 219.789 218.399,219.787 218.039,219.737 217.848 C 219.687 217.656,219.648 217.860,219.650 218.300 M34.081 221.100 C 34.081 222.860,34.112 223.553,34.149 222.641 C 34.186 221.728,34.186 220.288,34.148 219.441 C 34.111 218.593,34.081 219.340,34.081 221.100 M363.460 219.000 C 363.460 219.605,363.497 219.853,363.543 219.550 C 363.589 219.248,363.589 218.753,363.543 218.450 C 363.497 218.148,363.460 218.395,363.460 219.000 M219.846 221.200 C 219.846 221.585,219.888 221.743,219.938 221.550 C 219.988 221.357,219.988 221.043,219.938 220.850 C 219.888 220.657,219.846 220.815,219.846 221.200 M363.660 223.600 C 363.660 224.205,363.697 224.453,363.743 224.150 C 363.789 223.847,363.789 223.353,363.743 223.050 C 363.697 222.748,363.660 222.995,363.660 223.600 M220.046 224.200 C 220.046 224.585,220.088 224.743,220.138 224.550 C 220.188 224.357,220.188 224.043,220.138 223.850 C 220.088 223.657,220.046 223.815,220.046 224.200 M322.046 224.800 C 322.046 225.185,322.088 225.343,322.138 225.150 C 322.188 224.957,322.188 224.643,322.138 224.450 C 322.088 224.257,322.046 224.415,322.046 224.800 M220.250 227.100 C 220.253 227.540,220.294 227.696,220.341 227.448 C 220.389 227.199,220.387 226.839,220.337 226.648 C 220.287 226.456,220.248 226.660,220.250 227.100 M321.846 227.400 C 321.846 227.785,321.888 227.943,321.938 227.750 C 321.988 227.558,321.988 227.243,321.938 227.050 C 321.888 226.857,321.846 227.015,321.846 227.400 M363.860 228.200 C 363.860 228.805,363.897 229.053,363.943 228.750 C 363.989 228.447,363.989 227.953,363.943 227.650 C 363.897 227.347,363.860 227.595,363.860 228.200 M220.446 230.000 C 220.446 230.385,220.488 230.543,220.538 230.350 C 220.588 230.157,220.588 229.843,220.538 229.650 C 220.488 229.457,220.446 229.615,220.446 230.000 M321.646 230.000 C 321.646 230.385,321.688 230.543,321.738 230.350 C 321.788 230.157,321.788 229.843,321.738 229.650 C 321.688 229.457,321.646 229.615,321.646 230.000 M364.060 232.800 C 364.060 233.405,364.097 233.653,364.143 233.350 C 364.189 233.048,364.189 232.553,364.143 232.250 C 364.097 231.947,364.060 232.195,364.060 232.800 M34.281 235.400 C 34.281 237.215,34.312 237.957,34.349 237.050 C 34.386 236.143,34.386 234.657,34.349 233.750 C 34.312 232.843,34.281 233.585,34.281 235.400 M220.646 233.000 C 220.646 233.385,220.688 233.543,220.738 233.350 C 220.788 233.157,220.788 232.843,220.738 232.650 C 220.688 232.457,220.646 232.615,220.646 233.000 M321.246 235.400 C 321.246 235.785,321.288 235.943,321.338 235.750 C 321.388 235.558,321.388 235.243,321.338 235.050 C 321.288 234.857,321.246 235.015,321.246 235.400 M220.850 235.900 C 220.853 236.340,220.894 236.496,220.941 236.248 C 220.989 235.999,220.987 235.639,220.937 235.448 C 220.887 235.256,220.848 235.460,220.850 235.900 M364.260 237.400 C 364.260 238.005,364.297 238.253,364.343 237.950 C 364.389 237.648,364.389 237.153,364.343 236.850 C 364.297 236.548,364.260 236.795,364.260 237.400 M321.046 238.000 C 321.046 238.385,321.088 238.543,321.138 238.350 C 321.188 238.157,321.188 237.843,321.138 237.650 C 321.088 237.457,321.046 237.615,321.046 238.000 M221.046 238.800 C 221.046 239.185,221.088 239.343,221.138 239.150 C 221.188 238.957,221.188 238.643,221.138 238.450 C 221.088 238.257,221.046 238.415,221.046 238.800 M201.087 240.450 L 200.500 241.100 201.150 240.513 C 201.508 240.190,201.800 239.897,201.800 239.863 C 201.800 239.708,201.635 239.844,201.087 240.450 M221.246 241.800 C 221.246 242.185,221.288 242.343,221.338 242.150 C 221.388 241.957,221.388 241.643,221.338 241.450 C 221.288 241.257,221.246 241.415,221.246 241.800 M364.460 242.200 C 364.460 242.805,364.497 243.053,364.543 242.750 C 364.589 242.447,364.589 241.953,364.543 241.650 C 364.497 241.347,364.460 241.595,364.460 242.200 M320.646 243.400 C 320.646 243.785,320.688 243.943,320.738 243.750 C 320.788 243.558,320.788 243.243,320.738 243.050 C 320.688 242.857,320.646 243.015,320.646 243.400 M221.446 244.800 C 221.446 245.185,221.488 245.343,221.538 245.150 C 221.588 244.957,221.588 244.643,221.538 244.450 C 221.488 244.257,221.446 244.415,221.446 244.800 M320.446 246.000 C 320.446 246.385,320.488 246.543,320.538 246.350 C 320.588 246.157,320.588 245.843,320.538 245.650 C 320.488 245.457,320.446 245.615,320.446 246.000 M364.660 246.800 C 364.660 247.405,364.697 247.653,364.743 247.350 C 364.789 247.048,364.789 246.553,364.743 246.250 C 364.697 245.947,364.660 246.195,364.660 246.800 M34.481 249.800 C 34.481 251.615,34.512 252.357,34.549 251.450 C 34.586 250.543,34.586 249.058,34.549 248.150 C 34.512 247.243,34.481 247.985,34.481 249.800 M221.650 247.700 C 221.653 248.140,221.694 248.296,221.741 248.048 C 221.789 247.799,221.787 247.439,221.737 247.248 C 221.687 247.056,221.648 247.260,221.650 247.700 M320.246 248.600 C 320.246 248.985,320.288 249.143,320.338 248.950 C 320.388 248.757,320.388 248.443,320.338 248.250 C 320.288 248.058,320.246 248.215,320.246 248.600 M176.267 249.600 C 176.267 250.425,176.303 250.763,176.346 250.350 C 176.389 249.938,176.389 249.263,176.346 248.850 C 176.303 248.438,176.267 248.775,176.267 249.600 M221.846 250.600 C 221.846 250.985,221.888 251.143,221.938 250.950 C 221.988 250.757,221.988 250.443,221.938 250.250 C 221.888 250.058,221.846 250.215,221.846 250.600 M364.860 251.400 C 364.860 252.005,364.897 252.253,364.943 251.950 C 364.989 251.648,364.989 251.153,364.943 250.850 C 364.897 250.548,364.860 250.795,364.860 251.400 M222.046 253.600 C 222.046 253.985,222.088 254.143,222.138 253.950 C 222.188 253.757,222.188 253.443,222.138 253.250 C 222.088 253.058,222.046 253.215,222.046 253.600 M319.846 254.000 C 319.846 254.385,319.888 254.543,319.938 254.350 C 319.988 254.157,319.988 253.843,319.938 253.650 C 319.888 253.457,319.846 253.615,319.846 254.000 M176.067 256.000 C 176.067 256.825,176.103 257.163,176.146 256.750 C 176.189 256.338,176.189 255.663,176.146 255.250 C 176.103 254.838,176.067 255.175,176.067 256.000 M365.060 256.000 C 365.060 256.605,365.097 256.853,365.143 256.550 C 365.189 256.248,365.189 255.753,365.143 255.450 C 365.097 255.148,365.060 255.395,365.060 256.000 M222.250 256.500 C 222.253 256.940,222.294 257.096,222.341 256.848 C 222.389 256.599,222.387 256.239,222.337 256.048 C 222.287 255.856,222.248 256.060,222.250 256.500 M319.646 256.600 C 319.646 256.985,319.688 257.143,319.738 256.950 C 319.788 256.757,319.788 256.443,319.738 256.250 C 319.688 256.058,319.646 256.215,319.646 256.600 M319.446 259.200 C 319.446 259.585,319.488 259.743,319.538 259.550 C 319.588 259.358,319.588 259.043,319.538 258.850 C 319.488 258.657,319.446 258.815,319.446 259.200 M222.446 259.400 C 222.446 259.785,222.488 259.943,222.538 259.750 C 222.588 259.558,222.588 259.243,222.538 259.050 C 222.488 258.858,222.446 259.015,222.446 259.400 M365.260 260.600 C 365.260 261.205,365.297 261.453,365.343 261.150 C 365.389 260.848,365.389 260.353,365.343 260.050 C 365.297 259.748,365.260 259.995,365.260 260.600 M34.671 262.700 C 34.670 263.690,34.704 264.120,34.746 263.656 C 34.788 263.192,34.789 262.382,34.747 261.856 C 34.706 261.330,34.672 261.710,34.671 262.700 M175.867 262.400 C 175.867 263.225,175.903 263.563,175.946 263.150 C 175.989 262.738,175.989 262.063,175.946 261.650 C 175.903 261.238,175.867 261.575,175.867 262.400 M319.246 262.000 C 319.246 262.385,319.288 262.543,319.338 262.350 C 319.388 262.157,319.388 261.843,319.338 261.650 C 319.288 261.457,319.246 261.615,319.246 262.000 M222.646 262.400 C 222.646 262.785,222.688 262.943,222.738 262.750 C 222.788 262.558,222.788 262.243,222.738 262.050 C 222.688 261.858,222.646 262.015,222.646 262.400 M319.046 264.600 C 319.046 264.985,319.088 265.143,319.138 264.950 C 319.188 264.757,319.188 264.443,319.138 264.250 C 319.088 264.058,319.046 264.215,319.046 264.600 M365.460 265.200 C 365.460 265.805,365.497 266.053,365.543 265.750 C 365.589 265.447,365.589 264.953,365.543 264.650 C 365.497 264.348,365.460 264.595,365.460 265.200 M222.850 265.300 C 222.853 265.740,222.894 265.896,222.941 265.648 C 222.989 265.399,222.987 265.039,222.937 264.848 C 222.887 264.656,222.848 264.860,222.850 265.300 M318.846 267.200 C 318.846 267.585,318.888 267.743,318.938 267.550 C 318.988 267.358,318.988 267.043,318.938 266.850 C 318.888 266.657,318.846 266.815,318.846 267.200 M175.667 268.800 C 175.667 269.625,175.703 269.963,175.746 269.550 C 175.789 269.137,175.789 268.463,175.746 268.050 C 175.703 267.637,175.667 267.975,175.667 268.800 M223.050 268.300 C 223.053 268.740,223.094 268.896,223.141 268.648 C 223.189 268.399,223.187 268.039,223.137 267.848 C 223.087 267.656,223.048 267.860,223.050 268.300 M365.660 270.000 C 365.660 270.605,365.697 270.853,365.743 270.550 C 365.789 270.248,365.789 269.752,365.743 269.450 C 365.697 269.147,365.660 269.395,365.660 270.000 M223.246 271.200 C 223.246 271.585,223.288 271.743,223.338 271.550 C 223.388 271.358,223.388 271.043,223.338 270.850 C 223.288 270.657,223.246 270.815,223.246 271.200 M318.446 272.600 C 318.446 272.985,318.488 273.143,318.538 272.950 C 318.588 272.757,318.588 272.443,318.538 272.250 C 318.488 272.058,318.446 272.215,318.446 272.600 M223.446 274.200 C 223.446 274.585,223.488 274.743,223.538 274.550 C 223.588 274.358,223.588 274.043,223.538 273.850 C 223.488 273.657,223.446 273.815,223.446 274.200 M365.860 274.600 C 365.860 275.205,365.897 275.453,365.943 275.150 C 365.989 274.848,365.989 274.353,365.943 274.050 C 365.897 273.748,365.860 273.995,365.860 274.600 M175.466 275.100 C 175.467 275.870,175.503 276.160,175.546 275.746 C 175.589 275.331,175.589 274.701,175.544 274.346 C 175.500 273.990,175.465 274.330,175.466 275.100 M318.246 275.200 C 318.246 275.585,318.288 275.743,318.338 275.550 C 318.388 275.358,318.388 275.043,318.338 274.850 C 318.288 274.657,318.246 274.815,318.246 275.200 M223.650 277.100 C 223.653 277.540,223.694 277.696,223.741 277.448 C 223.789 277.199,223.787 276.839,223.737 276.648 C 223.687 276.456,223.648 276.660,223.650 277.100 M318.046 277.800 C 318.046 278.185,318.088 278.343,318.138 278.150 C 318.188 277.957,318.188 277.643,318.138 277.450 C 318.088 277.257,318.046 277.415,318.046 277.800 M366.060 279.200 C 366.060 279.805,366.097 280.053,366.143 279.750 C 366.189 279.447,366.189 278.953,366.143 278.650 C 366.097 278.348,366.060 278.595,366.060 279.200 M223.846 280.000 C 223.846 280.385,223.888 280.543,223.938 280.350 C 223.988 280.157,223.988 279.843,223.938 279.650 C 223.888 279.457,223.846 279.615,223.846 280.000 M175.267 281.400 C 175.267 282.225,175.303 282.563,175.346 282.150 C 175.389 281.738,175.389 281.063,175.346 280.650 C 175.303 280.238,175.267 280.575,175.267 281.400 M224.046 283.000 C 224.046 283.385,224.088 283.543,224.138 283.350 C 224.188 283.157,224.188 282.843,224.138 282.650 C 224.088 282.457,224.046 282.615,224.046 283.000 M317.646 283.200 C 317.646 283.585,317.688 283.743,317.738 283.550 C 317.788 283.358,317.788 283.043,317.738 282.850 C 317.688 282.657,317.646 282.815,317.646 283.200 M366.260 283.800 C 366.260 284.405,366.297 284.653,366.343 284.350 C 366.389 284.048,366.389 283.553,366.343 283.250 C 366.297 282.947,366.260 283.195,366.260 283.800 M224.250 285.900 C 224.253 286.340,224.294 286.496,224.341 286.248 C 224.389 285.999,224.387 285.639,224.337 285.448 C 224.287 285.256,224.248 285.460,224.250 285.900 M317.446 285.800 C 317.446 286.185,317.488 286.343,317.538 286.150 C 317.588 285.957,317.588 285.643,317.538 285.450 C 317.488 285.257,317.446 285.415,317.446 285.800 M175.067 287.800 C 175.067 288.625,175.103 288.963,175.146 288.550 C 175.189 288.137,175.189 287.463,175.146 287.050 C 175.103 286.637,175.067 286.975,175.067 287.800 M366.460 288.400 C 366.460 289.005,366.497 289.252,366.543 288.950 C 366.589 288.647,366.589 288.153,366.543 287.850 C 366.497 287.548,366.460 287.795,366.460 288.400 M224.446 288.800 C 224.446 289.185,224.488 289.343,224.538 289.150 C 224.588 288.957,224.588 288.643,224.538 288.450 C 224.488 288.257,224.446 288.415,224.446 288.800 M317.046 291.200 C 317.046 291.585,317.088 291.743,317.138 291.550 C 317.188 291.358,317.188 291.043,317.138 290.850 C 317.088 290.657,317.046 290.815,317.046 291.200 M224.646 291.800 C 224.646 292.185,224.688 292.343,224.738 292.150 C 224.788 291.957,224.788 291.643,224.738 291.450 C 224.688 291.257,224.646 291.415,224.646 291.800 M366.660 293.000 C 366.660 293.605,366.697 293.853,366.743 293.550 C 366.789 293.248,366.789 292.752,366.743 292.450 C 366.697 292.147,366.660 292.395,366.660 293.000 M174.867 294.200 C 174.867 295.025,174.903 295.363,174.946 294.950 C 174.989 294.538,174.989 293.863,174.946 293.450 C 174.903 293.038,174.867 293.375,174.867 294.200 M316.846 293.800 C 316.846 294.185,316.888 294.343,316.938 294.150 C 316.988 293.957,316.988 293.643,316.938 293.450 C 316.888 293.257,316.846 293.415,316.846 293.800 M224.846 294.800 C 224.846 295.185,224.888 295.343,224.938 295.150 C 224.988 294.957,224.988 294.643,224.938 294.450 C 224.888 294.257,224.846 294.415,224.846 294.800 M316.646 296.400 C 316.646 296.785,316.688 296.943,316.738 296.750 C 316.788 296.558,316.788 296.243,316.738 296.050 C 316.688 295.858,316.646 296.015,316.646 296.400 M366.860 297.800 C 366.860 298.405,366.897 298.653,366.943 298.350 C 366.989 298.048,366.989 297.553,366.943 297.250 C 366.897 296.947,366.860 297.195,366.860 297.800 M225.050 297.700 C 225.053 298.140,225.094 298.296,225.141 298.048 C 225.189 297.799,225.187 297.439,225.137 297.248 C 225.087 297.056,225.048 297.260,225.050 297.700 M174.667 300.600 C 174.667 301.425,174.703 301.762,174.746 301.350 C 174.789 300.938,174.789 300.262,174.746 299.850 C 174.703 299.438,174.667 299.775,174.667 300.600 M225.246 300.600 C 225.246 300.985,225.288 301.143,225.338 300.950 C 225.388 300.757,225.388 300.443,225.338 300.250 C 225.288 300.058,225.246 300.215,225.246 300.600 M316.246 301.800 C 316.246 302.185,316.288 302.343,316.338 302.150 C 316.388 301.957,316.388 301.643,316.338 301.450 C 316.288 301.257,316.246 301.415,316.246 301.800 M367.060 302.400 C 367.060 303.005,367.097 303.252,367.143 302.950 C 367.189 302.647,367.189 302.153,367.143 301.850 C 367.097 301.548,367.060 301.795,367.060 302.400 M225.446 303.600 C 225.446 303.985,225.488 304.143,225.538 303.950 C 225.588 303.757,225.588 303.443,225.538 303.250 C 225.488 303.058,225.446 303.215,225.446 303.600 M316.046 304.400 C 316.046 304.785,316.088 304.943,316.138 304.750 C 316.188 304.558,316.188 304.243,316.138 304.050 C 316.088 303.858,316.046 304.015,316.046 304.400 M174.466 306.900 C 174.467 307.670,174.503 307.960,174.546 307.546 C 174.589 307.131,174.589 306.501,174.544 306.146 C 174.500 305.790,174.465 306.130,174.466 306.900 M225.650 306.500 C 225.653 306.940,225.694 307.096,225.741 306.848 C 225.789 306.599,225.787 306.239,225.737 306.048 C 225.687 305.856,225.648 306.060,225.650 306.500 M367.260 307.000 C 367.260 307.605,367.297 307.853,367.343 307.550 C 367.389 307.248,367.389 306.752,367.343 306.450 C 367.297 306.147,367.260 306.395,367.260 307.000 M315.846 307.000 C 315.846 307.385,315.888 307.543,315.938 307.350 C 315.988 307.157,315.988 306.843,315.938 306.650 C 315.888 306.457,315.846 306.615,315.846 307.000 M225.846 309.400 C 225.846 309.785,225.888 309.943,225.938 309.750 C 225.988 309.558,225.988 309.243,225.938 309.050 C 225.888 308.858,225.846 309.015,225.846 309.400 M367.460 311.600 C 367.460 312.205,367.497 312.453,367.543 312.150 C 367.589 311.848,367.589 311.353,367.543 311.050 C 367.497 310.748,367.460 310.995,367.460 311.600 M174.267 313.200 C 174.267 314.025,174.303 314.363,174.346 313.950 C 174.389 313.538,174.389 312.863,174.346 312.450 C 174.303 312.038,174.267 312.375,174.267 313.200 M226.046 312.400 C 226.046 312.785,226.088 312.943,226.138 312.750 C 226.188 312.558,226.188 312.243,226.138 312.050 C 226.088 311.858,226.046 312.015,226.046 312.400 M315.446 312.400 C 315.446 312.785,315.488 312.943,315.538 312.750 C 315.588 312.558,315.588 312.243,315.538 312.050 C 315.488 311.858,315.446 312.015,315.446 312.400 M315.246 315.000 C 315.246 315.385,315.288 315.543,315.338 315.350 C 315.388 315.158,315.388 314.843,315.338 314.650 C 315.288 314.457,315.246 314.615,315.246 315.000 M226.250 315.300 C 226.253 315.740,226.294 315.896,226.341 315.648 C 226.389 315.399,226.387 315.039,226.337 314.848 C 226.287 314.656,226.248 314.860,226.250 315.300 M367.660 316.200 C 367.660 316.805,367.697 317.053,367.743 316.750 C 367.789 316.447,367.789 315.953,367.743 315.650 C 367.697 315.348,367.660 315.595,367.660 316.200 M226.450 318.300 C 226.453 318.740,226.494 318.896,226.541 318.648 C 226.589 318.399,226.587 318.039,226.537 317.848 C 226.487 317.656,226.448 317.860,226.450 318.300 M174.067 319.600 C 174.067 320.425,174.103 320.763,174.146 320.350 C 174.189 319.938,174.189 319.263,174.146 318.850 C 174.103 318.438,174.067 318.775,174.067 319.600 M314.846 320.400 C 314.846 320.785,314.888 320.943,314.938 320.750 C 314.988 320.558,314.988 320.243,314.938 320.050 C 314.888 319.858,314.846 320.015,314.846 320.400 M367.860 320.800 C 367.860 321.405,367.897 321.653,367.943 321.350 C 367.989 321.048,367.989 320.553,367.943 320.250 C 367.897 319.947,367.860 320.195,367.860 320.800 M226.646 321.200 C 226.646 321.585,226.688 321.743,226.738 321.550 C 226.788 321.358,226.788 321.043,226.738 320.850 C 226.688 320.658,226.646 320.815,226.646 321.200 M314.646 323.000 C 314.646 323.385,314.688 323.543,314.738 323.350 C 314.788 323.158,314.788 322.843,314.738 322.650 C 314.688 322.457,314.646 322.615,314.646 323.000 M226.846 324.200 C 226.846 324.585,226.888 324.743,226.938 324.550 C 226.988 324.358,226.988 324.043,226.938 323.850 C 226.888 323.658,226.846 323.815,226.846 324.200 M173.867 326.000 C 173.867 326.825,173.903 327.163,173.946 326.750 C 173.989 326.338,173.989 325.663,173.946 325.250 C 173.903 324.838,173.867 325.175,173.867 326.000 M368.060 325.600 C 368.060 326.205,368.097 326.453,368.143 326.150 C 368.189 325.848,368.189 325.353,368.143 325.050 C 368.097 324.748,368.060 324.995,368.060 325.600 M314.446 325.600 C 314.446 325.985,314.488 326.143,314.538 325.950 C 314.588 325.757,314.588 325.443,314.538 325.250 C 314.488 325.058,314.446 325.215,314.446 325.600 M227.050 327.100 C 227.053 327.540,227.094 327.696,227.141 327.448 C 227.189 327.199,227.187 326.839,227.137 326.648 C 227.087 326.456,227.048 326.660,227.050 327.100 M368.260 330.200 C 368.260 330.805,368.297 331.053,368.343 330.750 C 368.389 330.447,368.389 329.953,368.343 329.650 C 368.297 329.348,368.260 329.595,368.260 330.200 M227.246 330.000 C 227.246 330.385,227.288 330.543,227.338 330.350 C 227.388 330.158,227.388 329.843,227.338 329.650 C 227.288 329.457,227.246 329.615,227.246 330.000 M314.046 331.000 C 314.046 331.385,314.088 331.543,314.138 331.350 C 314.188 331.158,314.188 330.843,314.138 330.650 C 314.088 330.457,314.046 330.615,314.046 331.000 M173.667 332.400 C 173.667 333.225,173.703 333.563,173.746 333.150 C 173.789 332.738,173.789 332.063,173.746 331.650 C 173.703 331.238,173.667 331.575,173.667 332.400 M227.446 333.000 C 227.446 333.385,227.488 333.543,227.538 333.350 C 227.588 333.158,227.588 332.843,227.538 332.650 C 227.488 332.457,227.446 332.615,227.446 333.000 M313.846 333.600 C 313.846 333.985,313.888 334.143,313.938 333.950 C 313.988 333.757,313.988 333.443,313.938 333.250 C 313.888 333.058,313.846 333.215,313.846 333.600 M368.460 334.800 C 368.460 335.405,368.497 335.653,368.543 335.350 C 368.589 335.048,368.589 334.553,368.543 334.250 C 368.497 333.947,368.460 334.195,368.460 334.800 M227.650 335.900 C 227.653 336.340,227.694 336.496,227.741 336.248 C 227.789 335.999,227.787 335.639,227.737 335.448 C 227.687 335.256,227.648 335.460,227.650 335.900 M173.467 338.800 C 173.467 339.625,173.503 339.963,173.546 339.550 C 173.589 339.138,173.589 338.463,173.546 338.050 C 173.503 337.638,173.467 337.975,173.467 338.800 M227.846 338.800 C 227.846 339.185,227.888 339.343,227.938 339.150 C 227.988 338.957,227.988 338.643,227.938 338.450 C 227.888 338.257,227.846 338.415,227.846 338.800 M313.446 339.000 C 313.446 339.385,313.488 339.543,313.538 339.350 C 313.588 339.158,313.588 338.843,313.538 338.650 C 313.488 338.457,313.446 338.615,313.446 339.000 M368.660 339.400 C 368.660 340.005,368.697 340.253,368.743 339.950 C 368.789 339.648,368.789 339.153,368.743 338.850 C 368.697 338.548,368.660 338.795,368.660 339.400 M313.246 341.600 C 313.246 341.985,313.288 342.143,313.338 341.950 C 313.388 341.757,313.388 341.443,313.338 341.250 C 313.288 341.058,313.246 341.215,313.246 341.600 M228.046 341.800 C 228.046 342.185,228.088 342.343,228.138 342.150 C 228.188 341.957,228.188 341.643,228.138 341.450 C 228.088 341.257,228.046 341.415,228.046 341.800 M368.860 344.000 C 368.860 344.605,368.897 344.853,368.943 344.550 C 368.989 344.248,368.989 343.753,368.943 343.450 C 368.897 343.148,368.860 343.395,368.860 344.000 M173.267 345.000 C 173.267 345.825,173.303 346.163,173.346 345.750 C 173.389 345.338,173.389 344.663,173.346 344.250 C 173.303 343.838,173.267 344.175,173.267 345.000 M313.046 344.200 C 313.046 344.585,313.088 344.743,313.138 344.550 C 313.188 344.358,313.188 344.043,313.138 343.850 C 313.088 343.658,313.046 343.815,313.046 344.200 M228.246 344.800 C 228.246 345.185,228.288 345.343,228.338 345.150 C 228.388 344.957,228.388 344.643,228.338 344.450 C 228.288 344.257,228.246 344.415,228.246 344.800 M228.450 347.700 C 228.453 348.140,228.494 348.296,228.541 348.048 C 228.589 347.799,228.587 347.439,228.537 347.248 C 228.487 347.056,228.448 347.260,228.450 347.700 M369.060 348.600 C 369.060 349.205,369.097 349.453,369.143 349.150 C 369.189 348.848,369.189 348.353,369.143 348.050 C 369.097 347.748,369.060 347.995,369.060 348.600 M312.646 349.600 C 312.646 349.985,312.688 350.143,312.738 349.950 C 312.788 349.757,312.788 349.443,312.738 349.250 C 312.688 349.058,312.646 349.215,312.646 349.600 M173.067 351.400 C 173.067 352.225,173.103 352.563,173.146 352.150 C 173.189 351.738,173.189 351.063,173.146 350.650 C 173.103 350.238,173.067 350.575,173.067 351.400 M228.646 350.600 C 228.646 350.985,228.688 351.143,228.738 350.950 C 228.788 350.757,228.788 350.443,228.738 350.250 C 228.688 350.058,228.646 350.215,228.646 350.600 M312.446 352.200 C 312.446 352.585,312.488 352.743,312.538 352.550 C 312.588 352.358,312.588 352.043,312.538 351.850 C 312.488 351.658,312.446 351.815,312.446 352.200 M369.260 353.400 C 369.260 354.005,369.297 354.253,369.343 353.950 C 369.389 353.648,369.389 353.153,369.343 352.850 C 369.297 352.548,369.260 352.795,369.260 353.400 M228.846 353.600 C 228.846 353.985,228.888 354.143,228.938 353.950 C 228.988 353.757,228.988 353.443,228.938 353.250 C 228.888 353.058,228.846 353.215,228.846 353.600 M312.246 354.800 C 312.246 355.185,312.288 355.343,312.338 355.150 C 312.388 354.957,312.388 354.643,312.338 354.450 C 312.288 354.257,312.246 354.415,312.246 354.800 M229.050 356.500 C 229.053 356.940,229.094 357.096,229.141 356.848 C 229.189 356.599,229.187 356.239,229.137 356.048 C 229.087 355.856,229.048 356.060,229.050 356.500 M172.867 357.800 C 172.867 358.625,172.903 358.963,172.946 358.550 C 172.989 358.138,172.989 357.463,172.946 357.050 C 172.903 356.638,172.867 356.975,172.867 357.800 M369.460 358.000 C 369.460 358.605,369.497 358.853,369.543 358.550 C 369.589 358.248,369.589 357.753,369.543 357.450 C 369.497 357.148,369.460 357.395,369.460 358.000 M229.246 359.400 C 229.246 359.785,229.288 359.943,229.338 359.750 C 229.388 359.558,229.388 359.243,229.338 359.050 C 229.288 358.858,229.246 359.015,229.246 359.400 M311.846 360.200 C 311.846 360.585,311.888 360.743,311.938 360.550 C 311.988 360.358,311.988 360.043,311.938 359.850 C 311.888 359.658,311.846 359.815,311.846 360.200 M263.050 361.743 C 263.353 361.789,263.848 361.789,264.150 361.743 C 264.453 361.697,264.205 361.660,263.600 361.660 C 262.995 361.660,262.748 361.697,263.050 361.743 M229.446 362.400 C 229.446 362.785,229.488 362.943,229.538 362.750 C 229.588 362.558,229.588 362.243,229.538 362.050 C 229.488 361.858,229.446 362.015,229.446 362.400 M267.650 361.943 C 267.953 361.989,268.447 361.989,268.750 361.943 C 269.053 361.897,268.805 361.860,268.200 361.860 C 267.595 361.860,267.348 361.897,267.650 361.943 M272.250 362.143 C 272.553 362.189,273.048 362.189,273.350 362.143 C 273.653 362.097,273.405 362.060,272.800 362.060 C 272.195 362.060,271.947 362.097,272.250 362.143 M276.850 362.343 C 277.153 362.389,277.647 362.389,277.950 362.343 C 278.252 362.297,278.005 362.260,277.400 362.260 C 276.795 362.260,276.548 362.297,276.850 362.343 M359.561 362.549 C 360.915 362.584,363.075 362.584,364.361 362.549 C 365.648 362.514,364.540 362.486,361.900 362.486 C 359.260 362.486,358.208 362.515,359.561 362.549 M337.761 362.749 C 339.115 362.784,341.275 362.784,342.561 362.749 C 343.848 362.714,342.740 362.686,340.100 362.686 C 337.460 362.686,336.408 362.715,337.761 362.749 M172.667 364.200 C 172.667 365.025,172.703 365.363,172.746 364.950 C 172.789 364.538,172.789 363.863,172.746 363.450 C 172.703 363.038,172.667 363.375,172.667 364.200 M315.961 362.949 C 317.315 362.984,319.475 362.984,320.761 362.949 C 322.048 362.914,320.940 362.886,318.300 362.886 C 315.660 362.886,314.608 362.915,315.961 362.949 M229.650 365.300 C 229.653 365.740,229.694 365.896,229.741 365.648 C 229.789 365.399,229.787 365.039,229.737 364.848 C 229.687 364.656,229.648 364.860,229.650 365.300 M229.850 368.300 C 229.853 368.740,229.894 368.896,229.941 368.648 C 229.989 368.399,229.987 368.039,229.937 367.848 C 229.887 367.656,229.848 367.860,229.850 368.300 M172.463 369.500 C 172.498 369.844,172.658 369.903,173.602 369.919 L 174.700 369.938 173.663 369.859 C 172.905 369.801,172.598 369.688,172.524 369.440 C 172.450 369.191,172.434 369.207,172.463 369.500 M203.650 369.750 C 206.263 369.781,210.538 369.781,213.150 369.750 C 215.763 369.718,213.625 369.692,208.400 369.692 C 203.175 369.692,201.038 369.718,203.650 369.750 " stroke="none" fill="#1c8004" fill-rule="evenodd"></path></g></svg>