<svg id="svg" version="1.1" xmlns="http://www.w3.org/2000/svg" xmlns:xlink="http://www.w3.org/1999/xlink" width="400" height="400" viewBox="0, 0, 400,400"><g id="svgg"><path id="path0" d="M120.400 29.282 C 119.190 29.709,117.916 30.315,117.569 30.629 C 117.221 30.943,116.748 31.200,116.517 31.200 C 116.287 31.200,115.874 31.470,115.600 31.800 C 115.326 32.130,114.764 32.400,114.351 32.400 C 113.938 32.400,113.600 32.584,113.600 32.810 C 113.600 33.035,113.150 33.391,112.600 33.600 C 112.050 33.809,111.600 34.255,111.600 34.590 C 111.600 34.926,111.349 35.200,111.043 35.200 C 110.405 35.200,110.000 36.050,110.000 37.390 C 110.000 37.898,109.730 38.418,109.400 38.545 C 109.004 38.697,108.800 39.323,108.800 40.387 C 108.800 41.467,108.535 42.265,108.000 42.800 C 107.560 43.240,107.200 44.119,107.200 44.753 C 107.200 45.570,106.967 45.968,106.400 46.116 C 105.764 46.282,105.600 46.662,105.600 47.963 C 105.600 49.096,105.428 49.600,105.043 49.600 C 104.323 49.600,104.000 50.478,104.000 52.433 C 104.000 53.733,103.864 54.000,103.200 54.000 C 102.537 54.000,102.400 54.267,102.400 55.553 C 102.400 56.770,102.227 57.152,101.600 57.316 C 100.923 57.493,100.800 57.862,100.800 59.718 C 100.800 61.561,100.688 61.902,100.100 61.856 C 99.571 61.814,99.370 62.156,99.278 63.259 C 99.191 64.307,98.937 64.775,98.378 64.922 C 97.773 65.080,97.600 65.476,97.600 66.701 C 97.600 67.768,97.342 68.509,96.800 69.000 C 96.273 69.477,96.000 70.232,96.000 71.215 C 96.000 72.388,95.823 72.753,95.170 72.924 C 94.668 73.055,94.370 73.429,94.416 73.870 C 94.571 75.355,94.384 76.000,93.800 76.000 C 93.466 76.000,93.167 76.399,93.126 76.900 C 93.086 77.395,93.013 78.160,92.966 78.600 C 92.918 79.040,92.861 79.625,92.839 79.900 C 92.818 80.175,92.530 80.400,92.200 80.400 C 91.767 80.400,91.600 80.844,91.600 82.000 C 91.600 83.333,91.467 83.600,90.800 83.600 C 90.141 83.600,90.000 83.867,90.000 85.111 C 90.000 86.127,89.738 86.847,89.200 87.307 C 88.620 87.804,88.400 88.487,88.400 89.796 C 88.400 91.333,88.282 91.600,87.600 91.600 C 86.937 91.600,86.800 91.867,86.800 93.153 C 86.800 94.370,86.627 94.752,86.000 94.916 C 85.332 95.091,85.200 95.462,85.200 97.163 C 85.200 98.933,85.095 99.200,84.400 99.200 C 83.737 99.200,83.600 99.467,83.600 100.753 C 83.600 101.970,83.427 102.352,82.800 102.516 C 82.211 102.670,82.000 103.062,82.000 103.999 C 82.000 104.700,81.640 105.731,81.200 106.291 C 80.760 106.850,80.400 107.901,80.400 108.627 C 80.400 109.579,80.185 110.014,79.627 110.191 C 79.070 110.368,78.864 110.783,78.890 111.678 C 78.912 112.443,78.649 113.121,78.205 113.446 C 77.737 113.788,77.418 114.677,77.292 115.986 C 77.169 117.259,76.909 118.000,76.584 118.000 C 76.296 118.000,75.951 118.704,75.800 119.600 C 75.634 120.584,75.312 121.200,74.965 121.200 C 74.586 121.200,74.400 121.661,74.400 122.600 C 74.400 123.467,74.095 124.305,73.600 124.800 C 73.075 125.325,72.800 126.133,72.800 127.153 C 72.800 128.370,72.627 128.752,72.000 128.916 C 71.391 129.075,71.200 129.462,71.200 130.536 C 71.200 131.595,71.001 132.009,70.400 132.200 C 69.729 132.413,69.600 132.805,69.600 134.627 C 69.600 136.533,69.502 136.800,68.800 136.800 C 68.133 136.800,68.000 137.067,68.000 138.400 C 68.000 139.733,67.867 140.000,67.200 140.000 C 66.552 140.000,66.400 140.267,66.400 141.400 C 66.400 142.267,66.095 143.105,65.600 143.600 C 65.075 144.125,64.800 144.933,64.800 145.953 C 64.800 147.170,64.627 147.552,64.000 147.716 C 63.408 147.871,63.200 148.262,63.200 149.218 C 63.200 149.961,62.918 150.718,62.538 150.996 C 61.899 151.463,61.704 152.207,61.633 154.453 C 61.611 155.153,61.332 155.577,60.800 155.716 C 60.187 155.876,60.000 156.262,60.000 157.363 C 60.000 158.374,59.822 158.800,59.400 158.800 C 58.982 158.800,58.800 159.221,58.800 160.186 C 58.800 161.162,58.564 161.698,58.000 162.000 C 57.365 162.340,57.200 162.838,57.200 164.414 C 57.200 166.133,57.093 166.400,56.400 166.400 C 55.737 166.400,55.600 166.667,55.600 167.953 C 55.600 169.170,55.427 169.552,54.800 169.716 C 54.120 169.894,54.000 170.262,54.000 172.163 C 54.000 174.133,53.905 174.400,53.200 174.400 C 52.548 174.400,52.400 174.667,52.400 175.837 C 52.400 176.938,52.213 177.324,51.600 177.484 C 50.973 177.648,50.800 178.030,50.800 179.247 C 50.800 180.303,50.623 180.800,50.247 180.800 C 49.622 180.800,49.214 181.997,49.205 183.853 C 49.201 184.768,48.984 185.163,48.400 185.316 C 47.787 185.476,47.600 185.862,47.600 186.963 C 47.600 187.920,47.415 188.400,47.047 188.400 C 46.419 188.400,46.014 189.598,46.005 191.473 C 46.002 192.377,45.776 192.817,45.227 192.991 C 44.672 193.167,44.464 193.583,44.490 194.468 C 44.511 195.224,44.270 195.841,43.864 196.068 C 43.501 196.271,43.091 197.138,42.955 197.994 C 42.818 198.850,42.457 199.646,42.153 199.763 C 41.784 199.904,41.600 200.644,41.600 201.987 C 41.600 203.733,41.494 204.000,40.800 204.000 C 40.137 204.000,40.000 204.267,40.000 205.553 C 40.000 206.770,39.827 207.152,39.200 207.316 C 38.565 207.482,38.400 207.862,38.400 209.159 C 38.400 210.360,38.188 210.926,37.600 211.293 C 37.038 211.644,36.800 212.226,36.800 213.250 C 36.800 214.370,36.615 214.755,36.000 214.916 C 35.387 215.076,35.200 215.462,35.200 216.563 C 35.200 217.467,34.903 218.297,34.400 218.800 C 33.867 219.333,33.600 220.133,33.600 221.200 C 33.600 222.533,33.467 222.800,32.800 222.800 C 32.133 222.800,32.000 223.067,32.000 224.400 C 32.000 225.501,31.826 226.000,31.443 226.000 C 30.746 226.000,30.400 226.870,30.400 228.619 C 30.400 229.562,30.158 230.101,29.600 230.400 C 29.036 230.702,28.800 231.238,28.800 232.214 C 28.800 233.150,28.614 233.600,28.227 233.600 C 27.609 233.600,27.008 234.965,27.369 235.549 C 27.490 235.746,27.208 236.390,26.743 236.982 C 26.198 237.674,25.879 238.689,25.848 239.827 C 25.810 241.225,25.653 241.596,25.100 241.598 C 24.564 241.599,24.400 241.936,24.400 243.037 C 24.400 244.138,24.213 244.524,23.600 244.684 C 22.925 244.861,22.800 245.230,22.800 247.047 C 22.800 248.933,22.701 249.200,22.000 249.200 C 21.333 249.200,21.200 249.467,21.200 250.800 C 21.200 252.133,21.067 252.400,20.400 252.400 C 19.733 252.400,19.600 252.667,19.600 254.000 C 19.600 255.101,19.426 255.600,19.043 255.600 C 17.620 255.600,17.383 273.750,18.800 274.200 C 19.240 274.340,19.600 274.712,19.600 275.027 C 19.600 275.342,19.960 275.600,20.400 275.600 C 20.840 275.600,21.200 275.780,21.200 276.000 C 21.200 276.220,21.463 276.400,21.784 276.400 C 22.106 276.400,22.691 276.735,23.084 277.144 C 29.960 284.292,33.985 284.874,75.301 284.690 C 109.275 284.539,108.400 284.613,108.400 281.902 C 108.400 280.667,108.542 280.400,109.200 280.400 C 109.867 280.400,110.000 280.133,110.000 278.800 C 110.000 277.467,110.133 277.200,110.800 277.200 C 111.458 277.200,111.600 276.933,111.600 275.696 C 111.600 274.626,111.830 274.049,112.400 273.693 C 113.002 273.317,113.200 272.760,113.200 271.443 C 113.200 270.030,113.354 269.653,114.000 269.484 C 114.599 269.327,114.800 268.938,114.800 267.934 C 114.800 267.026,115.058 266.431,115.600 266.093 C 116.182 265.729,116.400 265.160,116.400 264.000 C 116.400 262.840,116.618 262.271,117.200 261.907 C 117.770 261.551,118.000 260.974,118.000 259.904 C 118.000 258.667,118.142 258.400,118.800 258.400 C 119.448 258.400,119.600 258.133,119.600 257.000 C 119.600 256.133,119.905 255.295,120.400 254.800 C 120.925 254.275,121.200 253.467,121.200 252.447 C 121.200 251.230,121.373 250.848,122.000 250.684 C 122.613 250.524,122.800 250.138,122.800 249.037 C 122.800 248.054,122.982 247.600,123.375 247.600 C 123.750 247.600,124.044 246.980,124.217 245.827 C 124.363 244.852,124.734 243.957,125.041 243.839 C 125.404 243.700,125.600 242.999,125.600 241.840 C 125.600 240.405,125.757 240.004,126.400 239.800 C 126.993 239.612,127.200 239.195,127.200 238.187 C 127.200 237.238,127.441 236.699,128.000 236.400 C 128.635 236.060,128.800 235.562,128.800 233.986 C 128.800 232.267,128.907 232.000,129.600 232.000 C 130.267 232.000,130.400 231.733,130.400 230.400 C 130.400 229.067,130.533 228.800,131.200 228.800 C 131.865 228.800,132.000 228.533,132.000 227.220 C 132.000 226.185,132.222 225.516,132.642 225.280 C 133.026 225.066,133.368 224.185,133.491 223.094 C 133.642 221.749,133.894 221.216,134.448 221.072 C 134.995 220.928,135.200 220.510,135.200 219.534 C 135.200 218.626,135.458 218.031,136.000 217.693 C 136.540 217.355,136.800 216.760,136.800 215.859 C 136.800 215.032,137.105 214.248,137.600 213.800 C 138.136 213.315,138.400 212.568,138.400 211.538 C 138.400 210.490,138.578 210.000,138.957 210.000 C 139.579 210.000,140.000 209.156,140.000 207.911 C 140.000 207.459,140.288 206.877,140.641 206.620 C 141.000 206.357,141.374 205.327,141.493 204.276 C 141.630 203.057,141.896 202.400,142.252 202.400 C 142.625 202.400,142.800 201.888,142.800 200.800 C 142.800 199.467,142.933 199.200,143.600 199.200 C 144.267 199.200,144.400 198.933,144.400 197.600 C 144.400 196.533,144.667 195.733,145.200 195.200 C 145.689 194.711,146.000 193.867,146.000 193.027 C 146.000 192.005,146.205 191.589,146.800 191.400 C 147.416 191.205,147.600 190.795,147.600 189.620 C 147.600 188.430,147.776 188.047,148.400 187.884 C 149.035 187.718,149.200 187.338,149.200 186.041 C 149.200 184.840,149.412 184.274,150.000 183.907 C 150.562 183.556,150.800 182.974,150.800 181.950 C 150.800 180.830,150.985 180.445,151.600 180.284 C 152.192 180.129,152.400 179.738,152.400 178.782 C 152.400 178.057,152.682 177.282,153.041 177.020 C 153.399 176.758,153.774 175.728,153.891 174.687 C 154.044 173.330,154.306 172.757,154.851 172.584 C 155.369 172.419,155.600 171.967,155.600 171.117 C 155.600 170.441,155.888 169.677,156.241 169.420 C 156.603 169.155,156.975 168.121,157.096 167.042 C 157.217 165.970,157.550 165.040,157.856 164.923 C 158.186 164.797,158.400 164.101,158.400 163.157 C 158.400 161.867,158.537 161.600,159.200 161.600 C 159.863 161.600,160.000 161.333,160.000 160.047 C 160.000 158.830,160.173 158.448,160.800 158.284 C 161.468 158.109,161.600 157.738,161.600 156.037 C 161.600 154.267,161.705 154.000,162.400 154.000 C 163.063 154.000,163.200 153.733,163.200 152.447 C 163.200 151.230,163.373 150.848,164.000 150.684 C 164.613 150.524,164.800 150.138,164.800 149.037 C 164.800 148.133,165.097 147.303,165.600 146.800 C 166.133 146.267,166.400 145.467,166.400 144.400 C 166.400 143.067,166.533 142.800,167.200 142.800 C 167.863 142.800,168.000 142.533,168.000 141.247 C 168.000 140.030,168.173 139.648,168.800 139.484 C 169.465 139.310,169.600 138.938,169.600 137.284 C 169.600 135.630,169.735 135.258,170.400 135.084 C 171.013 134.924,171.200 134.538,171.200 133.437 C 171.200 132.475,171.384 132.000,171.757 132.000 C 172.379 132.000,172.800 131.156,172.800 129.911 C 172.800 129.459,173.082 128.882,173.427 128.630 C 173.771 128.378,174.160 127.368,174.291 126.386 C 174.422 125.404,174.770 124.420,175.064 124.200 C 176.742 122.946,175.823 116.683,173.097 110.800 C 172.332 109.150,171.243 106.630,170.677 105.200 C 169.678 102.680,168.701 100.464,168.016 99.172 C 167.833 98.826,167.202 97.296,166.613 95.772 C 166.025 94.247,165.086 92.010,164.527 90.800 C 163.352 88.260,163.043 87.552,160.863 82.400 C 159.979 80.310,158.414 76.620,157.386 74.200 C 156.358 71.780,154.925 68.360,154.201 66.600 C 153.477 64.840,152.236 61.983,151.443 60.250 C 150.649 58.518,150.000 56.953,150.000 56.774 C 150.000 56.594,149.303 54.952,148.452 53.124 C 147.600 51.296,146.441 48.630,145.875 47.200 C 145.310 45.770,144.578 44.060,144.250 43.400 C 143.922 42.740,142.850 40.490,141.866 38.400 C 139.655 33.699,136.924 30.199,134.667 29.175 C 132.279 28.090,123.594 28.156,120.400 29.282 M187.292 149.675 C 187.539 150.417,188.400 150.540,188.400 149.833 C 188.400 149.485,188.115 149.200,187.767 149.200 C 187.418 149.200,187.205 149.414,187.292 149.675 M191.675 160.825 C 191.771 161.114,192.086 161.429,192.375 161.525 C 192.675 161.625,192.825 161.475,192.725 161.175 C 192.629 160.886,192.314 160.571,192.025 160.475 C 191.725 160.375,191.575 160.525,191.675 160.825 M308.400 196.966 C 308.400 197.263,308.747 197.597,309.170 197.708 C 309.692 197.845,309.875 197.741,309.739 197.386 C 309.454 196.643,308.400 196.313,308.400 196.966 M207.600 197.951 C 207.600 198.762,208.632 199.167,208.692 198.380 C 208.725 197.941,208.499 197.600,208.175 197.600 C 207.859 197.600,207.600 197.758,207.600 197.951 M232.493 257.600 C 232.768 258.040,233.131 258.400,233.300 258.400 C 233.469 258.400,233.382 258.040,233.107 257.600 C 232.832 257.160,232.469 256.800,232.300 256.800 C 232.131 256.800,232.218 257.160,232.493 257.600 M341.600 275.400 C 341.600 275.730,341.892 276.000,342.249 276.000 C 342.780 276.000,342.808 275.891,342.400 275.400 C 342.126 275.070,341.834 274.800,341.751 274.800 C 341.668 274.800,341.600 275.070,341.600 275.400 M240.492 276.075 C 240.739 276.817,241.600 276.940,241.600 276.233 C 241.600 275.885,241.315 275.600,240.967 275.600 C 240.618 275.600,240.405 275.814,240.492 276.075 M229.192 296.610 C 228.501 297.443,229.011 297.847,229.781 297.076 C 230.121 296.736,230.400 296.354,230.400 296.229 C 230.400 295.784,229.691 296.008,229.192 296.610 M216.400 304.567 C 216.400 304.878,216.175 305.224,215.900 305.335 C 215.611 305.452,215.585 305.550,215.838 305.568 C 216.079 305.586,216.602 305.240,217.000 304.800 C 217.651 304.081,217.657 304.000,217.062 304.000 C 216.698 304.000,216.400 304.255,216.400 304.567 M197.200 316.904 C 197.200 317.255,196.885 317.624,196.500 317.724 C 195.844 317.896,195.845 317.910,196.513 317.954 C 197.236 318.001,197.906 316.973,197.449 316.516 C 197.312 316.379,197.200 316.553,197.200 316.904 M171.423 333.033 C 170.774 333.507,170.754 333.600,171.300 333.600 C 171.659 333.600,172.071 333.408,172.216 333.173 C 172.640 332.487,172.261 332.420,171.423 333.033 M159.200 340.600 C 158.792 341.091,158.820 341.200,159.351 341.200 C 159.708 341.200,160.000 340.930,160.000 340.600 C 160.000 340.270,159.932 340.000,159.849 340.000 C 159.766 340.000,159.474 340.270,159.200 340.600 M369.600 341.877 C 369.600 342.096,369.960 342.602,370.400 343.000 C 370.840 343.398,371.200 343.634,371.200 343.523 C 371.200 343.413,370.840 342.907,370.400 342.400 C 369.960 341.893,369.600 341.657,369.600 341.877 M146.600 348.400 C 146.202 348.840,146.078 349.200,146.324 349.200 C 146.570 349.200,146.965 348.840,147.200 348.400 C 147.435 347.960,147.560 347.600,147.476 347.600 C 147.392 347.600,146.998 347.960,146.600 348.400 M63.206 360.230 C 63.217 360.882,63.895 361.702,64.296 361.549 C 64.509 361.467,64.350 361.054,63.942 360.630 C 63.534 360.207,63.203 360.027,63.206 360.230 M121.500 364.083 C 120.766 364.835,121.014 365.033,121.949 364.440 C 122.251 364.249,122.431 363.929,122.349 363.730 C 122.267 363.530,121.885 363.689,121.500 364.083 " stroke="none" fill="#6ca43c" fill-rule="evenodd"></path><path id="path1" d="M125.000 27.910 C 122.266 27.985,120.873 28.187,120.600 28.547 C 120.380 28.838,119.542 29.198,118.739 29.348 C 117.935 29.499,117.176 29.887,117.051 30.211 C 116.927 30.535,116.459 30.800,116.013 30.800 C 115.557 30.800,115.200 31.064,115.200 31.400 C 115.200 31.936,114.453 32.165,112.900 32.107 C 112.625 32.097,112.400 32.260,112.400 32.468 C 112.400 32.677,112.259 32.760,112.086 32.653 C 111.913 32.546,111.771 32.779,111.771 33.170 C 111.771 34.004,113.139 33.824,113.477 32.944 C 113.592 32.645,114.004 32.400,114.394 32.400 C 114.783 32.400,115.326 32.130,115.600 31.800 C 115.874 31.470,116.287 31.200,116.517 31.200 C 116.748 31.200,117.221 30.945,117.569 30.634 C 120.013 28.445,130.995 27.507,134.667 29.175 C 136.924 30.199,139.655 33.699,141.866 38.400 C 142.850 40.490,143.922 42.740,144.250 43.400 C 144.578 44.060,145.388 45.950,146.050 47.600 C 147.761 51.864,149.717 56.017,149.919 55.814 C 150.069 55.664,148.985 53.024,148.013 51.172 C 147.831 50.826,147.190 49.296,146.588 47.772 C 139.469 29.753,137.105 27.578,125.000 27.910 M150.006 56.650 C 150.002 56.898,150.649 58.518,151.443 60.250 C 152.236 61.983,153.477 64.840,154.201 66.600 C 154.925 68.360,156.358 71.780,157.386 74.200 C 158.414 76.620,159.979 80.310,160.863 82.400 C 163.043 87.552,163.352 88.260,164.527 90.800 C 165.086 92.010,165.996 94.170,166.549 95.600 C 167.507 98.081,168.462 100.266,169.184 101.628 C 169.367 101.974,170.009 103.504,170.611 105.028 C 171.212 106.553,172.369 109.240,173.182 111.000 C 173.995 112.760,174.897 115.060,175.185 116.110 C 175.603 117.633,176.400 119.060,176.400 118.286 C 176.400 118.017,174.824 113.454,174.436 112.600 C 174.236 112.160,173.696 110.945,173.236 109.900 C 172.776 108.855,172.040 107.223,171.600 106.274 C 171.160 105.324,170.800 104.397,170.800 104.212 C 170.800 103.889,169.129 100.059,168.426 98.772 C 168.237 98.426,167.591 96.896,166.989 95.372 C 165.859 92.507,164.201 88.671,163.617 87.572 C 163.433 87.226,162.791 85.696,162.189 84.172 C 161.588 82.647,160.652 80.410,160.109 79.200 C 158.203 74.953,158.000 74.477,158.000 74.263 C 158.000 74.144,157.303 72.552,156.452 70.724 C 155.600 68.896,154.441 66.230,153.875 64.800 C 152.252 60.695,150.014 55.982,150.006 56.650 M19.771 276.371 C 19.771 276.796,19.868 277.134,19.986 277.124 C 20.833 277.050,21.200 277.305,21.200 277.967 C 21.200 279.159,21.631 280.000,22.243 280.000 C 22.568 280.000,22.800 280.410,22.800 280.984 C 22.800 281.526,23.135 282.291,23.544 282.684 C 23.953 283.078,24.417 283.938,24.575 284.596 C 24.734 285.254,25.074 285.922,25.332 286.081 C 25.804 286.373,25.859 286.544,25.950 288.000 C 25.977 288.440,26.201 288.755,26.447 288.700 C 26.693 288.645,26.944 288.870,27.005 289.200 C 27.285 290.713,27.445 291.019,28.100 291.287 C 28.567 291.479,28.800 292.013,28.800 292.891 C 28.800 293.774,29.063 294.372,29.600 294.707 C 30.110 295.026,30.400 295.640,30.400 296.403 C 30.400 297.062,30.535 297.579,30.700 297.553 C 31.659 297.401,32.000 297.727,32.000 298.797 C 32.000 299.560,32.290 300.174,32.800 300.493 C 33.280 300.793,33.600 301.426,33.600 302.076 C 33.600 302.681,33.901 303.329,34.281 303.541 C 34.656 303.751,35.165 304.615,35.412 305.461 C 35.660 306.308,36.073 306.955,36.331 306.900 C 36.589 306.845,36.800 307.235,36.800 307.767 C 36.800 309.148,37.198 310.000,37.843 310.000 C 38.228 310.000,38.400 310.502,38.400 311.624 C 38.400 312.517,38.544 313.158,38.719 313.050 C 39.511 312.560,40.084 313.616,40.367 316.087 C 40.385 316.246,40.670 316.271,41.000 316.145 C 41.464 315.967,41.600 316.237,41.600 317.335 C 41.600 318.300,41.855 318.934,42.397 319.313 C 42.836 319.620,43.080 319.986,42.940 320.126 C 42.801 320.266,42.907 320.647,43.177 320.973 C 43.448 321.298,43.554 321.751,43.414 321.978 C 43.261 322.224,43.409 322.295,43.779 322.153 C 44.211 321.987,44.400 322.155,44.400 322.703 C 44.400 323.137,44.760 323.950,45.200 324.509 C 45.640 325.069,46.000 325.802,46.000 326.139 C 46.000 326.477,46.183 326.866,46.407 327.004 C 46.630 327.142,46.707 327.427,46.577 327.638 C 46.447 327.848,46.555 327.970,46.818 327.910 C 47.081 327.849,47.499 328.499,47.748 329.354 C 47.997 330.209,48.380 330.875,48.600 330.834 C 48.820 330.793,49.112 331.308,49.249 331.980 C 49.387 332.651,49.392 333.200,49.260 333.200 C 49.129 333.200,49.422 333.480,49.911 333.823 C 50.400 334.165,50.800 334.794,50.800 335.219 C 50.800 335.645,51.160 336.218,51.600 336.493 C 52.096 336.803,52.400 337.426,52.400 338.134 C 52.400 338.938,52.636 339.337,53.200 339.484 C 53.806 339.643,54.000 340.030,54.000 341.084 C 54.000 342.138,54.194 342.525,54.800 342.684 C 55.366 342.832,55.600 343.230,55.600 344.043 C 55.600 344.760,55.901 345.381,56.400 345.693 C 56.840 345.968,57.200 346.584,57.200 347.064 C 57.200 348.353,57.613 349.200,58.243 349.200 C 58.565 349.200,58.800 349.607,58.800 350.167 C 58.800 351.477,59.206 352.444,59.642 352.174 C 59.839 352.052,60.014 352.188,60.031 352.476 C 60.109 353.814,60.405 354.615,60.978 355.033 C 61.320 355.283,61.600 355.839,61.600 356.269 C 61.600 356.698,61.960 357.436,62.400 357.908 C 62.840 358.380,63.200 359.016,63.200 359.321 C 63.200 359.626,63.560 360.202,64.000 360.600 C 64.440 360.998,64.800 361.673,64.800 362.099 C 64.800 362.538,65.147 362.966,65.600 363.084 C 66.314 363.271,66.557 363.906,66.513 365.469 C 66.505 365.727,66.927 366.046,67.450 366.177 C 67.972 366.308,68.400 366.682,68.400 367.008 C 68.400 367.333,68.649 367.600,68.953 367.600 C 69.258 367.600,69.604 367.973,69.724 368.430 C 69.843 368.886,70.312 369.356,70.766 369.475 C 71.220 369.594,71.505 369.830,71.400 370.000 C 71.295 370.170,71.432 370.494,71.704 370.721 C 72.238 371.164,72.381 371.200,73.600 371.200 C 74.040 371.200,74.400 371.456,74.400 371.768 C 74.400 372.084,74.977 372.463,75.700 372.622 C 76.415 372.779,77.233 373.240,77.517 373.646 C 78.225 374.657,96.404 374.739,97.407 373.736 C 97.868 373.275,98.003 373.261,98.013 373.671 C 98.022 374.042,98.177 374.001,98.531 373.536 C 98.823 373.151,99.823 372.790,100.905 372.677 C 101.934 372.570,103.042 372.215,103.368 371.890 C 103.693 371.564,104.949 371.174,106.157 371.023 C 107.835 370.813,108.303 370.612,108.135 370.174 C 107.969 369.741,108.266 369.600,109.342 369.600 C 110.240 369.600,111.037 369.312,111.493 368.823 C 111.976 368.305,112.844 368.014,114.105 367.949 C 115.523 367.875,116.051 367.670,116.224 367.125 C 116.378 366.640,116.846 366.400,117.640 366.400 C 118.350 366.400,118.922 366.147,119.067 365.769 C 119.200 365.423,119.735 364.977,120.255 364.779 C 120.775 364.582,121.200 364.145,121.200 363.810 C 121.200 363.377,121.616 363.200,122.637 363.200 C 123.738 363.200,124.124 363.013,124.284 362.400 C 124.419 361.883,124.830 361.600,125.443 361.600 C 125.966 361.600,126.618 361.240,126.893 360.800 C 127.168 360.360,127.709 360.000,128.096 360.000 C 128.533 360.000,128.800 359.697,128.800 359.200 C 128.800 358.554,129.067 358.400,130.186 358.400 C 131.160 358.400,131.698 358.164,131.998 357.604 C 132.232 357.166,132.554 356.826,132.712 356.847 C 133.393 356.940,134.772 356.278,134.572 355.955 C 134.451 355.760,134.626 355.600,134.961 355.600 C 135.295 355.600,135.891 355.255,136.284 354.832 C 136.678 354.410,137.482 353.944,138.071 353.796 C 138.660 353.649,139.239 353.274,139.359 352.964 C 139.478 352.654,139.928 352.400,140.360 352.400 C 140.793 352.400,141.254 352.059,141.387 351.642 C 141.536 351.172,142.155 350.785,143.014 350.624 C 143.841 350.469,144.400 350.129,144.400 349.782 C 144.400 349.462,144.732 349.200,145.138 349.200 C 145.544 349.200,146.202 348.840,146.600 348.400 C 146.998 347.960,147.673 347.600,148.099 347.600 C 148.538 347.600,148.966 347.253,149.084 346.800 C 149.231 346.239,149.630 346.000,150.420 346.000 C 151.195 346.000,151.625 345.750,151.800 345.200 C 151.944 344.747,152.405 344.400,152.864 344.400 C 153.338 344.400,153.762 344.068,153.884 343.600 C 154.040 343.005,154.430 342.800,155.404 342.800 C 156.200 342.800,156.805 342.564,156.945 342.200 C 157.071 341.870,157.419 341.600,157.718 341.600 C 158.016 341.600,158.676 341.158,159.183 340.618 C 159.691 340.077,160.217 339.649,160.353 339.665 C 161.143 339.760,161.600 339.533,161.600 339.045 C 161.600 338.726,162.198 338.377,163.000 338.226 C 163.838 338.069,164.400 337.730,164.400 337.382 C 164.400 337.058,164.771 336.800,165.237 336.800 C 165.738 336.800,166.159 336.479,166.284 336.000 C 166.431 335.438,166.830 335.200,167.624 335.200 C 168.246 335.200,168.991 334.885,169.281 334.500 C 169.849 333.744,171.525 332.692,173.325 331.961 C 174.021 331.678,174.368 331.295,174.237 330.952 C 174.093 330.578,174.332 330.400,174.980 330.400 C 176.349 330.400,177.200 330.000,177.200 329.357 C 177.200 329.051,177.517 328.800,177.904 328.800 C 178.291 328.800,178.832 328.440,179.107 328.000 C 179.384 327.557,180.040 327.200,180.576 327.200 C 181.195 327.200,181.638 326.910,181.800 326.400 C 181.940 325.960,182.389 325.600,182.798 325.600 C 183.208 325.600,183.824 325.319,184.167 324.975 C 184.511 324.632,185.154 324.324,185.596 324.290 C 186.038 324.257,186.500 323.914,186.623 323.529 C 186.752 323.121,187.421 322.720,188.223 322.569 C 189.007 322.422,189.600 322.072,189.600 321.755 C 189.600 321.450,189.860 321.200,190.177 321.200 C 190.495 321.200,191.003 320.845,191.307 320.412 C 191.622 319.961,192.403 319.582,193.129 319.527 C 194.047 319.457,194.400 319.231,194.400 318.715 C 194.400 318.267,194.698 318.000,195.200 318.000 C 195.640 318.000,196.360 317.640,196.800 317.200 C 197.240 316.760,197.887 316.400,198.237 316.400 C 198.588 316.400,198.969 316.040,199.084 315.600 C 199.232 315.036,199.630 314.800,200.433 314.800 C 201.162 314.800,201.726 314.513,202.000 314.000 C 202.235 313.560,202.685 313.200,203.000 313.200 C 203.315 313.200,203.743 312.881,203.952 312.490 C 204.161 312.100,204.813 311.740,205.402 311.692 C 206.730 311.582,207.284 311.259,206.981 310.770 C 206.756 310.406,207.381 310.023,208.469 309.858 C 209.353 309.724,210.027 309.167,209.783 308.772 C 209.656 308.568,210.013 308.400,210.576 308.400 C 211.177 308.400,211.600 308.173,211.600 307.851 C 211.600 307.520,212.235 307.201,213.200 307.046 C 214.196 306.887,214.800 306.576,214.800 306.222 C 214.800 305.910,215.160 305.540,215.600 305.400 C 216.040 305.260,216.400 304.888,216.400 304.573 C 216.400 304.205,216.823 304.000,217.586 304.000 C 218.354 304.000,218.920 303.724,219.191 303.217 C 219.424 302.781,220.227 302.319,221.005 302.173 C 221.803 302.023,222.400 301.673,222.400 301.355 C 222.400 301.050,222.777 300.800,223.237 300.800 C 223.738 300.800,224.159 300.479,224.284 300.000 C 224.399 299.560,224.818 299.200,225.214 299.200 C 226.362 299.200,227.200 298.760,227.200 298.157 C 227.200 297.851,227.548 297.600,227.973 297.600 C 228.398 297.600,228.860 297.240,229.000 296.800 C 229.180 296.232,229.605 296.000,230.464 296.000 C 231.338 296.000,231.733 295.778,231.884 295.200 C 232.041 294.599,232.430 294.400,233.447 294.400 C 234.672 294.400,235.004 294.092,234.847 293.100 C 234.821 292.935,235.151 292.800,235.580 292.800 C 236.009 292.800,236.505 292.542,236.682 292.226 C 236.858 291.910,237.520 291.558,238.152 291.443 C 238.783 291.329,239.558 290.867,239.873 290.417 C 240.188 289.968,240.795 289.600,241.223 289.600 C 241.650 289.600,241.955 289.383,241.900 289.118 C 241.845 288.853,241.980 288.619,242.200 288.599 C 243.271 288.497,244.400 287.890,244.400 287.416 C 244.400 287.124,244.670 286.782,245.000 286.655 C 245.736 286.373,245.757 285.240,245.043 284.300 C 244.351 283.388,107.861 283.191,106.274 284.100 C 105.147 284.745,47.348 285.033,41.101 284.425 C 33.013 283.638,26.989 281.204,23.084 277.144 C 22.691 276.735,22.106 276.400,21.784 276.400 C 21.463 276.400,21.200 276.220,21.200 276.000 C 21.200 275.780,20.879 275.600,20.486 275.600 C 20.047 275.600,19.771 275.898,19.771 276.371 " stroke="none" fill="#2cb3a4" fill-rule="evenodd"></path><path id="path2" d="M119.300 25.889 C 118.512 25.987,118.000 26.277,118.000 26.625 C 118.000 26.941,117.685 27.206,117.300 27.214 C 116.585 27.229,114.315 28.360,114.949 28.386 C 115.141 28.394,115.076 28.668,114.804 28.996 C 114.532 29.323,114.105 29.474,113.855 29.331 C 113.605 29.189,113.520 29.205,113.666 29.368 C 113.812 29.532,113.665 30.305,113.338 31.086 C 112.795 32.387,112.800 32.485,113.405 32.253 C 113.768 32.114,114.321 32.000,114.633 32.000 C 114.945 32.000,115.200 31.730,115.200 31.400 C 115.200 31.064,115.557 30.800,116.013 30.800 C 116.459 30.800,116.927 30.535,117.051 30.211 C 117.176 29.887,117.935 29.499,118.739 29.348 C 119.542 29.198,120.380 28.833,120.600 28.537 C 121.374 27.495,132.744 27.716,134.947 28.816 C 137.142 29.913,140.137 33.533,141.883 37.200 C 144.062 41.776,145.465 44.929,146.588 47.772 C 147.190 49.296,147.831 50.826,148.013 51.172 C 148.720 52.519,150.000 55.468,150.000 55.751 C 150.000 56.038,151.694 59.930,152.383 61.228 C 152.567 61.574,153.209 63.104,153.811 64.628 C 154.412 66.153,155.600 68.896,156.452 70.724 C 157.303 72.552,158.000 74.144,158.000 74.263 C 158.000 74.477,158.203 74.953,160.109 79.200 C 160.652 80.410,161.588 82.647,162.189 84.172 C 162.791 85.696,163.433 87.226,163.617 87.572 C 164.201 88.671,165.859 92.507,166.989 95.372 C 167.591 96.896,168.237 98.426,168.426 98.772 C 169.129 100.059,170.800 103.889,170.800 104.212 C 170.800 104.397,171.160 105.324,171.600 106.274 C 172.040 107.223,172.776 108.855,173.236 109.900 C 173.696 110.945,174.236 112.160,174.436 112.600 C 175.682 115.342,176.282 117.950,176.049 119.616 C 175.694 122.159,175.936 124.000,176.625 124.000 C 176.941 124.000,177.222 124.360,177.250 124.800 C 177.278 125.240,177.345 125.780,177.400 126.000 C 177.455 126.220,177.523 126.580,177.550 126.800 C 177.578 127.020,177.870 127.200,178.200 127.200 C 178.630 127.200,178.800 127.639,178.800 128.751 C 178.800 129.845,179.033 130.464,179.591 130.851 C 180.108 131.209,180.415 131.932,180.475 132.931 C 180.535 133.924,180.819 134.596,181.284 134.845 C 181.766 135.103,182.000 135.693,182.000 136.652 C 182.000 137.738,182.189 138.124,182.800 138.284 C 183.420 138.446,183.600 138.830,183.600 139.985 C 183.600 140.968,183.873 141.723,184.400 142.200 C 184.936 142.685,185.200 143.432,185.200 144.462 C 185.200 145.733,185.339 146.000,186.000 146.000 C 186.667 146.000,186.800 146.267,186.800 147.600 C 186.800 148.933,186.933 149.200,187.600 149.200 C 188.301 149.200,188.400 149.467,188.400 151.353 C 188.400 153.170,188.525 153.539,189.200 153.716 C 189.809 153.875,190.000 154.262,190.000 155.336 C 190.000 156.395,190.199 156.809,190.800 157.000 C 191.403 157.191,191.600 157.605,191.600 158.683 C 191.600 159.469,191.857 160.312,192.172 160.556 C 192.487 160.800,192.850 161.720,192.980 162.600 C 193.110 163.480,193.478 164.396,193.797 164.636 C 194.116 164.876,194.423 165.668,194.478 166.397 C 194.545 167.274,194.820 167.785,195.290 167.908 C 195.778 168.035,196.002 168.485,196.005 169.347 C 196.014 171.305,196.437 172.471,197.053 172.235 C 197.533 172.051,197.879 173.833,197.647 175.300 C 197.621 175.465,197.960 175.600,198.400 175.600 C 199.028 175.600,199.200 175.867,199.200 176.838 C 199.200 177.519,199.547 178.564,199.971 179.159 C 200.395 179.755,200.800 180.953,200.871 181.821 C 200.959 182.901,201.190 183.400,201.600 183.400 C 202.008 183.400,202.241 183.895,202.327 184.944 C 202.419 186.071,202.663 186.544,203.227 186.691 C 203.945 186.879,204.191 187.882,204.109 190.288 C 204.100 190.556,204.432 190.883,204.846 191.015 C 205.397 191.189,205.600 191.634,205.600 192.664 C 205.600 193.738,205.791 194.125,206.400 194.284 C 207.027 194.448,207.200 194.830,207.200 196.047 C 207.200 197.333,207.337 197.600,208.000 197.600 C 208.692 197.600,208.800 197.867,208.800 199.580 C 208.800 200.863,208.998 201.673,209.362 201.880 C 209.672 202.056,210.019 202.800,210.133 203.534 C 210.247 204.268,210.605 205.078,210.928 205.334 C 211.251 205.590,211.610 206.340,211.726 207.000 C 212.137 209.341,212.311 209.799,212.753 209.700 C 212.999 209.645,213.222 210.050,213.250 210.600 C 213.336 212.322,213.383 212.452,214.100 212.976 C 214.485 213.258,214.800 213.859,214.800 214.311 C 214.800 215.556,215.221 216.400,215.843 216.400 C 216.327 216.400,216.690 218.688,216.436 220.134 C 216.404 220.318,216.742 220.564,217.189 220.681 C 217.800 220.841,218.000 221.223,218.000 222.233 C 218.000 223.162,218.245 223.703,218.800 224.000 C 219.346 224.292,219.600 224.838,219.600 225.718 C 219.600 226.574,219.869 227.175,220.400 227.507 C 220.976 227.867,221.200 228.440,221.200 229.554 C 221.200 231.029,221.976 232.291,222.537 231.730 C 222.682 231.585,222.800 232.307,222.800 233.333 C 222.800 234.360,222.935 235.179,223.100 235.153 C 224.101 234.995,224.400 235.328,224.400 236.601 C 224.400 237.372,224.760 238.675,225.200 239.496 C 225.640 240.316,226.000 241.396,226.000 241.894 C 226.000 242.433,226.243 242.800,226.600 242.800 C 227.110 242.800,227.473 244.368,227.100 244.958 C 227.045 245.045,227.360 245.512,227.800 245.996 C 228.240 246.481,228.790 247.715,229.021 248.738 C 229.263 249.804,229.647 250.557,229.921 250.500 C 230.231 250.435,230.400 250.978,230.400 252.037 C 230.400 253.338,230.564 253.718,231.200 253.884 C 231.801 254.041,232.000 254.430,232.000 255.447 C 232.000 256.191,232.199 256.800,232.443 256.800 C 232.686 256.800,232.783 257.068,232.657 257.395 C 232.527 257.735,232.633 257.950,232.905 257.895 C 233.167 257.843,233.436 258.250,233.502 258.800 C 233.757 260.897,234.035 261.600,234.608 261.600 C 235.021 261.600,235.200 262.035,235.200 263.037 C 235.200 264.138,235.387 264.524,236.000 264.684 C 236.584 264.837,236.801 265.232,236.805 266.147 C 236.814 268.003,237.222 269.200,237.847 269.200 C 238.223 269.200,238.400 269.697,238.400 270.753 C 238.400 271.970,238.573 272.352,239.200 272.516 C 239.813 272.676,240.000 273.062,240.000 274.163 C 240.000 275.333,240.148 275.600,240.800 275.600 C 241.511 275.600,241.600 275.867,241.600 278.000 C 241.600 279.777,241.744 280.400,242.153 280.400 C 242.833 280.400,243.205 282.090,242.717 282.962 C 242.427 283.481,242.575 283.600,243.513 283.600 C 244.887 283.600,245.840 285.015,245.399 286.402 C 245.236 286.916,245.296 287.412,245.539 287.562 C 245.772 287.706,246.010 288.521,246.067 289.372 C 246.141 290.465,246.381 290.975,246.886 291.107 C 247.417 291.245,247.600 291.692,247.600 292.847 C 247.600 294.133,247.737 294.400,248.400 294.400 C 249.058 294.400,249.209 294.683,249.250 296.000 C 249.278 296.880,249.345 297.780,249.400 298.000 C 249.455 298.220,249.523 298.580,249.550 298.800 C 249.578 299.020,249.859 299.200,250.176 299.200 C 250.553 299.200,250.795 299.719,250.876 300.700 C 250.960 301.711,251.195 302.200,251.600 302.200 C 251.974 302.200,252.244 302.652,252.317 303.400 C 252.382 304.060,252.546 304.870,252.683 305.200 C 252.819 305.530,252.955 305.980,252.984 306.200 C 253.013 306.420,253.253 306.555,253.518 306.500 C 253.832 306.435,254.000 306.972,254.000 308.037 C 254.000 309.338,254.164 309.718,254.800 309.884 C 255.427 310.048,255.600 310.430,255.600 311.647 C 255.600 312.933,255.737 313.200,256.400 313.200 C 257.128 313.200,257.563 315.303,257.247 317.300 C 257.203 317.582,257.825 317.754,258.500 317.647 C 258.665 317.621,258.800 318.125,258.800 318.767 C 258.800 320.257,259.182 321.258,259.642 320.974 C 259.839 320.852,260.022 321.213,260.050 321.776 C 260.135 323.523,260.181 323.650,260.900 324.176 C 261.345 324.502,261.600 325.219,261.600 326.148 C 261.600 327.113,261.871 327.840,262.400 328.293 C 262.840 328.670,263.200 329.373,263.200 329.856 C 263.200 331.153,263.612 332.000,264.243 332.000 C 264.608 332.000,264.800 332.461,264.800 333.339 C 264.800 334.103,265.143 335.073,265.600 335.600 C 266.102 336.178,266.400 337.097,266.400 338.061 C 266.400 339.333,266.539 339.600,267.200 339.600 C 267.867 339.600,268.000 339.867,268.000 341.200 C 268.000 342.533,268.133 342.800,268.800 342.800 C 269.533 342.800,269.977 344.996,269.636 346.934 C 269.604 347.118,269.942 347.364,270.389 347.481 C 271.028 347.648,271.200 348.022,271.200 349.247 C 271.200 350.533,271.337 350.800,272.000 350.800 C 272.648 350.800,272.800 351.067,272.800 352.200 C 272.800 353.067,273.105 353.905,273.600 354.400 C 274.091 354.891,274.400 355.733,274.400 356.580 C 274.400 357.476,274.644 358.097,275.097 358.350 C 275.480 358.565,275.813 358.979,275.836 359.270 C 275.859 359.562,275.906 360.205,275.939 360.700 C 275.973 361.206,276.262 361.600,276.600 361.600 C 276.980 361.600,277.211 362.002,277.231 362.700 C 277.295 365.002,277.814 366.562,278.397 366.202 C 278.639 366.052,278.800 366.521,278.800 367.373 C 278.800 368.360,279.044 368.946,279.600 369.293 C 280.064 369.583,280.400 370.226,280.400 370.824 C 280.400 371.392,280.910 372.428,281.536 373.128 L 282.671 374.400 332.336 374.400 L 382.000 374.400 382.000 371.833 C 382.000 368.908,381.753 368.000,380.957 368.000 C 380.574 368.000,380.400 367.501,380.400 366.400 C 380.400 365.520,380.265 364.821,380.100 364.847 C 379.067 365.011,378.800 364.673,378.800 363.200 C 378.800 362.320,378.626 361.600,378.413 361.600 C 378.199 361.600,378.132 361.323,378.262 360.984 C 378.412 360.591,378.298 360.410,377.949 360.484 C 377.574 360.563,377.360 360.110,377.273 359.056 C 377.181 357.929,376.937 357.456,376.373 357.309 C 375.776 357.153,375.600 356.752,375.600 355.553 C 375.600 354.439,375.430 354.000,375.000 354.000 C 374.583 354.000,374.400 353.580,374.400 352.619 C 374.400 351.032,373.646 349.124,373.142 349.436 C 372.954 349.552,372.800 349.111,372.800 348.456 C 372.800 346.863,372.434 346.000,371.757 346.000 C 371.419 346.000,371.200 345.577,371.200 344.926 C 371.200 344.335,370.858 343.480,370.440 343.026 C 370.022 342.572,369.581 341.390,369.461 340.400 C 369.340 339.410,369.232 338.555,369.220 338.500 C 369.209 338.445,368.930 338.400,368.600 338.400 C 368.167 338.400,368.000 337.956,368.000 336.800 C 368.000 335.467,367.867 335.200,367.200 335.200 C 366.533 335.200,366.400 334.933,366.400 333.600 C 366.400 332.533,366.133 331.733,365.600 331.200 C 365.111 330.711,364.800 329.867,364.800 329.027 C 364.800 328.005,364.595 327.589,364.000 327.400 C 363.405 327.211,363.200 326.795,363.200 325.773 C 363.200 325.018,363.020 324.400,362.800 324.400 C 362.580 324.400,362.445 324.175,362.500 323.900 C 362.555 323.625,362.375 323.445,362.100 323.500 C 361.760 323.568,361.600 323.032,361.600 321.827 C 361.600 320.405,361.441 320.004,360.800 319.800 C 360.199 319.609,360.000 319.195,360.000 318.136 C 360.000 317.073,359.807 316.675,359.219 316.521 C 358.595 316.358,358.415 315.906,358.319 314.258 C 358.239 312.873,358.037 312.233,357.700 312.300 C 357.420 312.356,357.198 312.005,357.195 311.500 C 357.185 309.973,356.733 308.800,356.153 308.800 C 355.692 308.800,355.384 307.574,355.537 306.348 C 355.554 306.209,355.215 305.776,354.784 305.386 C 354.353 304.995,354.000 304.365,354.000 303.984 C 354.000 302.965,352.991 300.742,352.673 301.060 C 352.447 301.286,352.207 299.290,352.345 298.324 C 352.366 298.173,352.027 297.936,351.592 297.797 C 350.980 297.603,350.800 297.189,350.800 295.973 C 350.800 294.744,350.647 294.399,350.100 294.394 C 349.550 294.389,349.517 294.314,349.948 294.041 C 350.401 293.754,350.386 293.632,349.861 293.338 C 349.512 293.143,349.180 292.375,349.124 291.631 C 349.055 290.728,348.784 290.216,348.310 290.092 C 347.802 289.959,347.600 289.512,347.600 288.516 C 347.600 287.462,347.406 287.075,346.800 286.916 C 346.159 286.748,346.000 286.370,346.000 285.015 C 346.000 283.832,345.760 283.107,345.200 282.600 C 344.760 282.202,344.397 281.409,344.394 280.838 C 344.387 279.682,343.898 278.709,343.355 278.774 C 343.160 278.798,342.944 278.183,342.876 277.408 C 342.802 276.576,342.537 276.000,342.227 276.000 C 341.887 276.000,341.632 275.274,341.504 273.946 C 341.377 272.617,341.076 271.762,340.654 271.526 C 340.294 271.325,340.000 270.734,340.000 270.213 C 340.000 268.851,339.599 268.000,338.957 268.000 C 338.575 268.000,338.400 267.504,338.400 266.424 C 338.400 265.557,338.217 264.734,337.993 264.596 C 337.770 264.458,337.708 264.149,337.855 263.911 C 338.016 263.650,337.937 263.592,337.659 263.764 C 337.109 264.104,336.655 262.973,336.430 260.700 C 336.413 260.535,336.130 260.400,335.800 260.400 C 335.378 260.400,335.200 259.974,335.200 258.963 C 335.200 257.862,335.013 257.476,334.400 257.316 C 333.741 257.144,333.600 256.770,333.600 255.202 C 333.600 253.414,332.881 252.052,332.263 252.670 C 332.118 252.815,332.000 252.195,332.000 251.294 C 332.000 250.005,331.829 249.600,331.200 249.400 C 330.579 249.203,330.400 248.795,330.400 247.573 C 330.400 246.708,330.220 246.000,330.000 246.000 C 329.780 246.000,329.645 245.775,329.700 245.500 C 329.755 245.225,329.575 245.045,329.300 245.100 C 328.965 245.167,328.800 244.659,328.800 243.563 C 328.800 242.262,328.636 241.882,328.000 241.716 C 327.373 241.552,327.200 241.170,327.200 239.953 C 327.200 238.667,327.063 238.400,326.400 238.400 C 325.669 238.400,325.340 236.743,325.634 234.545 C 325.653 234.404,325.435 234.145,325.149 233.968 C 324.863 233.792,324.429 232.962,324.184 232.124 C 323.938 231.286,323.527 230.645,323.269 230.700 C 323.011 230.755,322.786 230.395,322.769 229.900 C 322.713 228.229,322.453 227.461,321.825 227.110 C 321.481 226.918,321.198 226.274,321.195 225.680 C 321.186 223.986,320.757 222.800,320.153 222.800 C 319.785 222.800,319.600 222.320,319.600 221.363 C 319.600 220.286,319.409 219.875,318.839 219.726 C 318.298 219.585,318.010 219.043,317.845 217.863 C 317.717 216.949,317.580 215.975,317.540 215.700 C 317.499 215.425,317.227 215.200,316.933 215.200 C 316.463 215.200,316.192 213.948,316.359 212.548 C 316.389 212.300,316.050 212.002,315.606 211.886 C 314.987 211.724,314.800 211.342,314.800 210.237 C 314.800 209.067,314.652 208.800,314.000 208.800 C 313.295 208.800,313.200 208.533,313.200 206.563 C 313.200 204.662,313.080 204.294,312.400 204.116 C 311.773 203.952,311.600 203.570,311.600 202.353 C 311.600 201.067,311.463 200.800,310.800 200.800 C 310.148 200.800,310.000 200.533,310.000 199.363 C 310.000 198.262,309.813 197.876,309.200 197.716 C 308.537 197.542,308.400 197.170,308.400 195.541 C 308.400 194.162,308.221 193.506,307.800 193.345 C 307.470 193.218,307.200 192.698,307.200 192.190 C 307.200 190.850,306.795 190.000,306.157 190.000 C 305.773 190.000,305.600 189.499,305.600 188.387 C 305.600 187.336,305.395 186.696,305.011 186.549 C 304.687 186.424,304.311 185.665,304.176 184.861 C 303.763 182.404,303.590 182.029,302.980 182.263 C 302.530 182.436,302.400 182.108,302.400 180.805 C 302.400 179.462,302.240 179.083,301.600 178.916 C 300.885 178.729,300.484 176.954,300.745 175.124 C 300.766 174.973,300.427 174.736,299.992 174.597 C 299.499 174.441,299.200 173.992,299.200 173.406 C 299.200 172.050,298.798 171.200,298.157 171.200 C 297.780 171.200,297.600 170.715,297.600 169.696 C 297.600 168.626,297.370 168.049,296.800 167.693 C 296.283 167.370,296.000 166.760,296.000 165.970 C 296.000 164.518,295.315 163.082,294.780 163.412 C 294.564 163.546,294.400 162.947,294.400 162.024 C 294.400 161.131,294.220 160.400,294.000 160.400 C 293.780 160.400,293.465 160.403,293.300 160.408 C 293.135 160.412,292.910 159.377,292.800 158.108 C 292.677 156.685,292.425 155.833,292.143 155.886 C 291.886 155.934,291.569 155.190,291.419 154.186 C 291.244 153.023,290.950 152.400,290.575 152.400 C 290.204 152.400,290.000 151.979,290.000 151.216 C 290.000 150.564,289.666 149.709,289.257 149.316 C 288.848 148.922,288.402 147.881,288.266 147.001 C 288.130 146.122,287.744 145.202,287.409 144.957 C 287.074 144.712,286.800 143.930,286.800 143.218 C 286.800 142.262,286.592 141.871,286.000 141.716 C 285.393 141.557,285.193 141.157,285.172 140.053 C 285.146 138.732,284.503 136.455,284.422 137.400 C 284.342 138.340,283.612 136.485,283.606 135.327 C 283.602 134.408,283.377 133.983,282.800 133.800 C 282.209 133.612,282.000 133.195,282.000 132.200 C 282.000 131.205,281.791 130.788,281.200 130.600 C 280.487 130.374,280.085 128.550,280.345 126.724 C 280.366 126.573,280.027 126.336,279.592 126.197 C 279.000 126.010,278.800 125.590,278.800 124.536 C 278.800 123.462,278.609 123.075,278.000 122.916 C 277.385 122.755,277.200 122.370,277.200 121.250 C 277.200 120.240,276.961 119.643,276.422 119.307 C 275.865 118.959,275.610 118.281,275.522 116.911 C 275.441 115.644,275.231 115.034,274.900 115.100 C 274.576 115.165,274.400 114.707,274.400 113.803 C 274.400 112.840,274.152 112.252,273.600 111.907 C 273.071 111.577,272.800 110.974,272.800 110.127 C 272.800 109.423,272.617 108.734,272.393 108.596 C 272.170 108.458,272.083 108.190,272.200 108.000 C 272.317 107.810,272.202 107.525,271.945 107.366 C 271.628 107.170,271.580 107.259,271.797 107.638 C 272.017 108.025,271.986 108.075,271.696 107.800 C 271.464 107.580,271.175 106.680,271.052 105.800 C 270.930 104.920,270.823 104.155,270.815 104.100 C 270.807 104.045,270.530 104.000,270.200 104.000 C 269.806 104.000,269.600 103.606,269.600 102.854 C 269.600 102.224,269.240 101.250,268.800 100.691 C 268.341 100.107,268.000 99.068,268.000 98.251 C 268.000 97.238,267.770 96.705,267.200 96.400 C 266.636 96.098,266.400 95.562,266.400 94.586 C 266.400 93.467,266.246 93.200,265.600 93.200 C 264.942 93.200,264.800 92.933,264.800 91.696 C 264.800 90.626,264.570 90.049,264.000 89.693 C 263.396 89.316,263.200 88.760,263.200 87.424 C 263.200 86.005,263.041 85.604,262.400 85.400 C 261.779 85.203,261.600 84.795,261.600 83.573 C 261.600 82.267,261.464 82.000,260.800 82.000 C 260.119 82.000,260.000 81.733,260.000 80.203 C 260.000 78.840,259.807 78.286,259.200 77.907 C 258.630 77.551,258.400 76.974,258.400 75.904 C 258.400 74.834,258.227 74.400,257.800 74.400 C 257.383 74.400,257.200 73.980,257.200 73.020 C 257.200 72.171,256.954 71.502,256.560 71.282 C 256.208 71.084,255.756 70.041,255.557 68.962 C 255.357 67.883,254.925 66.800,254.597 66.556 C 254.269 66.312,254.000 65.530,254.000 64.818 C 254.000 63.862,253.792 63.471,253.200 63.316 C 252.639 63.169,252.400 62.770,252.400 61.979 C 252.400 60.451,251.693 58.695,251.201 59.000 C 250.967 59.144,250.800 58.750,250.800 58.056 C 250.800 56.463,250.434 55.600,249.757 55.600 C 249.384 55.600,249.200 55.125,249.200 54.163 C 249.200 53.062,249.013 52.676,248.400 52.516 C 247.759 52.348,247.600 51.970,247.600 50.615 C 247.600 49.432,247.360 48.707,246.800 48.200 C 246.304 47.751,246.000 46.968,246.000 46.138 C 246.000 44.928,245.689 44.596,244.700 44.753 C 244.535 44.779,244.400 44.080,244.400 43.200 C 244.400 42.320,244.220 41.600,244.000 41.600 C 243.780 41.600,243.600 41.319,243.600 40.976 C 243.600 40.633,243.420 40.464,243.200 40.600 C 242.953 40.752,242.800 40.071,242.800 38.824 C 242.800 37.462,242.643 36.833,242.321 36.900 C 242.050 36.957,241.677 36.261,241.464 35.300 C 241.246 34.320,240.856 33.600,240.543 33.600 C 240.244 33.600,240.000 33.313,240.000 32.963 C 240.000 32.612,239.640 32.231,239.200 32.116 C 238.760 32.001,238.400 31.608,238.400 31.242 C 238.400 30.877,237.995 30.226,237.500 29.796 C 236.631 29.040,236.467 28.958,235.600 28.850 C 235.380 28.823,235.200 28.524,235.200 28.187 C 235.200 27.851,234.885 27.457,234.500 27.312 C 234.115 27.168,233.590 26.768,233.332 26.425 C 232.891 25.835,123.852 25.323,119.300 25.889 M68.128 366.995 C 68.175 367.462,68.538 367.825,69.005 367.872 C 69.581 367.932,69.614 367.899,69.125 367.752 C 68.753 367.642,68.358 367.247,68.248 366.875 C 68.101 366.386,68.068 366.419,68.128 366.995 " stroke="none" fill="#0474bc" fill-rule="evenodd"></path></g></svg>