<svg id="svg" xmlns="http://www.w3.org/2000/svg" xmlns:xlink="http://www.w3.org/1999/xlink" width="400" height="356.30252100840335" viewBox="0, 0, 400,356.30252100840335"><g id="svgg"><path id="path0" d="M179.696 6.643 C 103.615 20.482,48.312 73.453,8.995 170.145 C -2.341 198.023,-1.236 209.245,13.274 213.593 C 26.276 217.488,31.186 212.970,41.461 187.657 C 79.187 94.714,126.228 49.853,194.388 41.814 C 277.392 32.025,344.012 115.686,362.170 252.514 C 364.919 273.224,321.903 300.201,270.464 310.026 C 195.719 324.303,127.472 308.793,83.157 267.459 L 75.298 260.129 84.733 240.807 C 98.297 213.029,114.939 189.916,121.375 189.916 C 122.252 189.916,131.415 198.068,141.737 208.031 C 185.287 250.068,204.686 241.324,246.260 160.916 C 261.173 132.074,261.933 125.728,251.484 117.264 C 239.641 107.671,229.931 114.089,215.962 140.744 C 205.165 161.347,184.106 194.958,181.994 194.958 C 181.435 194.958,173.346 187.546,164.018 178.486 C 119.979 135.714,88.641 148.556,52.055 224.370 C 30.152 269.759,31.712 275.534,74.564 307.650 C 165.706 375.961,337.799 362.304,391.427 282.505 C 401.273 267.855,401.491 259.235,393.119 215.634 C 365.600 72.308,279.924 -11.588,179.696 6.643 " stroke="none" fill="#000000" fill-rule="evenodd"></path></g></svg>