<svg id="svg" xmlns="http://www.w3.org/2000/svg" xmlns:xlink="http://www.w3.org/1999/xlink" width="400" height="768.6274509803922" viewBox="0, 0, 400,768.6274509803922"><g id="svgg"><path id="path0" d="M151.472 5.294 C 63.226 58.827,36.039 155.617,74.642 278.824 C 86.126 315.474,126.196 414.768,143.277 448.898 L 149.104 460.541 156.376 460.270 C 168.787 459.809,176.471 454.488,176.470 446.355 C 176.469 439.283,172.423 432.637,156.139 412.954 C 139.140 392.405,133.185 381.452,120.526 347.451 C 116.431 336.451,109.134 317.569,104.311 305.490 C 77.039 237.191,69.592 196.993,75.687 150.980 C 82.601 98.783,109.195 57.673,151.717 33.451 L 158.395 29.646 162.871 33.635 C 183.668 52.172,219.329 52.031,224.728 33.392 C 229.794 15.901,220.604 7.055,195.686 5.437 C 176.521 4.193,168.959 3.257,164.553 1.582 C 162.265 0.713,160.349 0.001,160.296 0.000 C 160.243 0.000,156.272 2.382,151.472 5.294 M248.235 379.296 C 233.637 381.466,226.625 384.413,205.670 397.185 C 199.318 401.057,190.390 405.727,182.216 409.453 L 179.726 410.588 184.064 416.471 C 208.471 449.570,192.930 481.284,153.000 479.860 C 135.866 479.249,132.328 475.176,115.652 436.863 C 114.431 434.059,113.376 431.672,113.307 431.558 C 113.239 431.445,111.275 432.193,108.944 433.221 C 106.613 434.248,97.471 437.620,88.627 440.714 C 59.701 450.835,51.054 454.499,41.153 460.833 C -18.041 498.699,-11.238 609.061,55.462 692.941 C 94.326 741.816,180.794 776.434,239.696 766.700 C 281.394 759.809,327.918 734.197,355.871 702.745 C 428.157 621.410,406.428 444.568,317.946 394.085 C 299.986 383.838,266.075 376.644,248.235 379.296 M279.608 390.997 C 285.234 392.443,294.379 396.740,297.647 399.473 L 300.000 401.440 297.846 403.701 C 296.661 404.945,293.926 406.598,291.767 407.374 C 287.707 408.834,287.268 409.307,288.669 410.708 C 291.170 413.210,264.436 417.445,239.412 418.512 L 226.667 419.055 226.667 415.550 C 226.667 396.474,253.146 384.194,279.608 390.997 " stroke="none" fill="#000000" fill-rule="evenodd"></path></g></svg>