<svg id="svg" version="1.1" xmlns="http://www.w3.org/2000/svg" xmlns:xlink="http://www.w3.org/1999/xlink" width="400" height="407.85714285714283" viewBox="0, 0, 400,407.85714285714283"><g id="svgg"><path id="path0" d="M132.192 24.201 C 129.226 27.172,126.800 29.690,126.800 29.797 C 126.800 29.904,122.006 34.719,116.146 40.496 C 110.286 46.273,105.291 51.210,105.046 51.466 C 104.801 51.723,84.845 71.734,60.700 95.937 C 18.480 138.257,15.306 141.600,17.340 141.600 C 18.069 141.600,139.600 20.103,139.600 19.374 C 139.600 17.530,137.458 18.925,132.192 24.201 M194.180 92.773 C 193.971 92.979,191.550 93.271,188.800 93.424 C 186.050 93.576,183.253 93.923,182.584 94.195 C 181.916 94.467,180.116 94.823,178.584 94.986 C 177.053 95.150,175.314 95.535,174.720 95.842 C 174.126 96.149,173.136 96.401,172.520 96.402 C 171.904 96.404,170.881 96.676,170.247 97.006 C 169.613 97.337,168.355 97.726,167.452 97.870 C 166.549 98.014,165.587 98.356,165.313 98.630 C 165.040 98.903,164.092 99.249,163.208 99.399 C 162.324 99.548,161.600 99.826,161.600 100.017 C 161.600 100.208,160.976 100.481,160.214 100.624 C 159.452 100.767,158.620 101.135,158.365 101.442 C 158.110 101.749,157.733 102.000,157.526 102.000 C 156.959 102.000,152.847 104.000,152.603 104.394 C 152.486 104.584,151.853 104.857,151.195 105.001 C 150.538 105.145,150.000 105.407,150.000 105.583 C 150.000 105.759,149.460 106.127,148.800 106.400 C 148.140 106.673,147.600 107.052,147.600 107.241 C 147.600 107.430,147.163 107.694,146.629 107.828 C 146.095 107.963,145.561 108.326,145.441 108.636 C 145.322 108.946,144.977 109.200,144.675 109.200 C 144.372 109.200,143.798 109.560,143.400 110.000 C 143.002 110.440,142.434 110.800,142.138 110.800 C 141.842 110.800,141.600 110.951,141.600 111.136 C 141.600 111.321,140.994 111.906,140.252 112.436 C 137.118 114.678,131.246 120.166,129.316 122.658 C 128.829 123.286,127.794 124.485,127.016 125.322 C 126.237 126.160,125.600 126.995,125.600 127.179 C 125.600 127.364,125.330 127.618,125.000 127.745 C 124.670 127.871,124.400 128.223,124.400 128.525 C 124.400 128.828,124.040 129.402,123.600 129.800 C 123.160 130.198,122.800 130.772,122.800 131.075 C 122.800 131.377,122.554 131.719,122.254 131.835 C 121.954 131.950,121.213 133.024,120.607 134.222 C 120.001 135.420,119.360 136.400,119.184 136.400 C 119.008 136.400,118.742 136.952,118.594 137.627 C 118.446 138.302,118.072 138.951,117.762 139.070 C 117.453 139.188,117.200 139.602,117.200 139.989 C 117.200 140.376,116.840 141.150,116.400 141.709 C 115.960 142.269,115.600 142.991,115.600 143.314 C 115.600 143.637,115.330 144.126,115.000 144.400 C 114.670 144.674,114.400 145.171,114.400 145.505 C 114.400 145.839,114.014 146.942,113.543 147.956 C 112.138 150.979,111.685 152.097,111.012 154.200 C 109.275 159.629,109.075 160.392,107.611 167.200 C 107.351 168.410,106.867 170.628,106.535 172.128 C 104.759 180.179,104.763 203.471,106.543 211.800 C 106.872 213.340,107.252 215.410,107.386 216.400 C 107.521 217.390,107.790 218.740,107.985 219.400 C 108.179 220.060,108.822 222.400,109.414 224.600 C 110.006 226.800,110.629 228.780,110.799 229.000 C 110.969 229.220,111.230 230.030,111.379 230.800 C 111.529 231.570,111.890 232.740,112.182 233.400 C 112.475 234.060,113.072 235.410,113.510 236.400 C 113.948 237.390,114.421 238.695,114.561 239.300 C 114.701 239.905,114.992 240.400,115.208 240.400 C 115.423 240.400,115.604 240.715,115.609 241.100 C 115.614 241.485,115.970 242.250,116.400 242.800 C 116.830 243.350,117.186 244.042,117.191 244.337 C 117.196 244.632,117.560 245.331,118.000 245.891 C 118.440 246.450,118.800 247.154,118.800 247.454 C 118.800 247.754,118.968 248.000,119.173 248.000 C 119.378 248.000,119.674 248.402,119.829 248.892 C 120.107 249.766,121.334 251.673,122.274 252.692 C 122.534 252.974,122.862 253.564,123.001 254.002 C 123.140 254.441,123.410 254.800,123.600 254.800 C 123.790 254.800,124.060 255.160,124.200 255.600 C 124.340 256.040,124.712 256.400,125.027 256.400 C 125.342 256.400,125.600 256.572,125.600 256.782 C 125.600 257.349,127.571 260.150,128.230 260.520 C 128.543 260.696,128.800 261.011,128.800 261.220 C 128.800 261.707,136.340 269.200,136.831 269.200 C 137.034 269.200,137.200 269.349,137.200 269.532 C 137.200 269.715,138.055 270.470,139.100 271.211 C 140.145 271.951,141.144 272.792,141.320 273.079 C 141.496 273.365,141.882 273.600,142.177 273.600 C 142.473 273.600,142.818 273.870,142.945 274.200 C 143.071 274.530,143.423 274.800,143.725 274.800 C 144.028 274.800,144.602 275.160,145.000 275.600 C 145.398 276.040,145.972 276.400,146.275 276.400 C 146.577 276.400,146.924 276.659,147.046 276.976 C 147.167 277.292,147.804 277.669,148.460 277.813 C 149.117 277.957,149.751 278.328,149.870 278.638 C 149.988 278.947,150.353 279.200,150.680 279.200 C 151.006 279.200,151.731 279.560,152.291 280.000 C 152.850 280.440,153.554 280.800,153.854 280.800 C 154.154 280.800,154.400 280.966,154.400 281.168 C 154.400 281.371,154.985 281.663,155.700 281.818 C 156.415 281.973,157.478 282.437,158.062 282.850 C 158.646 283.262,159.465 283.600,159.882 283.600 C 160.299 283.600,160.843 283.803,161.092 284.052 C 161.620 284.580,165.263 285.959,167.000 286.289 C 167.660 286.414,168.560 286.747,169.000 287.027 C 169.440 287.308,170.657 287.662,171.705 287.815 C 172.753 287.968,173.702 288.241,173.814 288.423 C 173.927 288.605,174.869 288.868,175.909 289.008 C 176.949 289.148,178.700 289.509,179.800 289.810 C 181.682 290.325,185.588 290.858,193.000 291.611 C 194.760 291.790,218.304 291.951,245.319 291.968 L 294.439 292.000 294.998 290.700 C 295.633 289.225,295.699 241.565,295.067 240.933 C 294.883 240.750,272.833 240.493,246.067 240.363 C 194.552 240.112,192.177 240.022,188.140 238.176 C 187.446 237.859,186.558 237.600,186.166 237.600 C 184.812 237.600,176.509 233.483,175.880 232.500 C 175.704 232.225,175.294 232.000,174.968 232.000 C 174.642 232.000,174.271 231.730,174.145 231.400 C 174.018 231.070,173.709 230.798,173.457 230.795 C 173.206 230.792,172.227 230.072,171.283 229.195 C 170.338 228.318,169.393 227.600,169.183 227.600 C 168.972 227.600,168.800 227.407,168.800 227.172 C 168.800 226.936,168.080 225.890,167.200 224.846 C 166.320 223.802,165.600 222.735,165.600 222.474 C 165.600 222.213,165.373 222.000,165.095 222.000 C 164.601 222.000,164.289 221.535,163.017 218.900 C 162.672 218.185,162.212 217.600,161.995 217.600 C 161.778 217.600,161.594 217.285,161.586 216.900 C 161.579 216.515,161.225 215.480,160.800 214.600 C 160.375 213.720,160.021 212.719,160.014 212.376 C 160.006 212.034,159.736 211.404,159.413 210.976 C 159.090 210.549,158.820 209.699,158.813 209.087 C 158.806 208.475,158.514 207.305,158.164 206.487 C 156.240 201.990,156.164 184.738,158.040 178.458 C 158.458 177.060,158.800 175.507,158.800 175.007 C 158.800 174.507,159.070 173.874,159.400 173.600 C 159.730 173.326,160.000 172.739,160.000 172.295 C 160.000 171.851,160.345 170.748,160.768 169.844 C 161.190 168.940,161.647 167.930,161.783 167.600 C 163.515 163.410,172.389 153.482,175.785 151.934 C 176.343 151.680,176.800 151.320,176.800 151.136 C 176.800 150.951,177.166 150.800,177.613 150.800 C 178.059 150.800,178.524 150.541,178.646 150.224 C 178.767 149.908,179.427 149.526,180.111 149.376 C 180.795 149.225,181.581 148.876,181.858 148.599 C 182.134 148.323,183.025 147.972,183.838 147.819 C 184.650 147.667,185.572 147.285,185.886 146.971 C 186.200 146.657,187.119 146.399,187.929 146.398 C 188.738 146.396,189.940 146.081,190.600 145.698 C 191.722 145.046,195.156 144.993,243.125 144.890 L 294.449 144.780 295.025 143.403 C 295.503 142.257,295.600 138.029,295.600 118.275 L 295.600 94.524 294.687 93.462 L 293.775 92.400 244.167 92.400 C 213.992 92.400,194.411 92.546,194.180 92.773 M368.727 275.979 C 361.222 283.448,354.298 290.283,353.341 291.169 C 352.383 292.055,351.600 292.965,351.600 293.190 C 351.600 293.416,351.428 293.600,351.218 293.600 C 351.008 293.600,350.378 294.058,349.818 294.618 C 349.258 295.178,348.800 295.808,348.800 296.018 C 348.800 296.228,348.530 296.400,348.200 296.400 C 347.870 296.400,347.600 296.551,347.600 296.736 C 347.600 297.005,316.796 327.983,302.017 342.577 C 300.248 344.324,298.800 345.899,298.800 346.077 C 298.800 346.255,298.656 346.400,298.479 346.400 C 298.028 346.400,288.800 355.583,288.800 356.032 C 288.800 356.234,288.628 356.400,288.418 356.400 C 288.208 356.400,287.578 356.858,287.018 357.418 C 286.458 357.978,286.000 358.608,286.000 358.818 C 286.000 359.028,285.858 359.200,285.685 359.200 C 285.323 359.200,283.882 360.613,270.300 374.285 C 260.276 384.375,259.604 385.200,261.404 385.200 C 262.306 385.200,269.600 378.605,269.600 377.789 C 269.600 377.382,270.711 376.400,271.171 376.400 C 271.407 376.400,271.600 376.119,271.600 375.776 C 271.600 375.433,271.780 375.264,272.000 375.400 C 272.220 375.536,272.400 375.444,272.400 375.195 C 272.400 374.611,273.411 373.600,273.995 373.600 C 274.244 373.600,274.336 373.420,274.200 373.200 C 274.064 372.980,274.120 372.800,274.324 372.800 C 274.529 372.800,279.264 368.212,284.848 362.603 C 290.432 356.995,304.597 342.820,316.327 331.103 C 328.057 319.387,339.937 307.483,342.727 304.651 C 345.517 301.819,355.765 291.532,365.500 281.791 C 382.145 265.135,384.583 262.400,382.787 262.400 C 382.559 262.400,376.232 268.511,368.727 275.979 " stroke="none" fill="#fafbfb" fill-rule="evenodd"></path><path id="path1" d="M139.600 19.374 C 139.600 20.103,18.069 141.600,17.340 141.600 C 16.888 141.600,16.800 161.375,16.800 263.400 L 16.800 385.200 138.573 385.200 C 254.196 385.200,260.357 385.165,260.569 384.500 C 260.692 384.115,264.259 380.340,268.496 376.112 C 272.733 371.883,278.246 366.348,280.747 363.812 C 283.247 361.275,285.452 359.200,285.647 359.200 C 285.841 359.200,286.000 359.028,286.000 358.818 C 286.000 358.322,287.922 356.400,288.418 356.400 C 288.628 356.400,288.800 356.234,288.800 356.032 C 288.800 355.583,298.028 346.400,298.479 346.400 C 298.656 346.400,298.800 346.255,298.800 346.077 C 298.800 345.899,300.248 344.324,302.017 342.577 C 316.796 327.983,347.600 297.005,347.600 296.736 C 347.600 296.551,347.870 296.400,348.200 296.400 C 348.530 296.400,348.800 296.228,348.800 296.018 C 348.800 295.522,350.722 293.600,351.218 293.600 C 351.428 293.600,351.600 293.416,351.600 293.190 C 351.600 292.965,352.383 292.055,353.341 291.169 C 354.298 290.283,361.222 283.448,368.727 275.979 C 376.232 268.511,382.559 262.400,382.787 262.400 C 383.070 262.400,383.200 224.181,383.200 140.600 L 383.200 18.800 261.400 18.800 C 155.828 18.800,139.600 18.877,139.600 19.374 M294.687 93.462 L 295.600 94.524 295.600 118.275 C 295.600 138.029,295.503 142.257,295.025 143.403 L 294.449 144.780 243.125 144.890 C 195.156 144.993,191.722 145.046,190.600 145.698 C 189.940 146.081,188.738 146.396,187.929 146.398 C 187.119 146.399,186.200 146.657,185.886 146.971 C 185.572 147.285,184.650 147.667,183.838 147.819 C 183.025 147.972,182.134 148.323,181.858 148.599 C 181.581 148.876,180.795 149.225,180.111 149.376 C 179.427 149.526,178.767 149.908,178.646 150.224 C 178.524 150.541,178.059 150.800,177.613 150.800 C 177.166 150.800,176.800 150.951,176.800 151.136 C 176.800 151.320,176.343 151.680,175.785 151.934 C 172.389 153.482,163.515 163.410,161.783 167.600 C 161.647 167.930,161.190 168.940,160.768 169.844 C 160.345 170.748,160.000 171.851,160.000 172.295 C 160.000 172.739,159.730 173.326,159.400 173.600 C 159.070 173.874,158.800 174.507,158.800 175.007 C 158.800 175.507,158.458 177.060,158.040 178.458 C 156.164 184.738,156.240 201.990,158.164 206.487 C 158.514 207.305,158.806 208.475,158.813 209.087 C 158.820 209.699,159.090 210.549,159.413 210.976 C 159.736 211.404,160.006 212.034,160.014 212.376 C 160.021 212.719,160.375 213.720,160.800 214.600 C 161.225 215.480,161.579 216.515,161.586 216.900 C 161.594 217.285,161.778 217.600,161.995 217.600 C 162.212 217.600,162.672 218.185,163.017 218.900 C 164.289 221.535,164.601 222.000,165.095 222.000 C 165.373 222.000,165.600 222.213,165.600 222.474 C 165.600 222.735,166.320 223.802,167.200 224.846 C 168.080 225.890,168.800 226.936,168.800 227.172 C 168.800 227.407,168.972 227.600,169.183 227.600 C 169.393 227.600,170.338 228.318,171.283 229.195 C 172.227 230.072,173.206 230.792,173.457 230.795 C 173.709 230.798,174.018 231.070,174.145 231.400 C 174.271 231.730,174.642 232.000,174.968 232.000 C 175.294 232.000,175.704 232.225,175.880 232.500 C 176.509 233.483,184.812 237.600,186.166 237.600 C 186.558 237.600,187.446 237.859,188.140 238.176 C 192.177 240.022,194.552 240.112,246.067 240.363 C 272.833 240.493,294.883 240.750,295.067 240.933 C 295.699 241.565,295.633 289.225,294.998 290.700 L 294.439 292.000 245.319 291.968 C 218.304 291.951,194.760 291.790,193.000 291.611 C 185.588 290.858,181.682 290.325,179.800 289.810 C 178.700 289.509,176.949 289.148,175.909 289.008 C 174.869 288.868,173.927 288.605,173.814 288.423 C 173.702 288.241,172.753 287.968,171.705 287.815 C 170.657 287.662,169.440 287.308,169.000 287.027 C 168.560 286.747,167.660 286.414,167.000 286.289 C 165.263 285.959,161.620 284.580,161.092 284.052 C 160.843 283.803,160.299 283.600,159.882 283.600 C 159.465 283.600,158.646 283.262,158.062 282.850 C 157.478 282.437,156.415 281.973,155.700 281.818 C 154.985 281.663,154.400 281.371,154.400 281.168 C 154.400 280.966,154.154 280.800,153.854 280.800 C 153.554 280.800,152.850 280.440,152.291 280.000 C 151.731 279.560,151.006 279.200,150.680 279.200 C 150.353 279.200,149.988 278.947,149.870 278.638 C 149.751 278.328,149.117 277.957,148.460 277.813 C 147.804 277.669,147.167 277.292,147.046 276.976 C 146.924 276.659,146.577 276.400,146.275 276.400 C 145.972 276.400,145.398 276.040,145.000 275.600 C 144.602 275.160,144.028 274.800,143.725 274.800 C 143.423 274.800,143.071 274.530,142.945 274.200 C 142.818 273.870,142.473 273.600,142.177 273.600 C 141.882 273.600,141.496 273.365,141.320 273.079 C 141.144 272.792,140.145 271.951,139.100 271.211 C 138.055 270.470,137.200 269.715,137.200 269.532 C 137.200 269.349,137.034 269.200,136.831 269.200 C 136.340 269.200,128.800 261.707,128.800 261.220 C 128.800 261.011,128.543 260.696,128.230 260.520 C 127.571 260.150,125.600 257.349,125.600 256.782 C 125.600 256.572,125.342 256.400,125.027 256.400 C 124.712 256.400,124.340 256.040,124.200 255.600 C 124.060 255.160,123.790 254.800,123.600 254.800 C 123.410 254.800,123.140 254.441,123.001 254.002 C 122.862 253.564,122.534 252.974,122.274 252.692 C 121.334 251.673,120.107 249.766,119.829 248.892 C 119.674 248.402,119.378 248.000,119.173 248.000 C 118.968 248.000,118.800 247.754,118.800 247.454 C 118.800 247.154,118.440 246.450,118.000 245.891 C 117.560 245.331,117.196 244.632,117.191 244.337 C 117.186 244.042,116.830 243.350,116.400 242.800 C 115.970 242.250,115.614 241.485,115.609 241.100 C 115.604 240.715,115.423 240.400,115.208 240.400 C 114.992 240.400,114.701 239.905,114.561 239.300 C 114.421 238.695,113.948 237.390,113.510 236.400 C 113.072 235.410,112.475 234.060,112.182 233.400 C 111.890 232.740,111.529 231.570,111.379 230.800 C 111.230 230.030,110.969 229.220,110.799 229.000 C 110.629 228.780,110.006 226.800,109.414 224.600 C 108.822 222.400,108.179 220.060,107.985 219.400 C 107.790 218.740,107.521 217.390,107.386 216.400 C 107.252 215.410,106.872 213.340,106.543 211.800 C 104.763 203.471,104.759 180.179,106.535 172.128 C 106.867 170.628,107.351 168.410,107.611 167.200 C 109.075 160.392,109.275 159.629,111.012 154.200 C 111.685 152.097,112.138 150.979,113.543 147.956 C 114.014 146.942,114.400 145.839,114.400 145.505 C 114.400 145.171,114.670 144.674,115.000 144.400 C 115.330 144.126,115.600 143.637,115.600 143.314 C 115.600 142.991,115.960 142.269,116.400 141.709 C 116.840 141.150,117.200 140.376,117.200 139.989 C 117.200 139.602,117.453 139.188,117.762 139.070 C 118.072 138.951,118.446 138.302,118.594 137.627 C 118.742 136.952,119.008 136.400,119.184 136.400 C 119.360 136.400,120.001 135.420,120.607 134.222 C 121.213 133.024,121.954 131.950,122.254 131.835 C 122.554 131.719,122.800 131.377,122.800 131.075 C 122.800 130.772,123.160 130.198,123.600 129.800 C 124.040 129.402,124.400 128.828,124.400 128.525 C 124.400 128.223,124.670 127.871,125.000 127.745 C 125.330 127.618,125.600 127.364,125.600 127.179 C 125.600 126.995,126.237 126.160,127.016 125.322 C 127.794 124.485,128.829 123.286,129.316 122.658 C 131.246 120.166,137.118 114.678,140.252 112.436 C 140.994 111.906,141.600 111.321,141.600 111.136 C 141.600 110.951,141.842 110.800,142.138 110.800 C 142.434 110.800,143.002 110.440,143.400 110.000 C 143.798 109.560,144.372 109.200,144.675 109.200 C 144.977 109.200,145.322 108.946,145.441 108.636 C 145.561 108.326,146.095 107.963,146.629 107.828 C 147.163 107.694,147.600 107.430,147.600 107.241 C 147.600 107.052,148.140 106.673,148.800 106.400 C 149.460 106.127,150.000 105.759,150.000 105.583 C 150.000 105.407,150.538 105.145,151.195 105.001 C 151.853 104.857,152.486 104.584,152.603 104.394 C 152.847 104.000,156.959 102.000,157.526 102.000 C 157.733 102.000,158.110 101.749,158.365 101.442 C 158.620 101.135,159.452 100.767,160.214 100.624 C 160.976 100.481,161.600 100.208,161.600 100.017 C 161.600 99.826,162.324 99.548,163.208 99.399 C 164.092 99.249,165.040 98.903,165.313 98.630 C 165.587 98.356,166.549 98.014,167.452 97.870 C 168.355 97.726,169.613 97.337,170.247 97.006 C 170.881 96.676,171.904 96.404,172.520 96.402 C 173.136 96.401,174.126 96.149,174.720 95.842 C 175.314 95.535,177.053 95.150,178.584 94.986 C 180.116 94.823,181.916 94.467,182.584 94.195 C 183.253 93.923,186.050 93.576,188.800 93.424 C 191.550 93.271,193.971 92.979,194.180 92.773 C 194.411 92.546,213.992 92.400,244.167 92.400 L 293.775 92.400 294.687 93.462 " stroke="none" fill="#0babe4" fill-rule="evenodd"></path></g></svg>