<?xml version="1.0" encoding="iso-8859-1"?>
<!-- Generator: Adobe Illustrator 18.0.0, SVG Export Plug-In . SVG Version: 6.00 Build 0)  -->
<!DOCTYPE svg PUBLIC "-//W3C//DTD SVG 1.1//EN" "http://www.w3.org/Graphics/SVG/1.1/DTD/svg11.dtd">
<svg version="1.1" id="Capa_1" xmlns="http://www.w3.org/2000/svg" xmlns:xlink="http://www.w3.org/1999/xlink" x="0px" y="0px"
	 viewBox="0 0 287.692 287.692" style="enable-background:new 0 0 287.692 287.692;" xml:space="preserve">
<path d="M282.987,239.754l-20.885-118.438c-0.001-0.005-0.001-0.01-0.002-0.015l-6.963-39.483c-0.404-2.295-1.813-4.16-3.693-5.225
	c-1.462-0.828-3.211-1.173-4.995-0.858L108.927,99.983l131.224-47.762c3.892-1.417,5.899-5.721,4.482-9.613L230.921,4.934
	c-0.681-1.869-2.075-3.392-3.878-4.233c-1.803-0.84-3.865-0.93-5.735-0.25L9.528,77.533c-3.892,1.417-5.899,5.721-4.483,9.613
	l13.488,37.06l6.848,38.835c0,0,0,0.001,0,0.001l20.887,118.452c0.345,1.959,1.454,3.701,3.084,4.841
	c1.269,0.889,2.772,1.357,4.302,1.357c0.434,0,0.869-0.038,1.303-0.114l221.947-39.136c1.959-0.346,3.7-1.455,4.841-3.085
	C282.885,243.728,283.332,241.713,282.987,239.754z M246.025,116.52l-27.791,4.9l15.412-28.197l8.021-1.414L246.025,116.52z
	 M34.494,128.339l27.878-4.916L46.958,151.62l-8.107,1.43L34.494,128.339z M96.766,61.743L86.484,92.189l-30.409,11.068
	l10.282-30.445L96.766,61.743z M145.227,44.105l-10.283,30.445l-30.409,11.068l10.282-30.445L145.227,44.105z M193.685,26.468
	l-10.28,30.444L152.995,67.98l10.282-30.445L193.685,26.468z M81.289,120.088l31.867-5.619l-15.412,28.197l-31.868,5.619
	L81.289,120.088z M132.075,111.133l31.869-5.62l-15.413,28.197l-31.868,5.619L132.075,111.133z M182.862,102.178l31.866-5.619
	l-15.412,28.197l-31.867,5.619L182.862,102.178z M227.972,40.691l-26.518,9.652l10.28-30.444l7.656-2.787L227.972,40.691z
	 M48.306,79.382l-10.282,30.445l-7.736,2.816l-8.582-23.58L48.306,79.382z M59.738,271.503L41.455,167.823l207.175-36.53
	l18.282,103.68L59.738,271.503z"/>
<g>
</g>
<g>
</g>
<g>
</g>
<g>
</g>
<g>
</g>
<g>
</g>
<g>
</g>
<g>
</g>
<g>
</g>
<g>
</g>
<g>
</g>
<g>
</g>
<g>
</g>
<g>
</g>
<g>
</g>
</svg>
