<?xml version="1.0" standalone="no"?>
<!DOCTYPE svg PUBLIC "-//W3C//DTD SVG 20010904//EN"
 "http://www.w3.org/TR/2001/REC-SVG-20010904/DTD/svg10.dtd">
<svg version="1.0" xmlns="http://www.w3.org/2000/svg"
 width="762.000000pt" height="762.000000pt" viewBox="0 0 762.000000 762.000000"
 preserveAspectRatio="xMidYMid meet">
<metadata>
Created by potrace 1.11, written by Peter Selinger 2001-2013
</metadata>
<g transform="translate(0.000000,762.000000) scale(0.100000,-0.100000)"
fill="#000000" stroke="none">
<path d="M3325 7382 c-3 -3 -29 -7 -58 -8 -28 -2 -72 -6 -97 -9 -25 -3 -66 -8
-92 -10 -26 -2 -55 -6 -65 -9 -10 -3 -35 -8 -57 -12 -21 -3 -48 -8 -60 -10
-11 -3 -34 -8 -51 -10 -77 -14 -358 -91 -410 -114 -11 -4 -49 -18 -85 -30 -36
-13 -81 -29 -100 -37 -19 -8 -44 -19 -55 -23 -108 -43 -409 -199 -504 -262
-14 -10 -41 -25 -58 -35 -18 -9 -33 -20 -33 -25 0 -4 -7 -8 -15 -8 -8 0 -15
-4 -15 -10 0 -5 -7 -10 -15 -10 -8 0 -15 -4 -15 -10 0 -5 -6 -10 -14 -10 -8 0
-16 -3 -18 -8 -1 -4 -48 -41 -103 -82 -55 -41 -107 -82 -116 -90 -69 -66 -91
-80 -131 -85 -96 -12 -133 -17 -138 -20 -3 -2 -24 -6 -46 -9 -22 -4 -51 -9
-64 -12 -14 -3 -45 -10 -69 -15 -23 -5 -62 -14 -85 -21 -22 -6 -48 -13 -56
-14 -31 -4 -238 -76 -320 -111 -97 -42 -132 -62 -125 -73 4 -7 9 -58 20 -235
2 -33 6 -89 9 -125 3 -36 8 -101 11 -145 2 -44 7 -100 9 -125 7 -68 18 -232
17 -256 0 -12 -10 -43 -22 -70 -27 -62 -109 -274 -114 -294 -2 -8 -11 -36 -19
-62 -18 -52 -90 -332 -101 -388 -7 -42 -12 -71 -19 -125 -3 -22 -8 -53 -11
-70 -5 -32 -11 -79 -22 -185 -9 -82 -9 -531 0 -625 10 -99 23 -201 32 -245 3
-14 7 -43 10 -65 8 -69 82 -375 104 -430 5 -11 23 -65 41 -120 18 -55 40 -118
50 -140 10 -22 39 -89 65 -150 27 -60 52 -113 57 -116 6 -3 10 -9 9 -12 -1
-18 76 -162 152 -283 42 -68 51 -93 56 -152 1 -9 6 -10 18 -4 13 8 24 0 55
-39 21 -27 38 -53 38 -58 0 -5 3 -11 8 -13 4 -2 41 -46 83 -99 124 -154 346
-383 466 -479 10 -8 41 -33 68 -56 93 -76 184 -144 193 -144 5 0 15 -7 22 -15
32 -38 522 -319 585 -336 6 -1 33 -12 60 -24 28 -12 79 -33 115 -45 36 -13 69
-27 75 -32 5 -4 19 -8 31 -8 13 0 26 -5 29 -10 3 -6 16 -10 29 -10 12 0 26 -4
31 -9 6 -6 24 -12 40 -15 17 -2 31 -5 33 -6 1 -2 5 -3 10 -4 4 -2 27 -8 52
-15 25 -7 53 -15 63 -17 10 -2 27 -6 37 -9 10 -3 27 -8 37 -10 10 -2 38 -8 63
-14 63 -14 287 -52 335 -57 22 -2 70 -6 107 -8 37 -3 71 -7 76 -10 10 -6 522
0 572 8 19 2 58 7 85 10 28 3 61 7 75 10 14 2 46 7 71 10 75 11 99 15 214 41
39 8 79 17 91 19 40 8 270 77 339 103 181 67 436 179 443 195 2 5 8 8 14 8 15
0 242 131 246 141 2 5 8 9 14 9 9 0 214 137 245 164 7 6 24 20 38 31 14 11 36
28 48 39 12 10 37 30 56 45 140 107 424 404 541 564 19 27 45 60 58 74 12 14
22 29 22 33 0 4 10 18 23 32 12 14 60 67 107 119 47 51 95 104 108 117 12 13
22 24 22 26 0 2 19 24 43 48 43 46 187 204 220 242 10 12 51 56 90 100 104
114 115 125 192 211 39 43 81 90 95 105 14 15 43 47 64 71 22 24 61 67 88 95
l49 51 -48 64 c-26 35 -51 66 -55 67 -5 2 -6 8 -2 13 3 5 1 9 -3 9 -5 0 -31
30 -59 68 -27 37 -54 74 -61 82 -7 8 -53 69 -102 135 -50 66 -97 128 -104 138
-9 11 -13 37 -11 70 5 88 4 348 -2 427 -7 97 -11 145 -13 145 -1 0 -3 25 -6
55 -2 30 -5 69 -8 85 -3 17 -9 50 -12 75 -4 25 -9 54 -12 65 -2 11 -6 31 -9
45 -2 14 -7 36 -10 50 -3 14 -8 36 -11 50 -5 31 -37 150 -64 245 -26 89 -85
255 -115 323 -13 29 -24 55 -24 58 0 8 -137 284 -168 339 -16 28 -35 61 -43
75 -8 14 -16 27 -19 30 -3 3 -28 41 -55 85 -140 227 -410 540 -634 735 -35 30
-68 60 -75 66 -15 14 -183 143 -226 173 -135 96 -385 245 -495 295 -22 10 -58
27 -80 38 -52 26 -262 110 -345 138 -97 32 -272 82 -282 80 -2 0 -25 6 -53 14
-63 18 -137 32 -290 56 -88 13 -143 20 -210 27 -81 7 -583 12 -590 5z"/>
</g>
</svg>
